<svg width="128" height="128" viewBox="0 0 128 128" fill="none" xmlns="http://www.w3.org/2000/svg">
<path fill-rule="evenodd" clip-rule="evenodd" d="M42.4538 2.73844C42.0208 2.85168 42.0402 3.16554 42.4801 3.16554C42.6729 3.16554 42.8781 3.04074 42.9367 2.8882C43.0458 2.60393 43.0107 2.59283 42.4538 2.73844ZM85.5718 2.8882C85.8228 3.19096 86.3113 3.26492 86.3113 3.00052C86.3113 2.83042 85.8736 2.61086 85.5339 2.61086C85.4175 2.61086 85.4323 2.72041 85.5718 2.8882ZM61.8176 28.3083C51.4591 28.6998 40.2716 34.7953 35.0008 42.919C34.7046 43.3762 34.4144 43.7913 34.3557 43.8421C33.821 44.3071 31.684 48.2208 30.7722 50.4058C29.9778 52.3093 28.7323 56.8161 28.3704 59.0958C27.9947 61.4634 28.2031 68.316 28.7194 70.5592C28.9999 71.7795 29.2989 73.1181 29.3839 73.5346C31.4645 83.75 41.395 94.3467 52.419 98.1139C56.7886 99.6073 65.7634 100.269 70.0979 99.4183C70.8308 99.2745 71.763 99.1035 72.1696 99.0383C72.9752 98.9094 75.8266 98.1014 76.4214 97.8338C77.3369 97.4214 78.91 96.7341 79.8412 96.3398C80.4004 96.1027 81.0659 95.7703 81.3201 95.6007C81.5743 95.4311 82.4362 94.8953 83.2352 94.4095C90.9063 89.7488 97.2932 80.6072 99.188 71.5761C100.349 66.0404 99.8262 56.8064 98.1089 52.5321C95.9331 47.1166 95.2094 45.7479 92.8889 42.6602C90.5491 39.5466 86.5862 35.6901 84.4899 34.487C84.0172 34.2156 83.4229 33.8028 83.1687 33.5694C81.8169 32.3279 77.1044 30.3555 73.0939 29.3525C68.5321 28.2112 67.3296 28.1003 61.8176 28.3083ZM57.2886 45.691C57.8806 46.2832 57.5825 47.435 55.8472 51.2609C55.0103 53.1053 55.062 53.0868 50.7655 53.0868C45.9827 53.0868 45.6241 52.8668 46.7236 50.6074C47.0249 49.988 47.5277 48.739 47.8406 47.8321C48.7468 45.2071 48.5093 45.3212 53.0692 45.3212C56.6726 45.3212 56.9425 45.3448 57.2886 45.691ZM74.1763 45.5875C79.8703 46.6774 82.4302 49.8632 81.7125 54.9662C81.3113 57.8163 78.9535 61.3927 76.805 62.4096C75.1907 63.1732 75.0151 64.0061 76.3516 64.5594C79.6772 65.9373 80.5576 71.8807 78.0902 76.2941C75.1676 81.5211 71.6997 82.6355 58.2157 82.6808L49.4497 82.7099L49.1175 82.2995C48.7066 81.7919 48.7015 81.5188 49.0902 80.7672C49.2579 80.4427 49.7936 79.1077 50.2802 77.8006C51.4721 74.6 50.5302 74.9042 59.1908 74.9236L66.5458 74.9407L67.5515 74.4484C70.1233 73.1898 71.0194 70.1437 69.339 68.3715C68.326 67.3037 68.1559 67.282 61.0639 67.3152C55.2436 67.3425 54.5532 67.3143 54.3263 67.0407C53.9459 66.5821 54.0527 65.5851 54.5842 64.6338C54.8457 64.166 55.2358 63.1302 55.4511 62.3314C56.0607 60.0725 55.5704 60.2176 62.6162 60.2107C68.448 60.2052 68.6832 60.1913 69.3968 59.8063C72.2769 58.2518 72.8222 54.5668 70.3386 53.439C69.6611 53.1312 69.0562 53.0946 64.5789 53.0909C59.8031 53.0868 59.5582 53.0697 59.1719 52.7096C58.6617 52.2339 58.645 51.3488 59.1316 50.55C59.3313 50.2223 59.6996 49.2475 59.9506 48.3826C60.4344 46.7135 60.794 46.0881 61.5403 45.6208C62.1897 45.2135 72.0869 45.1877 74.1763 45.5875ZM0.182439 49.2502C0.190296 49.479 0.236045 49.571 0.283646 49.4545C0.331247 49.3385 0.511947 49.2641 0.684789 49.2895C0.858093 49.3149 0.895526 49.3002 0.768437 49.2562C0.641347 49.2128 0.537365 49.1 0.537365 49.0057C0.537365 48.9114 0.454178 48.8342 0.352507 48.8342C0.250835 48.8342 0.174121 49.0214 0.182439 49.2502ZM0.167648 78.787C0.167648 78.9903 0.250835 79.1567 0.352507 79.1567C0.454178 79.1567 0.537365 79.0735 0.537365 78.9719C0.537365 78.8702 0.682939 78.781 0.860864 78.774C1.13769 78.7629 1.13076 78.738 0.81465 78.6021C0.253146 78.3608 0.167648 78.3853 0.167648 78.787ZM122.558 92.5019C122.55 92.6725 122.324 92.9845 122.056 93.1952C121.788 93.406 121.649 93.5784 121.747 93.5784C122.055 93.5784 122.772 92.6914 122.67 92.4363C122.603 92.2685 122.568 92.2893 122.558 92.5019ZM34.2993 121.405C34.358 121.557 34.5317 121.682 34.6861 121.682C34.9139 121.682 34.9232 121.63 34.736 121.405C34.6094 121.252 34.4356 121.128 34.3497 121.128C34.2632 121.128 34.241 121.252 34.2993 121.405ZM81.1412 126.624C80.8991 126.897 80.9056 126.916 81.2027 126.802C81.3857 126.732 81.5701 126.674 81.6126 126.674C81.6551 126.674 81.6898 126.591 81.6898 126.489C81.6898 126.218 81.45 126.276 81.1412 126.624ZM47.8942 127.275C47.933 127.549 48.1021 127.713 48.3896 127.753C48.6715 127.793 48.7815 127.743 48.7006 127.611C48.6313 127.499 48.5051 127.451 48.4201 127.504C48.3346 127.556 48.3087 127.433 48.3618 127.23C48.4302 126.967 48.3679 126.859 48.147 126.859C47.9293 126.859 47.853 126.985 47.8942 127.275ZM80.0797 127.23C80.1328 127.433 80.101 127.553 80.009 127.496C79.9166 127.439 79.8412 127.48 79.8412 127.588C79.8412 127.897 80.5289 127.816 80.6532 127.491C80.8427 126.998 80.7817 126.859 80.3741 126.859C80.0737 126.859 80.0053 126.945 80.0797 127.23Z" fill="#D50A13"/>
<path fill-rule="evenodd" clip-rule="evenodd" d="M49.4473 0.166977C48.9029 0.290856 48.2272 0.779899 48.3428 0.967103C48.3987 1.0577 48.2804 1.13166 48.0793 1.13166C47.8783 1.13166 47.6833 1.22364 47.6459 1.33597C47.6084 1.44829 47.1648 1.56061 46.6601 1.58557C46.1554 1.61007 45.575 1.64335 45.3707 1.6586C45.1664 1.67386 44.775 1.89434 44.5005 2.14857C44.2264 2.4028 43.7879 2.61081 43.5263 2.61081C43.2643 2.61081 43.0022 2.73561 42.944 2.88815C42.8724 3.07489 42.5789 3.16549 42.0451 3.16549C41.5114 3.16549 41.2179 3.25608 41.1463 3.44283C41.088 3.59536 40.9124 3.72017 40.7571 3.72017C39.8675 3.72017 40.5062 4.29657 42.5821 5.36664C46.4355 7.35425 47.8829 12.1448 45.4211 14.7676C44.8878 15.3361 45.3236 15.313 46.3648 14.7176C46.8089 14.4634 47.8446 14.0844 48.6667 13.8741C49.4884 13.6642 50.3161 13.4095 50.5061 13.3078C50.6955 13.2066 51.5306 13.067 52.3611 12.9977C54.242 12.8414 54.3294 12.6311 53.0525 11.3271C52.5395 10.803 52.1199 10.2783 52.1199 10.1605C52.1199 10.0426 51.8495 9.5249 51.5191 9.00997C50.4894 7.40509 50.989 3.26394 52.3361 2.23917C52.4045 2.1874 52.5178 1.91607 52.588 1.63642C52.6578 1.35677 52.7895 1.08266 52.8796 1.02673C54.0313 0.31443 51.5399 -0.309586 49.4473 0.166977ZM75.3486 0.15958C75.1651 0.457259 75.5593 1.54859 76.2225 2.57799C78.0429 5.40408 77.4671 9.18562 74.8615 11.5144C73.5097 12.7226 73.6572 13.0111 75.7081 13.1715C77.1764 13.2861 78.5499 13.6781 80.7728 14.6164C82.3635 15.288 83.2619 15.5173 82.687 15.1045C79.0402 12.4874 81.753 5.59314 86.7404 4.80503C87.2654 4.72183 87.7544 4.53 87.8422 4.37284C87.9295 4.21707 88.1259 4.08995 88.2794 4.08995C88.4333 4.08995 88.5072 4.00675 88.4444 3.90506C88.3815 3.80337 88.1786 3.72017 87.9938 3.72017C87.8089 3.72017 87.5543 3.59536 87.4276 3.44283C87.2978 3.28659 86.8948 3.16549 86.5034 3.16549C86.1216 3.16549 85.721 3.05917 85.6133 2.92928C85.5056 2.7994 85.1913 2.67459 84.9145 2.65195C84.6377 2.62883 84.1307 2.39587 83.7878 2.13424C83.3418 1.79404 82.8663 1.63457 82.1185 1.57355C81.5432 1.52687 80.984 1.41963 80.8763 1.3355C80.7686 1.25138 80.4484 1.12704 80.1646 1.05909C79.8808 0.991602 79.6927 0.864487 79.7464 0.777588C79.8004 0.690225 79.7186 0.514576 79.5652 0.387C79.2251 0.104575 75.5067 -0.0955727 75.3486 0.15958ZM35.9314 5.61116C35.8732 5.79421 35.748 5.89636 35.6528 5.8372C35.558 5.7785 35.43 5.86077 35.369 6.01978C35.3029 6.19173 35.0367 6.30868 34.7104 6.30868C34.4087 6.30868 34.0463 6.41268 33.9045 6.53979C33.3 7.08199 33.0851 7.23314 32.9173 7.23314C32.6516 7.23314 31.603 7.85947 31.6021 8.01894C31.5988 8.38133 30.8095 8.89718 30.2582 8.89718C29.8307 8.89718 29.5538 9.03169 29.308 9.35942C29.1093 9.62381 28.7742 9.82165 28.5247 9.82165C28.2603 9.82165 28.0884 9.93074 28.0884 10.099C28.0884 10.2515 27.9636 10.3763 27.8111 10.3763C27.6586 10.3763 27.5338 10.5011 27.5338 10.6537C27.5338 10.8062 27.4298 10.9407 27.3027 10.9523C27.1757 10.9643 26.9686 10.9851 26.8424 10.9985C26.7167 11.0124 26.6336 11.1067 26.6576 11.2084C26.6821 11.31 26.7643 11.3724 26.8406 11.347C26.9169 11.3216 26.9792 11.4127 26.9792 11.5495C26.9792 11.9507 27.5518 12.3519 28.6938 12.7513C31.4912 13.7303 33.8767 16.8758 33.9008 19.6173C33.9146 21.1681 34.1388 21.2134 35.6809 19.9783C36.3344 19.4551 37.3414 18.7881 37.9186 18.4964C38.4959 18.2043 39.019 17.8825 39.0819 17.7813C39.1443 17.6801 39.5431 17.5035 39.9678 17.3893C41.2063 17.0556 41.516 16.7519 40.6411 16.7288C36.8677 16.6299 34.1462 11.3304 35.931 7.55717C36.1925 7.00341 36.407 6.34612 36.407 6.09651C36.407 5.84737 36.5026 5.54738 36.6196 5.43043C36.7795 5.2705 36.7337 5.22566 36.4347 5.24785C36.2161 5.26449 35.9897 5.42812 35.9314 5.61116ZM90.7551 5.35648C90.7551 5.7503 91.2362 6.82499 91.7561 7.59276C92.7751 9.09779 92.6342 12.5382 91.5065 13.6924C91.2422 13.9628 90.8609 14.389 90.6594 14.64C89.6436 15.9037 87.4212 17.0015 86.3398 16.7732C85.964 16.6937 86.0005 16.739 86.5034 16.9752C87.4558 17.4226 88.5779 17.9838 88.9989 18.2232C91.006 19.3631 91.6138 19.7583 92.1813 20.2936C92.7723 20.851 93.6911 21.1385 93.7262 20.7766C93.7336 20.7003 93.7558 19.8891 93.7752 18.9739L93.8108 17.3098L94.7979 15.882C96.0508 14.0705 97.6854 12.9468 99.8681 12.3958C100.767 12.1693 101.67 11.1496 101.132 10.9698C101.017 10.9315 100.922 10.7822 100.922 10.6384C100.922 10.4942 100.797 10.3763 100.645 10.3763C100.492 10.3763 100.368 10.2515 100.368 10.099C100.368 9.94645 100.205 9.82165 100.008 9.82165C99.8094 9.82165 99.423 9.61365 99.1485 9.35942C98.8588 9.09086 98.429 8.89718 98.1226 8.89718C97.6101 8.89718 96.8554 8.34666 96.8554 7.97272C96.8554 7.87102 96.7306 7.78782 96.5781 7.78782C96.4256 7.78782 96.3008 7.70601 96.3008 7.60663C96.3008 7.50678 96.0767 7.36904 95.8031 7.30016C95.529 7.23129 95.1339 6.99047 94.925 6.7649C94.504 6.31052 94.4989 6.30868 93.7128 6.30868C93.3431 6.30868 93.1582 6.21623 93.1582 6.03134C93.1582 5.8788 93.0307 5.754 92.8749 5.754C92.7197 5.754 92.544 5.62919 92.4858 5.47665C92.3707 5.17759 90.7551 5.06527 90.7551 5.35648ZM59.699 19.0783C56.2856 19.3682 54.5267 19.664 52.4896 20.2903C51.3204 20.6499 49.7814 21.1043 49.0697 21.2998C48.358 21.4958 47.1518 21.9567 46.3893 22.3241C45.6267 22.6916 44.4825 23.1904 43.8466 23.4317C43.2107 23.6734 42.2124 24.1763 41.6283 24.5498C41.0441 24.9228 40.0057 25.5889 39.3208 26.0299C38.6354 26.4708 38.0226 26.8319 37.9588 26.8319C37.7504 26.8319 35.2299 28.794 33.9077 29.9852C30.2203 33.3077 27.4012 36.7449 24.7744 41.12C24.5437 41.5036 24.2498 41.9233 24.1213 42.0518C23.9032 42.2695 23.6795 42.7202 22.221 45.8759C21.9155 46.5369 21.5601 47.4937 21.4312 48.0021C21.3023 48.5106 21.0874 49.1762 20.9538 49.4813C19.5997 52.569 19.279 54.1965 18.6422 61.222C18.2188 65.892 19.1256 74.9605 20.2398 77.1941C20.3881 77.4913 20.5097 77.8255 20.5102 77.9369C20.5111 78.0487 20.6419 78.3894 20.8008 78.6945C20.9603 78.9995 21.1669 79.6504 21.2597 80.1413C21.4978 81.3944 22.9151 84.3957 24.9458 87.9456C27.361 92.1686 32.2421 97.5023 36.8271 100.929C38.2204 101.971 39.4017 102.823 39.452 102.823C39.5019 102.823 40.0644 103.141 40.7017 103.53C42.1828 104.434 45.4701 106.036 46.6666 106.436C47.1749 106.606 47.9236 106.893 48.3303 107.072C50.7556 108.142 51.9909 108.438 56.7413 109.087C63.289 109.983 64.5543 110.016 68.8495 109.406C74.3772 108.62 76.1523 108.253 77.7993 107.557C78.6552 107.195 79.8198 106.765 80.3874 106.601C82.3565 106.032 87.4055 103.335 89.4611 101.753C89.7153 101.557 90.1968 101.257 90.5319 101.085C92.5191 100.063 99.0325 93.326 101.006 90.2503C101.495 89.4876 102.176 88.4333 102.518 87.9077C102.861 87.3817 103.197 86.7993 103.266 86.6135C103.335 86.4272 103.571 85.9839 103.791 85.628C104.011 85.2721 104.506 84.2736 104.89 83.4093C105.274 82.5449 105.772 81.4633 105.997 81.0056C106.221 80.548 106.46 79.8824 106.528 79.5265C106.596 79.1706 107.02 77.7145 107.47 76.2908C108.956 71.595 108.938 71.7439 108.937 64.1803L108.936 57.4317L108.24 54.9357C107.858 53.5628 107.419 52.0652 107.266 51.6076C107.113 51.15 106.83 50.2028 106.637 49.5026C106.445 48.8027 106.217 48.1371 106.132 48.0234C106.047 47.9102 105.825 47.4012 105.638 46.8928C105.298 45.9637 104.504 44.3038 103.252 41.9007C102.881 41.1888 102.122 39.9824 101.565 39.2197C101.008 38.457 100.265 37.4054 99.9129 36.8831C99.5617 36.3608 99.1666 35.82 99.0353 35.6813C98.9036 35.5426 98.4729 35.0129 98.0778 34.5045C96.8041 32.8672 93.4512 29.7176 91.4756 28.3022C90.4186 27.5451 89.3039 26.7426 88.9989 26.5185C88.6939 26.2947 87.9037 25.8066 87.2428 25.4341C86.5819 25.061 85.6978 24.5248 85.2778 24.242C84.8581 23.9591 84.3174 23.6665 84.0762 23.5911C83.8354 23.5158 82.7933 23.0531 81.7604 22.5627C80.7279 22.0722 79.3457 21.5462 78.689 21.3941C78.0323 21.2416 77.1718 20.9948 76.7766 20.845C72.6109 19.2683 65.7845 18.562 59.699 19.0783ZM68.6078 26.4598C70.4355 26.5933 71.395 26.7713 72.9519 27.2659C74.0504 27.6149 75.5737 28.0891 76.3362 28.3198C77.0987 28.5504 78.3465 29.0547 79.1091 29.4398C79.8716 29.8253 80.8116 30.2672 81.198 30.422C81.8704 30.6915 83.7333 31.8429 85.3018 32.9588C85.7085 33.2477 86.4571 33.7658 86.9655 34.1102C87.9517 34.7776 91.745 38.4774 93.21 40.2006C95.9385 43.4099 99.4332 49.9736 100.17 53.2716C100.295 53.8309 100.59 54.8709 100.827 55.5828C102.208 59.7369 102.238 68.3085 100.885 72.4081C100.684 73.0182 100.321 74.3019 100.077 75.2605C99.8339 76.2192 99.3052 77.6752 98.9031 78.4962C98.5006 79.3171 97.9701 80.451 97.7242 81.0153C97.4788 81.5802 96.9224 82.5786 96.4889 83.2341C93.784 87.3207 93.7992 87.3008 91.049 90.2859C88.4767 93.0773 84.3562 96.1406 80.9576 97.788C80.0934 98.2067 79.1784 98.6782 78.9242 98.8354C77.4874 99.7247 71.6196 101.385 68.9424 101.66C63.038 102.267 57.2215 101.802 53.229 100.404C51.7548 99.8879 50.299 99.4016 49.994 99.323C48.3585 98.9015 41.9878 95.1347 39.8804 93.3427C37.8137 91.5852 34.0634 87.6821 33.837 87.053C33.7963 86.9393 33.5985 86.6763 33.3975 86.4683C32.9922 86.0491 31.4158 83.6903 31.4158 83.5031C31.4158 83.4379 31.218 83.1199 30.9759 82.7959C30.2882 81.8765 28.2585 77.3748 27.7926 75.7362C27.5611 74.9226 27.0994 73.3834 26.7662 72.3156L26.1603 70.3743L26.1562 64.0879L26.152 57.8015L26.7676 55.8601C27.1063 54.7924 27.5851 53.1769 27.831 52.2704C28.0773 51.364 28.3481 50.532 28.4331 50.4215C28.5182 50.311 29.0108 49.3057 29.5275 48.187C31.993 42.8506 36.0183 37.8007 40.6587 34.2225C41.1162 33.8694 41.6153 33.4464 41.7678 33.2823C42.0668 32.9606 43.9043 31.8244 44.1275 31.823C44.2024 31.8226 44.6378 31.5721 45.0953 31.2661C46.4447 30.3629 49.683 28.8611 51.4729 28.3073C52.3879 28.0244 54.01 27.522 55.0776 27.1901C57.8172 26.3396 63.0805 26.0553 68.6078 26.4598ZM116.787 27.9486C116.582 28.0679 116.433 28.4927 116.35 29.1911C115.983 32.2636 112.833 34.9903 109.502 35.1179C107.071 35.2108 107.024 35.2584 108.124 36.53C108.527 36.9954 109.03 37.7688 109.242 38.2495C109.455 38.7297 109.79 39.2946 109.987 39.5044C110.185 39.7143 110.551 40.3813 110.802 40.9859L111.259 42.0856L111.266 41.1334C111.287 38.6345 114.406 36.175 117.559 36.1713L119.5 36.169L120.555 36.9085C121.231 37.3833 121.885 38.0683 122.38 38.8213C125.666 43.8208 117.471 50.3591 113.232 46.1195C112.812 45.6993 112.852 45.886 113.711 48.31C114.405 50.2685 114.68 51.3432 114.764 52.4248C114.908 54.2622 115.01 54.2895 116.569 52.9055C119.377 50.4118 123.061 50.1349 126.099 52.1895C127.87 53.3876 127.949 53.3188 127.892 50.6369C127.837 48.0914 127.726 47.4475 127.343 47.4475C126.986 47.4475 126.808 47.1706 126.805 46.6062C126.804 46.3469 126.716 46.0487 126.611 45.9438C126.507 45.8389 126.375 45.3438 126.319 44.8437C126.246 44.1906 126.092 43.8286 125.772 43.5587C125.427 43.2684 125.3 42.9333 125.212 42.0795C125.149 41.4726 125.024 40.8972 124.933 40.8005C124.843 40.7039 124.769 40.4751 124.769 40.2921C124.769 40.1091 124.665 39.9588 124.538 39.9579C124.279 39.956 123.845 39.1314 123.845 38.6415C123.845 38.4654 123.712 38.1894 123.55 38.0276C123.291 37.7688 123.168 37.4577 123.119 36.9437C123.112 36.8614 123.033 36.8392 122.944 36.8938C122.856 36.9488 122.737 36.6502 122.681 36.2309C122.625 35.8117 122.505 35.4183 122.416 35.3564C122.153 35.1756 121.449 33.6258 121.553 33.4575C121.605 33.3725 121.56 33.3031 121.453 33.3031C121.345 33.3031 121.27 33.2407 121.286 33.1645C121.344 32.8913 120.997 32.2797 120.576 31.9104C120.34 31.7038 120.147 31.352 120.147 31.1283C120.147 30.8565 120.005 30.686 119.717 30.6134C119.368 30.526 119.255 30.3254 119.116 29.5475C118.991 28.844 118.855 28.5726 118.606 28.5259C118.419 28.4908 118.107 28.3036 117.912 28.1095C117.521 27.7175 117.249 27.6787 116.787 27.9486ZM10.0907 28.0697C10.0255 28.1344 9.97235 28.3817 9.97235 28.6193C9.97235 28.8795 9.86236 29.0506 9.69506 29.0506C9.54256 29.0506 9.41778 29.1754 9.41778 29.3279C9.41778 29.4805 9.33598 29.6053 9.23662 29.6053C9.13679 29.6053 8.99907 29.8341 8.93021 30.1137C8.86182 30.3934 8.60856 30.8071 8.36779 31.0336C8.12701 31.2596 7.93198 31.4884 7.93429 31.542C7.93707 31.5952 7.93291 31.6599 7.92505 31.6853C7.91766 31.7107 7.87376 31.9395 7.82754 32.1938C7.78133 32.448 7.66209 32.6837 7.56273 32.7179C7.46337 32.7521 7.42547 32.8501 7.47816 32.9356C7.53131 33.0216 7.40699 33.1446 7.20226 33.2098C6.9185 33.2999 6.82931 33.4903 6.827 34.009C6.82376 34.7975 6.70915 35.0143 6.13656 35.3157C5.90779 35.4363 5.72063 35.6614 5.72063 35.8167C5.72063 35.9716 5.6513 36.0557 5.56673 36.003C5.4817 35.9508 5.40313 36.0081 5.39158 36.1311C5.37956 36.2536 5.33612 36.6636 5.29407 37.0421C5.25063 37.4364 5.29176 37.6846 5.38973 37.6241C5.48401 37.5658 5.5159 37.4008 5.4609 37.2575C5.38557 37.0611 5.47061 37.0241 5.80427 37.1078C6.09034 37.1794 6.66248 37.0329 7.4167 36.6941C8.97736 35.9933 11.6522 35.9332 12.8376 36.5725C14.1834 37.2982 16.4299 39.9976 16.4535 40.917C16.4613 41.2203 16.6425 40.9938 17.0718 40.1442C18.2031 37.9047 18.8335 36.8877 19.4061 36.3774C20.3581 35.5292 20.1058 35.2468 18.3801 35.2302C14.792 35.195 11.557 32.7914 10.9835 29.7333C10.9128 29.3556 10.7811 29.0011 10.691 28.9452C10.6009 28.8893 10.5269 28.6873 10.5269 28.4959C10.5269 28.1192 10.2811 27.8788 10.0907 28.0697ZM3.63081 40.514C3.51528 40.819 3.37016 41.0686 3.30731 41.0686C3.24446 41.0686 3.17468 41.5864 3.15157 42.2187C3.12892 42.8515 3.01154 43.4912 2.89046 43.641C2.71808 43.8541 2.72039 43.8827 2.90155 43.7741C3.02864 43.6978 3.13262 43.684 3.13262 43.7431C3.13262 43.8028 2.92836 43.9289 2.67926 44.0237C2.26749 44.1799 2.22035 44.3126 2.1709 45.452C2.1404 46.1426 2.03272 46.7093 1.93105 46.7107C1.60801 46.7158 1.27388 47.0042 1.38433 47.1831C1.44302 47.2774 1.40651 47.355 1.30346 47.355C1.20086 47.355 1.13339 47.5838 1.15418 47.8635C1.18376 48.2642 1.10335 48.3844 0.775689 48.4311C0.205403 48.512 0.284893 48.9932 0.914333 49.2705C1.07701 49.3422 1.02432 49.3625 0.787705 49.3191C0.321864 49.2335 0.1749 49.5021 0.1749 50.4363C0.1749 50.8731 0.25023 51.058 0.405972 51.0048C0.533062 50.9614 0.958237 51.0926 1.3506 51.296C2.05675 51.6621 2.07385 51.6626 3.01431 51.3131C5.75852 50.2944 9.31842 51.1278 11.002 53.1829C12.0899 54.5109 12.7355 54.2691 12.7429 52.532C12.748 51.248 13.5604 47.9046 14.1395 46.7851L14.4588 46.1675L14.018 46.4893C10.4756 49.0759 4.83978 46.0612 4.73256 41.5216C4.69559 39.9565 4.06015 39.3755 3.63081 40.514ZM48.9814 45.8717C48.6099 46.2434 47.9892 47.5376 48.12 47.6684C48.1593 47.7077 48.3178 47.4248 48.4722 47.0393C49.0032 45.7127 48.9981 45.7141 53.1675 45.7506C55.2176 45.7686 56.9326 45.825 56.9779 45.8759C57.0232 45.9267 57.1484 46.2179 57.2561 46.523C57.4012 46.9353 57.4553 46.9815 57.4659 46.7028C57.5098 45.5796 57.2432 45.5061 53.1259 45.5061C49.6081 45.5061 49.3216 45.5315 48.9814 45.8717ZM61.5476 45.8112C60.835 46.3122 60.6594 46.6071 60.2383 48.0021C60.0239 48.714 59.6482 49.6986 59.4037 50.1899C58.161 52.6892 58.5252 52.9 64.1028 52.9097C69.9517 52.9203 70.558 53.0419 71.5784 54.4083C72.4533 55.5809 71.9796 57.5672 70.4633 59.0842C69.3292 60.2185 68.8102 60.2976 62.519 60.2976C56.9742 60.2976 56.3374 60.3586 55.9584 60.9262C55.6659 61.3649 55.8401 61.3672 56.2768 60.9304L56.7367 60.4704L62.6295 60.4931C68.3568 60.5148 68.5454 60.5037 69.3329 60.1081C71.5955 58.9719 72.8114 56.3538 71.9038 54.5742C71.0691 52.9374 70.2068 52.7271 64.3029 52.7216C58.832 52.716 58.4674 52.5505 59.4943 50.537C59.6865 50.1599 60.0618 49.1369 60.328 48.2638C60.6413 47.2358 60.9792 46.5193 61.2869 46.2299L61.762 45.7839L68.1059 45.813C74.3397 45.8417 74.477 45.8505 75.9937 46.3136C79.0725 47.2547 81.0815 49.2446 81.5104 51.7777C81.643 52.5612 81.655 52.576 81.6735 51.9774C81.7423 49.7434 79.3087 47.1909 76.088 46.1186C74.0856 45.452 62.409 45.2052 61.5476 45.8112ZM56.2796 49.5442C54.9468 52.9208 55.2966 52.7169 50.8383 52.7169H47.137L46.8255 52.2408C46.5293 51.7888 46.5335 51.7245 46.911 50.9466C47.4046 49.9315 47.2752 49.8562 46.7627 50.8606C46.295 51.7777 46.2945 52.0675 46.759 52.532C47.3621 53.1353 54.2813 53.0964 54.9759 52.4858C55.4251 52.0911 57.3828 47.6864 57.258 47.3509C57.2279 47.27 56.7875 48.2568 56.2796 49.5442ZM47.6306 48.8739C47.4619 49.4004 47.3552 49.8617 47.3926 49.8992C47.43 49.9366 47.6024 49.5409 47.7757 49.0191C47.949 48.4972 48.0558 48.0359 48.0137 47.9934C47.9712 47.9513 47.7988 48.3474 47.6306 48.8739ZM81.6319 54.0112C81.246 57.5995 78.9136 61.3889 76.5548 62.2602C74.7769 62.917 74.6424 63.8452 76.1976 64.7281C80.6087 67.2311 80.3592 74.6707 75.722 78.9099C72.4976 81.8571 70.2234 82.3054 58.3805 82.3272C48.1671 82.3466 48.5285 82.4215 49.5111 80.4898C49.7033 80.1126 49.9464 79.5126 50.0522 79.1567C50.4645 77.7672 51.3781 75.5744 51.6046 75.4306C51.7354 75.3474 55.1007 75.2781 59.083 75.2767C65.9777 75.2739 66.3659 75.2559 67.2167 74.8931C69.7146 73.8281 71.1985 70.7519 70.0838 68.9483C68.886 67.0092 68.5172 66.9297 60.9251 66.9671C53.4342 67.0037 53.7004 67.1169 54.9852 64.4452C55.341 63.7052 55.6257 62.9475 55.6178 62.7617C55.61 62.5759 55.4639 62.7982 55.2934 63.2559C55.1229 63.7135 54.7966 64.4383 54.5683 64.8663C54.34 65.2943 54.1547 65.8767 54.1561 66.1605C54.1621 67.2676 53.9231 67.2292 60.9445 67.2491C67.9663 67.269 68.318 67.3133 69.2672 68.2979C71.046 70.1422 70.1888 73.1615 67.5143 74.4701L66.4639 74.9841L59.1671 74.9448C50.8753 74.9 51.5006 74.7807 50.8203 76.5368C50.5971 77.1132 50.2986 77.8472 50.1576 78.1675C50.0171 78.4883 49.9016 78.8447 49.9016 78.9598C49.9016 79.0749 49.7056 79.5616 49.4658 80.041C48.0812 82.8125 47.6851 82.6928 58.1934 82.6752C68.5232 82.6577 69.881 82.4954 73.1761 80.8859C79.8152 77.6424 81.8722 68.2138 76.6796 64.8275C75.0371 63.7565 75.0593 63.2193 76.7808 62.354C79.5874 60.9433 82.217 56.1486 81.8431 53.1237C81.8089 52.8491 81.7142 53.2485 81.6319 54.0112ZM10.8772 75.0502C9.16914 76.9472 6.04459 77.7677 3.6872 76.938C2.58129 76.5488 1.37324 76.4596 1.19162 76.7531C1.12877 76.8548 0.823751 76.938 0.514114 76.938C0.0760021 76.938 -0.0242819 77.0032 0.0626012 77.2306C0.124528 77.3914 0.1749 77.7173 0.1749 77.9544C0.1749 78.2572 0.326948 78.4416 0.683261 78.572C0.96332 78.6746 1.05528 78.7643 0.887988 78.7721C0.248381 78.8031 0.306613 79.5265 0.948531 79.5265C1.21057 79.5265 1.27203 79.6323 1.2101 79.9744C1.15973 80.2517 1.22905 80.4611 1.39126 80.5235C1.53545 80.579 1.65376 80.7426 1.65376 80.8878C1.65376 81.0324 1.76329 81.1928 1.89731 81.2446C2.04843 81.3024 2.15611 81.7115 2.18153 82.3272C2.23468 83.6205 2.33727 83.9214 2.77215 84.0591C3.0804 84.1571 3.13586 84.3587 3.15573 85.4556C3.18577 87.1242 3.17976 87.0919 3.50234 87.2957C3.90394 87.5499 4.24177 87.5162 4.24177 87.2222C4.24177 87.0822 4.36655 86.864 4.51905 86.7373C4.67156 86.6107 4.79634 86.2941 4.79634 86.0334C4.79634 82.8222 10.9128 79.6319 13.4611 81.5141C14.1936 82.0554 14.2874 82.0387 13.9819 81.4216C13.5835 80.6174 13.1671 79.0324 12.8289 77.0304C12.2789 73.7768 12.1454 73.6418 10.8772 75.0502ZM114.873 74.5529C114.805 74.7659 114.802 75.286 114.865 75.7084C114.975 76.4503 114.142 79.4544 113.23 81.6005C112.84 82.5199 112.861 82.6198 113.354 82.1691C116.712 79.0971 123.105 82.5444 123.105 87.427C123.105 91.4933 117.216 93.9015 113.87 91.2039C112.819 90.3562 111.274 88.2294 111.274 87.6299C111.274 86.9125 110.978 86.9731 110.724 87.7418C110.609 88.0908 110.27 88.6843 109.971 89.061C109.672 89.4372 109.343 90.0548 109.241 90.4334C109.13 90.848 108.616 91.6019 107.947 92.3317C106.516 93.8941 106.638 94.4039 108.362 94.0591C111.519 93.4277 116.081 97.9493 116.081 101.71C116.081 102.42 116.15 102.802 116.265 102.731C116.367 102.668 116.45 102.455 116.45 102.257C116.45 102.06 116.575 101.899 116.728 101.899C116.88 101.899 117.005 101.818 117.005 101.72C117.005 101.622 117.254 101.286 117.559 100.974C117.87 100.657 118.114 100.208 118.114 99.9544C118.114 99.6295 118.241 99.47 118.563 99.3896C118.91 99.3022 119.039 99.1141 119.133 98.5548C119.2 98.1577 119.333 97.7852 119.427 97.7265C119.522 97.6682 119.558 97.5541 119.508 97.4732C119.458 97.3918 119.581 97.1769 119.782 96.9948C119.983 96.8131 120.149 96.5732 120.152 96.4618C120.153 96.3504 120.469 96.0379 120.852 95.7666C121.418 95.3668 121.557 95.1458 121.595 94.5893C121.662 93.5881 121.679 93.5451 122.153 93.1217C122.45 92.8564 122.618 92.4593 122.685 91.8621C122.739 91.3823 122.849 90.9899 122.929 90.9899C123.206 90.9899 123.845 89.7423 123.845 89.2001C123.845 88.8909 124.024 88.4638 124.261 88.2109C124.784 87.6502 125.139 86.9782 125.139 86.5469C125.139 86.3634 125.035 86.1711 124.908 86.1198C124.726 86.0458 124.729 85.989 124.92 85.8545C125.054 85.7606 125.181 85.5642 125.202 85.4186C125.223 85.273 125.447 84.8653 125.698 84.5126C125.95 84.1599 126.176 83.7467 126.2 83.5941C126.401 82.354 126.519 81.9749 126.804 81.6528C128.315 79.948 128.436 73.6667 126.928 75.1741C124.366 77.7372 119.138 77.611 116.551 74.9236C115.738 74.0786 115.07 73.9312 114.873 74.5529ZM16.4461 87.6618C16.4377 88.149 15.0897 89.9683 14.0392 90.9104C12.2096 92.5508 9.95664 92.83 7.47677 91.723C6.03535 91.0796 5.35507 91.5418 6.24747 92.5582C6.55341 92.9063 6.82608 93.4795 6.89678 93.9232C6.96379 94.3438 7.10105 94.6878 7.2018 94.6878C7.30208 94.6878 7.38435 94.8186 7.38435 94.9785C7.38435 95.138 7.51005 95.3945 7.66348 95.548C7.81691 95.7014 7.89501 95.9034 7.83724 95.9968C7.77948 96.0906 7.81783 96.1669 7.92228 96.1669C8.02672 96.1669 8.06416 96.2917 8.00593 96.4442C7.90425 96.7091 8.1076 96.8034 8.63213 96.7355C8.85304 96.7068 8.93484 97.0803 8.89925 97.9599C8.88678 98.2682 8.95841 98.338 9.19641 98.2488C9.48017 98.1429 9.4834 98.1651 9.23292 98.479C9.07163 98.681 9.05222 98.7683 9.1867 98.6875C9.33367 98.5992 9.41778 98.6579 9.41778 98.8479C9.41778 99.0124 9.50096 99.0956 9.60263 99.0327C9.70431 98.9699 9.78749 99.0008 9.78749 99.1012C9.78749 99.2015 9.93307 99.4293 10.111 99.6073C10.2889 99.7853 10.4345 100.02 10.4345 100.129C10.4345 100.238 10.6633 100.353 10.9429 100.386C11.3149 100.428 11.4512 100.363 11.4512 100.141C11.4512 99.6545 12.9204 97.3169 13.8987 96.2459C15.0014 95.0395 17.0746 94.1331 18.7318 94.1331C20.5596 94.1331 20.7897 93.7087 19.5974 92.5365C19.1977 92.1436 18.6269 91.3643 18.3284 90.805C17.0381 88.3838 16.4502 87.403 16.4461 87.6618ZM34.3061 108.464C34.2474 108.617 34.2797 108.956 34.3786 109.216C35.2049 111.389 32.5435 115.797 30.0409 116.399C28.6018 116.746 28.6027 119.094 30.0419 119.094C30.4444 119.094 30.7281 119.198 30.7938 119.37C30.8525 119.522 30.9745 119.6 31.0655 119.544C31.1566 119.488 31.231 119.571 31.231 119.73C31.231 119.983 31.4593 120.108 31.6737 119.972C31.7139 119.946 31.9011 120.062 32.0896 120.228C32.2782 120.393 32.6197 120.586 32.8485 120.656C33.0772 120.725 33.2644 120.86 33.2644 120.955C33.2644 121.05 33.5417 121.128 33.8804 121.128C34.325 121.128 34.6471 121.284 35.0358 121.688C35.6301 122.305 36.5687 122.876 36.7277 122.717C36.7836 122.661 36.7023 122.566 36.5461 122.507C36.3903 122.447 36.2998 122.256 36.345 122.083C36.3903 121.911 36.1583 121.146 35.8293 120.385C34.3019 116.85 36.0913 112.846 39.8268 111.441C40.1776 111.31 39.1345 110.617 38.5518 110.595C38.4607 110.591 38.0448 110.313 37.6275 109.975C35.5885 108.325 34.5418 107.849 34.3061 108.464ZM90.5702 109.391C89.706 110.051 88.7965 110.645 88.5493 110.711C88.3016 110.777 87.899 110.934 87.6541 111.061L87.2091 111.293L87.612 111.421C92.1004 112.845 93.9097 118.073 91.0985 121.493C90.7726 121.89 90.5711 122.351 90.573 122.695C90.5748 123.072 90.6266 123.173 90.7324 123.007C90.8184 122.871 90.9422 122.768 91.0069 122.778C91.4469 122.845 92.6037 122.517 92.6037 122.327C92.6037 122.199 92.8911 121.958 93.2428 121.791C93.5945 121.624 93.9319 121.406 93.9933 121.307C94.0543 121.208 94.3372 121.128 94.6223 121.128C94.9587 121.128 95.2614 120.966 95.487 120.665C95.7088 120.37 96.0161 120.203 96.3382 120.203C96.6493 120.203 97.0601 119.99 97.41 119.648C97.7298 119.335 98.1757 119.094 98.4331 119.094C98.715 119.094 98.8888 118.988 98.8888 118.816C98.8888 118.664 99.0136 118.539 99.1661 118.539C100.219 118.539 99.2632 117.096 97.8721 116.587C94.8548 115.483 92.8902 112.725 92.8745 109.572C92.8657 107.849 92.6166 107.83 90.5702 109.391ZM82.15 113.514C81.5251 114.053 77.8432 115.116 75.618 115.4C73.7708 115.636 73.6849 115.875 74.9789 117.176C77.5831 119.794 78.0202 122.377 76.4148 125.657C75.4433 127.642 75.5108 127.969 76.8908 127.969C77.5008 127.969 77.9999 127.906 77.9999 127.83C77.9999 127.754 78.4158 127.72 78.9242 127.755C79.537 127.798 79.8485 127.747 79.8485 127.606C79.8485 127.488 79.9238 127.439 80.0162 127.496C80.1082 127.553 80.1401 127.433 80.087 127.229C80.0089 126.931 80.0809 126.859 80.4608 126.859C80.7196 126.859 81.0561 126.734 81.2086 126.582C81.3611 126.429 81.6416 126.305 81.8316 126.305C82.022 126.305 82.2641 126.218 82.3695 126.113C82.4748 126.007 83.0322 125.887 83.608 125.845C84.4348 125.785 84.7472 125.669 85.092 125.297C85.4492 124.911 85.6992 124.825 86.4631 124.825C88.5909 124.825 88.6602 123.33 86.5431 123.099C85.0818 122.939 82.8048 121.571 82.2114 120.496C82.0811 120.26 81.7692 119.702 81.5182 119.256C80.6859 117.778 80.8768 115.182 81.9036 114.012C82.436 113.406 82.5557 113.164 82.15 113.514ZM45.9271 114.203C46.4577 114.902 46.4817 115.014 46.4817 116.783V118.631L45.6531 119.982C44.635 121.641 42.9639 122.9 41.5206 123.095C41.0284 123.162 40.5829 123.329 40.5302 123.466C40.4775 123.604 40.3186 123.716 40.1767 123.716C40.0353 123.716 39.9193 123.841 39.9193 123.993C39.9193 124.146 40.0468 124.271 40.2026 124.271C40.3578 124.271 40.5256 124.375 40.5741 124.502C40.6291 124.645 41.1 124.75 41.8159 124.778C42.4495 124.802 42.9962 124.906 43.0304 125.009C43.0646 125.112 43.2107 125.195 43.3544 125.195C43.4986 125.195 43.6164 125.311 43.6164 125.452C43.6164 125.715 44.7482 125.952 45.6499 125.878C45.9396 125.854 46.2737 126.013 46.5459 126.303C47.0095 126.799 47.0146 126.801 47.8899 126.836C48.3668 126.855 48.4495 126.922 48.371 127.223C48.3187 127.423 48.3298 127.579 48.3954 127.571C48.4611 127.562 48.5567 127.575 48.6076 127.6C48.7545 127.671 49.89 127.803 51.2418 127.905L52.4896 128V127.469C52.4896 127.177 52.143 126.275 51.7196 125.466C50.2602 122.676 50.7316 119.868 53.0885 117.311C53.5003 116.863 53.7868 116.382 53.7512 116.197C53.6824 115.839 53.6551 115.83 50.1789 115.106C48.1764 114.688 46.5385 114.148 45.5574 113.58C45.4557 113.521 45.6221 113.802 45.9271 114.203Z" fill="#F5CA09"/>
<path fill-rule="evenodd" clip-rule="evenodd" d="M38.4976 4.36728C38.4389 4.51982 38.2503 4.64462 38.0779 4.64462C37.906 4.64462 37.6722 4.73753 37.5589 4.85078C37.4452 4.96449 37.1583 5.15354 36.9212 5.27141C36.6425 5.40915 36.4687 5.68048 36.4304 6.03548C36.3976 6.33824 36.1628 7.03113 35.9082 7.57472C34.3748 10.8487 35.507 14.0982 38.8779 16.0969C41.0735 17.3986 44.9763 16.0609 46.1266 13.612C47.4909 10.7073 45.9126 7.08706 42.5219 5.34259C41.7926 4.96726 41.0125 4.53183 40.7889 4.37514C40.2468 3.99564 38.6422 3.9901 38.4976 4.36728ZM87.8323 4.37283C87.7445 4.52999 87.2556 4.72181 86.7306 4.80502C81.3124 5.66153 78.9943 12.7466 83.2451 15.4586C86.1492 17.3117 88.7321 17.026 90.6496 14.64C90.851 14.389 91.2323 13.9628 91.4966 13.6924C92.6358 12.5266 92.7652 9.09778 91.7277 7.56547C91.4042 7.08753 90.9938 6.2347 90.8159 5.67032C90.6385 5.10639 90.3921 4.64462 90.2692 4.64462C90.1458 4.64462 89.9975 4.51982 89.9388 4.36728C89.789 3.97623 88.0518 3.98085 87.8323 4.37283ZM8.29878 36.327C7.94292 36.468 7.32781 36.7246 6.93222 36.8979C6.53662 37.0712 6.02179 37.1646 5.78841 37.1064C5.55318 37.0472 5.30455 37.0953 5.23153 37.2136C5.14927 37.3467 5.18023 37.3777 5.3124 37.2959C5.42978 37.2233 5.52591 37.2501 5.52591 37.3555C5.52591 37.4609 5.29715 37.6929 5.01755 37.8709C4.21712 38.3803 3.83447 39.981 4.46252 40.1904C4.61225 40.2403 4.70376 40.7002 4.72224 41.4976C4.84702 46.8221 12.9544 49.828 14.9439 45.287C15.1524 44.8104 15.3266 44.3112 15.3308 44.1776C15.3349 44.044 15.5845 43.4769 15.8853 42.9176C16.8424 41.1389 16.536 40.0827 14.4194 37.8644C12.8851 36.2559 10.1899 35.5791 8.29878 36.327ZM115.762 36.2452C114.624 36.5332 113.521 37.3648 112.373 38.8L111.224 40.2366L111.31 41.5309C111.399 42.8774 111.595 43.439 112.565 45.127C115.196 49.7078 122.732 47.0495 123.058 41.4264C123.26 37.9268 119.546 35.2889 115.762 36.2452ZM49.0224 46.119C48.6633 46.5262 48.1656 47.6097 47.9452 48.4644C47.8795 48.7186 47.5306 49.5682 47.1692 50.3526C46.537 51.7254 46.5241 51.7957 46.8198 52.2478L47.1272 52.7169H50.7998C54.0256 52.7169 54.5196 52.6776 54.8625 52.3934C55.791 51.6233 57.5776 46.2563 57.0401 45.8523C56.6201 45.5361 49.3223 45.7793 49.0224 46.119ZM61.8806 45.8467C61.2457 46.04 60.7733 46.7707 60.3181 48.2638C60.0519 49.1369 59.6767 50.1598 59.4844 50.537C58.4608 52.545 58.8397 52.716 64.3249 52.7215C70.1946 52.7271 71.0602 52.9393 71.8939 54.5742C72.8016 56.3538 71.5857 58.9719 69.323 60.108C68.5355 60.5037 68.347 60.5148 62.6196 60.4931L56.7268 60.4704L56.2818 60.9156C55.9952 61.2021 55.7905 61.6815 55.7073 62.262C55.6362 62.7576 55.2969 63.7546 54.9531 64.4771C53.6988 67.1136 53.4359 67.0036 60.9152 66.9671C68.5073 66.9297 68.8761 67.0092 70.074 68.9483C71.1887 70.7519 69.7047 73.8281 67.2068 74.893C66.356 75.2559 65.9678 75.2739 59.0731 75.2767C55.0908 75.2781 51.7255 75.3474 51.5947 75.4306C51.3683 75.5744 50.4546 77.7672 50.0424 79.1567C49.9365 79.5126 49.6934 80.1126 49.5012 80.4898C48.5187 82.4214 48.1573 82.3466 58.3707 82.3271C70.2135 82.3054 72.4878 81.857 75.7121 78.9098C80.3493 74.6707 80.5988 67.2311 76.1877 64.7281C74.6326 63.8452 74.7671 62.917 76.5449 62.2602C77.7701 61.8077 79.7 59.7262 80.4944 58.0007C83.0343 52.4844 81.2819 47.9328 75.9968 46.3178C74.5619 45.8791 63.0374 45.4945 61.8806 45.8467ZM9.19441 81.2543C6.90218 82.1039 4.78648 84.398 4.78648 86.0333C4.78648 86.294 4.6617 86.6107 4.50919 86.7373C4.35669 86.864 4.23191 87.0918 4.23191 87.2439C4.23191 87.4316 4.1099 87.488 3.85157 87.4205C3.60986 87.3572 3.49756 87.3997 3.54332 87.5374C3.58306 87.6567 3.73372 87.7542 3.87745 87.7542C4.05861 87.7542 4.15658 88.0237 4.1954 88.6269C4.23838 89.2916 4.35946 89.5842 4.70376 89.8551C5.00693 90.0936 5.1562 90.3968 5.1562 90.7745C5.1562 91.0842 5.24077 91.3902 5.34429 91.4539C5.44735 91.5177 5.48755 91.6416 5.43348 91.7294C5.37941 91.8173 5.41962 91.9411 5.52268 92.0049C5.6262 92.0687 5.71077 92.0012 5.71077 91.8542C5.71077 91.4299 6.65262 91.3592 7.46692 91.723C10.695 93.1642 13.5261 92.2226 15.7499 88.969C16.5915 87.7376 16.6183 86.7318 15.84 85.5937C15.584 85.2189 15.3187 84.5949 15.2503 84.207C14.8016 81.6569 11.9109 80.2476 9.19441 81.2543ZM114.88 81.2705C113.895 81.6361 113.261 82.1251 112.928 82.775C112.775 83.0732 112.48 83.608 112.273 83.9639C110.9 86.3213 110.89 87.6659 112.235 89.4141C114.61 92.5014 117.442 93.2053 120.623 91.4988C126.2 88.5067 120.883 79.0388 114.88 81.2705ZM39.7245 111.465C36.0621 112.889 34.3096 116.892 35.8194 120.385C36.1485 121.146 36.38 121.913 36.3343 122.088C36.277 122.306 36.4207 122.483 36.7858 122.645C37.0806 122.775 37.3214 122.945 37.3214 123.022C37.3214 123.098 37.4374 123.161 37.5788 123.161C37.7207 123.161 37.8843 123.286 37.943 123.439C38.0867 123.814 40.3776 123.839 40.5204 123.466C40.573 123.329 41.0185 123.162 41.5107 123.095C42.954 122.9 44.6251 121.641 45.6432 119.982L46.4718 118.631V116.783C46.4718 114.225 45.7643 113.307 43.2137 112.554C42.667 112.392 41.8107 112.05 41.3106 111.794C40.3766 111.316 40.2024 111.28 39.7245 111.465ZM85.6616 111.965C84.9499 112.326 84.3006 112.621 84.2188 112.622C81.7861 112.631 80.1007 116.756 81.5083 119.256C81.7593 119.702 82.0712 120.26 82.2016 120.496C82.8111 121.601 85.0964 122.954 86.6169 123.111C87.5467 123.207 87.6775 123.274 87.855 123.745C88.0634 124.297 88.5269 124.469 88.5269 123.993C88.5269 123.799 88.7233 123.716 89.1859 123.716C90.1685 123.716 90.5604 123.436 90.5604 122.735C90.5604 122.35 90.7489 121.907 91.0886 121.493C93.5846 118.456 92.6867 114.338 89.057 112.175C87.4413 111.213 87.1765 111.196 85.6616 111.965Z" fill="#FAF4F2"/>
<path fill-rule="evenodd" clip-rule="evenodd" d="M53.5888 0.323087C53.5888 0.487642 53.0712 1.63167 52.4381 2.86537C50.5299 6.58497 51.0031 8.98119 54.2081 11.8304C55.2285 12.7373 54.612 13.4117 52.6082 13.5813C50.95 13.7214 48.6018 14.3006 47.227 14.9089C46.6895 15.1465 45.884 15.4386 45.4366 15.5578C44.9893 15.6771 44.046 16.0584 43.3403 16.4047C42.6346 16.7509 41.9484 17.0342 41.8153 17.0342C41.6822 17.0342 41.5731 17.1142 41.5731 17.2122C41.5731 17.3097 41.2196 17.484 40.7875 17.5986C40.3553 17.7137 39.6339 18.0493 39.1843 18.3451C38.7351 18.6409 38.2702 18.8832 38.1518 18.8832C37.9125 18.8832 36.0916 20.1353 35.1313 20.9604C34.6765 21.351 34.3572 21.4772 33.9297 21.4356L33.3469 21.3792V19.883C33.3469 18.9668 33.2582 18.2795 33.1182 18.1103C32.9925 17.9587 32.7674 17.4867 32.6177 17.0624C31.9374 15.134 30.3467 13.696 28.2097 13.077C27.0036 12.7276 26.3348 12.1826 26.4716 11.6603C26.6204 11.0899 25.2714 11.9349 23.9067 13.2666C23.2685 13.8892 22.5323 14.4522 22.2698 14.5178C21.9181 14.6066 21.7933 14.7577 21.7933 15.0965C21.7933 15.4488 21.6968 15.5551 21.3774 15.5555C21.1214 15.556 20.8191 15.7691 20.5918 16.1098C20.3884 16.4144 20.1532 16.6635 20.0686 16.664C19.8403 16.6649 17.7265 18.8212 17.7265 19.0533C17.7265 19.1633 17.6114 19.2529 17.4709 19.2529C17.33 19.2529 17.1719 19.4184 17.1188 19.6204C17.0661 19.8229 16.8068 20.0702 16.5429 20.1705C16.2009 20.3008 16.0628 20.4876 16.0628 20.8199C16.0628 21.1948 15.9717 21.2868 15.6006 21.2868C15.2309 21.2868 15.1385 21.3792 15.1385 21.749C15.1385 22.0032 15.0761 22.2117 14.9998 22.2122C14.8293 22.2131 13.4748 23.4436 13.4748 23.5975C13.4748 23.658 13.2668 23.9007 13.0126 24.1364C12.7584 24.3722 12.5468 24.7216 12.5426 24.9135C12.5385 25.1053 12.2889 25.4663 11.988 25.7154C11.6724 25.9771 11.4413 26.3487 11.4413 26.5937C11.4413 26.8927 11.3336 27.0185 11.0781 27.0185C10.7324 27.0185 10.3322 27.508 10.3322 27.9309C10.3322 28.0391 10.487 28.1278 10.6765 28.1278C11.0074 28.1278 11.3401 28.8988 11.732 30.5763C12.2418 32.758 15.8543 34.9412 18.6258 34.7429C20.7101 34.5936 21.1463 35.335 19.7544 36.6597C19.3444 37.0494 18.8449 37.7229 18.6443 38.1565C18.4442 38.5896 18.1299 39.1937 17.9469 39.4988C17.7635 39.8039 17.3309 40.7191 16.9852 41.5326C16.64 42.3461 16.2578 43.1366 16.1367 43.2891C15.8973 43.5905 15.3233 45.1954 15.3233 45.5638C15.3233 45.689 15.1149 46.0981 14.8607 46.473C14.3399 47.2389 13.4031 50.8073 13.1928 52.8241C12.9701 54.96 12.4044 55.3257 11.2361 54.0892C10.8914 53.7245 10.407 53.2137 10.1593 52.9539C8.80017 51.5293 4.62286 50.9414 2.86486 51.9269C2.13468 52.3369 1.08931 52.1469 1.08931 51.6047C1.08931 51.5053 0.927095 51.4244 0.728835 51.4244C0.530575 51.4244 0.28333 51.2788 0.17981 51.1008C0.0504099 50.879 -0.00597187 54.9032 0.000498143 63.9047C0.00511958 71.1248 0.0513342 76.9282 0.102632 76.801C0.15393 76.6739 0.308746 76.5699 0.446927 76.5699C0.58557 76.5699 0.991795 76.3966 1.35042 76.1853L2.0025 75.8003L3.19483 76.2778C5.53004 77.212 8.83946 76.648 10.2804 75.0709C10.5628 74.7612 10.9778 74.3064 11.2019 74.0595C12.0158 73.1651 12.9202 73.5196 12.9202 74.7335C12.9202 75.0288 13.0048 75.6251 13.1087 76.0587C13.2123 76.4923 13.5381 77.8651 13.8325 79.1094C14.1412 80.4134 14.5271 81.5741 14.7438 81.8496C14.9508 82.1126 15.2531 82.8004 15.4162 83.3777C15.5794 83.9555 15.9486 84.9271 16.2365 85.5373C16.5244 86.1474 16.9394 87.0626 17.158 87.5711C17.3771 88.0795 17.6918 88.7452 17.8568 89.0502C18.0223 89.3553 18.404 90.0625 18.7048 90.6218C19.0062 91.1811 19.6116 91.9789 20.0497 92.3945C21.6436 93.9051 21.3631 94.689 19.2289 94.6904C15.9856 94.6923 13.9156 96.0628 12.3818 99.2245C12.1364 99.7301 11.8244 100.365 11.6886 100.635C11.3212 101.364 11.3914 101.749 12.001 102.347C12.3032 102.644 12.5505 103.02 12.5505 103.184C12.5505 103.488 14.0769 105.044 14.3755 105.044C14.4665 105.044 14.5936 105.189 14.6578 105.367C14.8603 105.927 15.2494 106.507 15.663 106.867C15.883 107.057 16.0628 107.308 16.0628 107.423C16.0628 107.538 16.1875 107.632 16.34 107.632C16.4926 107.632 16.6173 107.757 16.6173 107.909C16.6173 108.062 16.7421 108.187 16.8946 108.187C17.0471 108.187 17.1719 108.314 17.1719 108.47C17.1719 108.625 17.2967 108.801 17.4492 108.859C17.6017 108.918 17.7265 109.046 17.7265 109.145C17.7265 109.404 19.2363 110.775 19.5205 110.775C19.6522 110.775 19.7599 110.9 19.7599 111.053C19.7599 111.205 19.8847 111.33 20.0372 111.33C20.1897 111.33 20.3145 111.407 20.3145 111.5C20.3145 111.711 21.3954 112.809 21.6029 112.809C21.6861 112.809 21.8017 112.934 21.8604 113.086C21.9186 113.239 22.1774 113.364 22.4343 113.364C22.7999 113.364 22.9025 113.457 22.9025 113.79C22.9025 114.111 23.0873 114.298 23.6419 114.543C24.0486 114.723 24.3813 114.982 24.3813 115.119C24.3813 115.256 24.6133 115.419 24.8966 115.481C25.1799 115.544 25.5658 115.8 25.7544 116.051C25.9429 116.302 26.2101 116.507 26.3482 116.507C26.4864 116.507 26.5996 116.589 26.5996 116.688C26.5996 116.788 26.8076 116.922 27.0618 116.986C27.316 117.05 27.5239 117.204 27.5239 117.328C27.5239 117.452 27.7527 117.668 28.0323 117.808C28.3119 117.947 28.6238 118.103 28.7255 118.155C28.8272 118.207 28.7648 118.026 28.5869 117.754C27.9357 116.758 28.2236 116.37 29.9271 115.945C30.5671 115.786 31.0043 115.482 31.8246 114.627C33.9265 112.437 33.9015 112.493 33.9015 109.977C33.9015 106.883 34.2038 106.831 37.5386 109.355C38.0516 109.743 39.2319 110.394 40.1608 110.801C41.0902 111.208 42.0167 111.647 42.2201 111.775C42.4234 111.904 42.8703 112.065 43.2132 112.132C43.5566 112.199 44.4929 112.583 45.2947 112.984C46.7972 113.736 50.993 114.887 53.0809 115.121C54.7262 115.304 55.0025 116.343 53.6757 117.356C51.3243 119.15 50.7 122.528 52.1899 125.397C52.7634 126.5 53.0398 127.242 52.9848 127.53L52.9007 127.97H64.0587H75.2172L75.2213 127.462C75.225 126.978 75.4676 126.403 76.3716 124.735C77.6342 122.405 76.6105 119.08 73.9379 116.83C73.0862 116.114 73.5511 115.028 74.7102 115.028C76.8263 115.028 81.5633 113.459 86.231 111.213C87.1543 110.769 87.9954 110.405 88.1003 110.405C88.2981 110.405 90.4901 108.957 91.743 107.999C93.0952 106.964 93.9085 107.444 93.4399 109.002C93.1705 109.897 93.2186 110.147 94.1955 112.941C94.6064 114.117 96.1629 115.45 97.7212 115.96C99.1419 116.425 99.8032 116.931 99.8032 117.556C99.8032 118.114 100.116 118.102 100.651 117.524C100.887 117.27 101.198 117.062 101.343 117.062C101.488 117.062 101.71 116.937 101.837 116.784C101.963 116.632 102.181 116.507 102.321 116.507C102.461 116.507 102.576 116.389 102.576 116.245C102.576 116.101 102.906 115.83 103.311 115.644C103.715 115.458 104.048 115.201 104.05 115.074C104.053 114.947 104.18 114.843 104.332 114.843C104.485 114.843 104.609 114.76 104.609 114.658C104.609 114.556 104.738 114.473 104.896 114.473C105.053 114.473 105.323 114.224 105.496 113.92C105.699 113.563 105.959 113.366 106.227 113.365C106.473 113.364 106.643 113.25 106.643 113.086C106.643 112.934 106.724 112.809 106.823 112.809C107.05 112.809 108.676 111.194 108.676 110.968C108.676 110.876 108.864 110.774 109.092 110.742C109.321 110.71 109.591 110.492 109.693 110.259C109.795 110.026 110.058 109.79 110.278 109.735C110.499 109.679 110.728 109.434 110.79 109.187C110.851 108.942 110.983 108.741 111.083 108.741C111.183 108.741 111.264 108.617 111.264 108.464C111.264 108.312 111.389 108.187 111.542 108.187C111.694 108.187 111.819 108.062 111.819 107.909C111.819 107.757 111.913 107.632 112.028 107.632C112.299 107.632 113.483 106.378 113.483 106.091C113.483 105.971 113.691 105.648 113.945 105.373C114.199 105.099 114.407 104.806 114.407 104.722C114.407 104.638 114.656 104.421 114.962 104.241C115.337 104.019 115.516 103.767 115.516 103.461C115.516 103.187 115.623 103.01 115.789 103.01C116.005 103.01 116.024 102.912 115.881 102.535C115.782 102.275 115.701 101.836 115.701 101.561C115.701 100.998 114.773 98.4756 114.279 97.6949C113.113 95.852 110.183 94.432 107.982 94.6433C106.117 94.8226 105.897 93.8177 107.453 92.2239C108 91.6632 108.562 90.9348 108.701 90.6047C108.84 90.2752 109.134 89.6659 109.354 89.2504C109.575 88.8353 109.939 88.1211 110.164 87.6635C110.389 87.2059 110.646 86.685 110.737 86.5056C110.827 86.3268 111.034 85.7859 111.197 85.3038C111.36 84.8222 111.635 84.2199 111.808 83.9657C112.154 83.4591 112.466 82.677 112.641 81.8805C112.702 81.5981 112.959 80.9172 113.21 80.3672C113.462 79.8171 113.668 79.2162 113.669 79.0318C113.671 78.8473 113.792 78.2987 113.94 77.8124C114.087 77.3266 114.264 76.2866 114.332 75.5012C114.547 73.0274 114.927 72.8702 116.701 74.5199C119.477 77.1038 123.632 77.3183 126.364 75.0191C126.664 74.7667 127.133 74.5042 127.406 74.4358L127.902 74.311V63.8848C127.902 53.9588 127.885 53.4582 127.568 53.4582C127.384 53.4582 126.823 53.192 126.32 52.8666C124.673 51.8002 124.311 51.6583 122.688 51.442C120.24 51.1161 118.409 51.7087 116.671 53.3894C114.745 55.2522 114.222 55.1722 114.222 53.0126C114.222 52.2666 114.097 51.3019 113.945 50.8697C113.792 50.4375 113.667 49.9226 113.667 49.7252C113.667 49.5283 113.459 48.9112 113.204 48.3542C112.95 47.7977 112.654 46.95 112.547 46.4711C112.44 45.9922 112.074 45.0178 111.734 44.306C110.865 42.4876 110.401 41.4226 110.242 40.8855C110.167 40.6313 109.878 40.132 109.601 39.7761C109.323 39.4202 109.033 38.921 108.957 38.6668C108.881 38.4125 108.387 37.6221 107.859 36.9103C106.585 35.1935 106.577 35.1787 106.831 34.8723C107.002 34.667 107.35 34.6315 108.372 34.7156C109.947 34.8455 111.785 34.4341 112.685 33.7514C114.496 32.3771 115.886 30.3123 115.886 28.9973C115.886 28.6146 116.011 28.0021 116.163 27.6369C116.316 27.2722 116.443 26.7545 116.446 26.4874C116.452 26.0205 116.463 26.0154 116.724 26.3602C116.965 26.6792 116.995 26.6838 116.995 26.4009C116.995 26.2257 116.87 26.0344 116.718 25.9761C116.565 25.9174 116.439 25.733 116.437 25.5657C116.435 25.3988 116.227 25.066 115.975 24.8266C115.723 24.5871 115.516 24.2751 115.516 24.1332C115.516 23.97 115.313 23.8753 114.962 23.8753C114.468 23.8753 114.407 23.8138 114.407 23.3206C114.407 22.9855 114.311 22.7659 114.164 22.7659C114.03 22.7659 113.743 22.4493 113.525 22.0629C113.308 21.676 112.378 20.5865 111.458 19.6417C110.538 18.6969 109.785 17.8487 109.785 17.7562C109.785 17.6642 109.698 17.5889 109.592 17.5889C109.485 17.5889 109.206 17.3809 108.97 17.1267C108.734 16.8724 108.465 16.6644 108.371 16.6644C108.278 16.6644 108.064 16.4319 107.896 16.1472C107.728 15.8629 107.377 15.5158 107.117 15.3767C106.856 15.2371 106.641 15.0328 106.638 14.9227C106.636 14.8132 106.303 14.5705 105.899 14.3842C105.494 14.198 105.164 13.9275 105.164 13.7833C105.164 13.6155 104.965 13.5212 104.609 13.5212C104.199 13.5212 104.055 13.4348 104.055 13.1889C104.055 13.0063 103.803 12.6527 103.494 12.4031C103.187 12.154 102.818 11.8456 102.676 11.7185C102.534 11.5914 102.358 11.4874 102.286 11.4874C102.214 11.4874 102.048 11.3418 101.918 11.1643C101.603 10.7331 101.326 11.0349 101.614 11.4957C101.892 11.9409 101.575 12.5649 101.005 12.6948C100.801 12.741 100.234 12.8644 99.7431 12.9689C96.4249 13.6766 93.8448 16.7874 94.184 19.6717C94.4003 21.5142 93.4533 22.0929 92.2518 20.8527C91.9218 20.5125 91.2609 20.0411 90.7826 19.8049C90.3043 19.5686 89.8717 19.3186 89.8209 19.2488C89.6587 19.0269 86.4685 17.404 86.1949 17.404C86.0498 17.404 85.602 17.196 85.1995 16.9418C84.7969 16.6875 84.3745 16.4795 84.2613 16.4795C84.1476 16.4795 83.8343 16.3534 83.5644 16.1994C83.2945 16.0455 82.3665 15.678 81.5023 15.3827C80.6381 15.0868 79.3496 14.6246 78.6393 14.3551C77.8065 14.0394 76.7413 13.8138 75.6419 13.7214C72.9457 13.4935 72.527 12.5986 74.5082 11.2988C76.7857 9.80535 77.5547 5.14973 75.891 2.93193C75.2477 2.07449 74.4454 0.410911 74.5743 0.201981C74.6446 0.0887342 70.8476 0.0240223 64.1368 0.0240223C54.5422 0.0240223 53.5888 0.0508315 53.5888 0.323087ZM70.5957 18.8577C72.4826 18.9969 74.0294 19.3759 77.1582 20.4672C77.8699 20.7155 78.6116 20.9184 78.8066 20.9179C79.119 20.917 80.6631 21.5886 84.0903 23.2152C85.8825 24.0657 87.8586 25.2319 89.4382 26.3713C90.284 26.9815 91.6108 27.9346 92.3858 28.4893C93.1613 29.044 94.7127 30.4168 95.8338 31.54C98.1002 33.8101 98.2721 34.0093 99.8166 36.1471C100.413 36.9736 100.989 37.7515 101.095 37.8763C102.264 39.2473 104.9 43.9607 106.112 46.8488C106.747 48.3589 106.797 48.5031 107.452 50.6848C107.712 51.5492 108.188 53.0884 108.512 54.1054C109.464 57.102 109.726 71.227 108.871 73.5192C108.265 75.1453 107.012 79.2236 107.01 79.5791C107.009 79.8056 106.819 80.3233 106.588 80.73C106.357 81.1368 106.011 81.8852 105.818 82.3936C105.497 83.2423 105.207 83.8251 103.529 86.9988C103.211 87.5997 102.839 88.2238 102.704 88.3855C102.568 88.5478 102.017 89.384 101.48 90.2433C99.9395 92.7074 95.4456 97.6658 93.0711 99.5208C92.7749 99.7523 92.2342 100.221 91.8696 100.562C91.5054 100.903 90.9106 101.338 90.5478 101.528C90.1855 101.718 89.7798 102.004 89.6471 102.164C89.5145 102.324 89.3273 102.455 89.2312 102.455C89.1355 102.455 88.7843 102.663 88.4511 102.917C88.1174 103.171 87.7814 103.379 87.7043 103.379C87.6266 103.379 87.2602 103.619 86.89 103.912C86.078 104.554 81.3678 106.855 80.5286 107.02C80.2 107.085 79.4319 107.366 78.8219 107.646C77.2145 108.384 75.6285 108.886 74.4722 109.022C73.9162 109.089 72.4628 109.34 71.2427 109.582C66.3121 110.56 60.7585 110.525 55.8071 109.485C54.8412 109.282 53.7982 109.115 53.489 109.113C52.7995 109.111 50.9297 108.642 50.1412 108.274C49.8205 108.124 49.4827 108.002 49.3898 108.002C49.2974 108.002 48.7978 107.798 48.2797 107.547C47.7617 107.297 47.1013 107.037 46.8124 106.968C45.5771 106.676 39.011 103.247 38.2743 102.51C38.1237 102.359 37.3422 101.775 36.5371 101.211C34.3105 99.6502 30.4992 96.1012 28.6645 93.8797C27.5387 92.517 25.106 89.1246 24.7284 88.3915C24.4964 87.9404 24.0505 87.1551 23.7376 86.6466C23.4247 86.1382 22.975 85.3061 22.7375 84.7977C22.5004 84.2892 22.0184 83.2931 21.6667 82.5845C21.315 81.8759 20.9596 80.9607 20.8769 80.5507C20.7942 80.1407 20.4624 79.0983 20.1389 78.234C18.971 75.1111 18.8356 74.6493 18.8356 73.7822C18.8356 73.2973 18.6517 71.875 18.4266 70.6214C17.879 67.5679 17.8429 61.4137 18.3555 58.4504C18.5403 57.3826 18.7469 55.8434 18.8144 55.0298C18.9304 53.6302 19.1282 52.9678 20.4185 49.6679C20.6569 49.0578 20.9079 48.2258 20.9763 47.819C21.0442 47.4122 21.2915 46.705 21.5248 46.2474C21.7587 45.7898 22.3354 44.631 22.8068 43.6728C23.2782 42.7141 23.8665 41.6884 24.1152 41.3935C24.3633 41.0986 24.5662 40.7829 24.5662 40.6923C24.5662 40.1889 27.9722 35.5106 29.7348 33.5937C33.1394 29.8894 38.559 25.5121 40.9187 24.5594C41.1202 24.478 41.5366 24.2224 41.8448 23.9904C42.1531 23.7588 43.0409 23.3067 43.8182 22.9855C44.5955 22.6642 45.8724 22.1054 46.6562 21.7435C47.44 21.3811 48.343 21.0409 48.6628 20.9868C48.9831 20.9332 49.5358 20.7695 49.8917 20.6235C51.9136 19.7933 55.5335 18.8822 56.8862 18.8633C57.6654 18.8522 58.8018 18.775 59.4118 18.6923C60.6222 18.5272 67.4952 18.6289 70.5957 18.8577ZM57.5633 26.9598C57.0018 27.086 53.1641 28.2462 51.1857 28.8877C50.2198 29.2011 49.0552 29.6532 48.5977 29.8926C48.1402 30.1321 47.4747 30.445 47.1188 30.5878C46.763 30.7311 45.7157 31.308 44.7915 31.8696C43.8672 32.4317 42.9313 32.9485 42.7118 33.0183C42.4923 33.0881 42.3125 33.2193 42.3125 33.3099C42.3125 33.401 41.7002 33.9284 40.9515 34.4822C38.3538 36.4037 33.8456 41.216 32.6103 43.3866C32.3224 43.8923 31.82 44.722 31.4937 45.2305C30.5755 46.6611 28.42 51.417 28.2546 52.3775C28.1732 52.8504 27.8105 54.1816 27.4491 55.3358C26.0793 59.7062 26.0432 68.3999 27.3774 72.6872C27.6783 73.6532 28.0383 74.9429 28.1779 75.553C28.4126 76.5792 30.905 82.2771 31.21 82.4865C31.2844 82.5374 31.7026 83.203 32.1393 83.9657C32.5761 84.7283 33.157 85.602 33.4301 85.907C33.7037 86.2121 34.0753 86.7002 34.256 86.9914C34.4371 87.2831 35.1382 88.1013 35.8143 88.8103C36.4909 89.5189 37.069 90.1665 37.0995 90.2493C37.13 90.332 37.9619 91.0933 38.9481 91.9415C39.9343 92.7897 40.7828 93.5302 40.8337 93.5871C40.8845 93.6439 41.2172 93.8903 41.5731 94.1348C41.9289 94.3793 42.2617 94.6262 42.3125 94.6835C42.881 95.3232 48.7567 98.3915 50.7235 99.0756C55.9897 100.907 56.9902 101.102 61.9998 101.268C68.6196 101.488 71.9198 101.022 76.635 99.1981C77.2626 98.9555 77.8449 98.7562 77.929 98.7553C78.2493 98.7511 82.7644 96.3813 84.0903 95.521C88.1701 92.8738 92.6769 88.4558 94.9045 84.9193C95.0062 84.7575 95.57 83.8737 96.1578 82.9552C96.7452 82.0363 97.3229 80.9519 97.4416 80.5451C97.56 80.1384 97.8506 79.4922 98.0873 79.1094C98.6783 78.1531 99.3692 76.2598 99.8919 74.1663C100.133 73.2002 100.462 71.9522 100.624 71.3929C101.433 68.5913 101.506 59.9988 100.745 57.1561C100.54 56.3934 100.175 55.0206 99.9321 54.1054C99.4048 52.1154 98.6474 49.9892 98.0568 48.841C97.8197 48.3806 97.413 47.5463 97.1523 46.987C95.35 43.1195 90.3912 37.1839 86.6783 34.4503C85.9158 33.8887 85.2503 33.377 85.1995 33.3132C85.01 33.0747 81.286 30.8698 80.6215 30.6026C80.2416 30.4496 79.4735 30.0932 78.9143 29.8104C78.3551 29.5275 77.1905 29.0773 76.3263 28.8101C75.4621 28.5429 74.0479 28.1052 73.1837 27.8375C70.1387 26.8946 69.5887 26.8387 63.5711 26.8581C60.4701 26.8682 57.7666 26.914 57.5633 26.9598ZM69.9487 28.4824C75.4542 29.6181 81.0818 31.7078 83.117 33.3723C83.398 33.6021 84.2521 34.1974 85.0146 34.6957C88.6022 37.0383 94.1382 43.4532 96.1569 47.6068C99.0365 53.534 99.8032 56.968 99.8032 63.9422C99.8032 70.8526 99.3318 73.1152 96.5557 79.5282C93.8646 85.7453 87.0101 92.8503 80.578 96.0901C77.7197 97.5299 73.3556 99.1269 72.2807 99.1269C71.9895 99.1269 71.3874 99.2601 70.9423 99.4223C67.9042 100.532 55.9005 99.7496 52.2722 98.2052C51.5517 97.8988 50.8844 97.6478 50.7887 97.6478C50.6283 97.6478 49.9642 97.3515 47.3037 96.0938C41.7237 93.4562 34.7662 86.4982 32.0335 80.8225C31.5686 79.8564 31.0279 78.7618 30.8329 78.3902C30.3532 77.4768 29.6059 75.1902 29.0906 73.0569C28.8572 72.0909 28.5291 70.9311 28.3613 70.4795C27.9209 69.2953 28.0087 57.9243 28.4649 57.0637C28.6261 56.7586 28.9039 55.8434 29.0814 55.0298C29.2588 54.2163 29.5527 53.1763 29.7344 52.7187C29.916 52.2611 30.123 51.6403 30.1937 51.3398C31.2747 46.766 38.3016 37.5911 42.9799 34.6453C43.4235 34.3657 44.3395 33.7417 45.0147 33.2586C45.6899 32.7756 46.3115 32.3804 46.3956 32.3804C46.4801 32.3804 47.4049 31.9713 48.4512 31.4712C51.0493 30.2296 55.2784 28.8974 58.4875 28.3095C60.173 28.0007 68.2018 28.1218 69.9487 28.4824Z" fill="#050504"/>
<path fill-rule="evenodd" clip-rule="evenodd" d="M53.0408 0.474273C53.0408 0.722492 52.9668 0.971637 52.8762 1.02757C52.7861 1.0835 52.6544 1.3576 52.5846 1.63725C52.5144 1.9169 52.4011 2.18823 52.3327 2.24001C50.9856 3.26478 50.486 7.40593 51.5157 9.01081C51.8461 9.52573 52.1165 10.0434 52.1165 10.1613C52.1165 10.2792 52.5361 10.8038 53.0491 11.328C54.326 12.6319 54.2386 12.8423 52.3577 12.9985C51.5272 13.0678 50.6921 13.2074 50.5027 13.3087C50.3127 13.4103 49.485 13.665 48.6633 13.8749C47.8412 14.0852 46.8055 14.4642 46.3614 14.7185C45.9173 14.9722 45.4098 15.1812 45.2338 15.1821C45.0581 15.1835 44.1847 15.5246 43.2928 15.9402C42.4013 16.3557 41.33 16.8549 40.9122 17.0495C40.4945 17.2441 40.0272 17.4031 39.8743 17.4031C39.7213 17.4031 39.3978 17.5584 39.1552 17.7479C38.9126 17.9375 38.2984 18.3031 37.79 18.5606C37.2817 18.818 36.331 19.4564 35.6775 19.9796C34.1354 21.2142 33.9112 21.1689 33.8974 19.6181C33.8733 16.8766 31.4878 13.7311 28.6904 12.7521C27.5581 12.3565 26.9758 11.9515 26.9758 11.5614C26.9758 11.4306 26.8797 11.2642 26.7623 11.1916C26.6302 11.1098 26.5992 11.1408 26.681 11.273C26.7535 11.3904 26.7249 11.4865 26.6172 11.4865C25.6842 11.4865 26.9001 12.6948 28.2162 13.0762C30.3532 13.6951 31.9439 15.1331 32.6242 17.0615C32.7739 17.4859 32.999 17.9578 33.1247 18.1094C33.2647 18.2786 33.3534 18.9659 33.3534 19.8821V21.3783L33.9362 21.4347C34.3637 21.4763 34.683 21.3501 35.1378 20.9595C36.0981 20.1345 37.9189 18.8823 38.1583 18.8823C38.2766 18.8823 38.7416 18.6401 39.1908 18.3442C39.6404 18.0484 40.3618 17.7128 40.7939 17.5977C41.226 17.4831 41.5796 17.3088 41.5796 17.2113C41.5796 17.1133 41.6887 17.0333 41.8217 17.0333C41.9548 17.0333 42.6411 16.75 43.3468 16.4038C44.0525 16.0576 44.9958 15.6762 45.4431 15.557C45.8905 15.4377 46.696 15.1456 47.2335 14.908C48.6083 14.2997 50.9565 13.7205 52.6146 13.5804C54.6185 13.4108 55.235 12.7364 54.2146 11.8295C51.0096 8.9803 50.5364 6.58408 52.4446 2.86448C53.6323 0.549617 53.794 0.0231334 53.318 0.0231334C53.1475 0.0231334 53.0408 0.19647 53.0408 0.474273ZM74.5808 0.201093C74.4519 0.410022 75.2542 2.0736 75.8975 2.93105C77.5612 5.14884 76.7922 9.80446 74.5147 11.2979C72.5335 12.5977 72.9522 13.4926 75.6484 13.7205C76.7478 13.8129 77.813 14.0385 78.6458 14.3542C79.3561 14.6237 80.6446 15.0859 81.5088 15.3818C82.373 15.6771 83.301 16.0446 83.5709 16.1985C83.8408 16.3525 84.1541 16.4787 84.2678 16.4787C84.381 16.4787 84.8034 16.6867 85.206 16.9409C85.6085 17.1951 86.0563 17.4031 86.2014 17.4031C86.475 17.4031 89.6652 19.026 89.8274 19.2479C89.8782 19.3177 90.3108 19.5678 90.7891 19.804C91.2674 20.0402 91.9283 20.5116 92.2583 20.8518C93.4598 22.092 94.4068 21.5133 94.1905 19.6708C93.8513 16.7865 96.4314 13.6757 99.7496 12.968C100.24 12.8635 100.808 12.7401 101.011 12.6939C101.611 12.5571 101.879 11.9668 101.591 11.4126L101.35 10.9471L101.058 11.5582C100.821 12.0555 100.601 12.2104 99.8726 12.3948C97.6806 12.9481 96.0488 14.069 94.7945 15.8828L93.8074 17.3107L93.7718 18.9747C93.7524 19.8899 93.7302 20.7012 93.7228 20.7774C93.6877 21.1394 92.7689 20.8518 92.1779 20.2944C91.6108 19.7596 90.6274 19.1236 88.9563 18.2106C88.7317 18.0877 88.3157 17.8603 88.032 17.7059C87.7487 17.551 86.8096 17.1198 85.9454 16.7477C85.0812 16.3751 83.9628 15.8713 83.4595 15.6277C82.9567 15.3836 82.4456 15.1844 82.3236 15.1844C82.202 15.1844 81.5319 14.9427 80.835 14.6473C78.5576 13.6817 77.1887 13.2883 75.7047 13.1723C73.6537 13.0119 73.5063 12.7235 74.8581 11.5152C77.4637 9.18645 78.0395 5.40492 76.2191 2.57882C75.5721 1.57439 75.1608 0.459481 75.3341 0.179367C75.3868 0.0933918 75.2639 0.0231334 75.0605 0.0231334C74.8572 0.0231334 74.6413 0.103099 74.5808 0.201093ZM59.4183 18.6914C58.8083 18.7741 57.6719 18.8513 56.8927 18.8624C55.54 18.8813 51.9201 19.7924 49.8982 20.6226C49.5423 20.7686 48.9896 20.9323 48.6693 20.9859C48.3495 21.04 47.4465 21.3802 46.6627 21.7426C45.8789 22.1045 44.602 22.6633 43.8247 22.9846C43.0474 23.3058 42.1596 23.7579 41.8513 23.9895C41.5431 24.2215 41.1267 24.4771 40.9252 24.5585C38.5655 25.5112 33.1459 29.8885 29.7413 33.5929C27.9787 35.5097 24.5727 40.188 24.5727 40.6914C24.5727 40.782 24.3698 41.0977 24.1216 41.3926C23.873 41.6875 23.2847 42.7132 22.8133 43.6719C22.3419 44.6301 21.7652 45.7889 21.5313 46.2465C21.2979 46.7041 21.0507 47.4113 20.9828 47.8181C20.9144 48.2249 20.6634 49.0569 20.425 49.667C19.1346 52.9669 18.9369 53.6293 18.8209 55.0289C18.7534 55.8425 18.5468 57.3817 18.3619 58.4495C17.8494 61.4129 17.8855 67.567 18.4331 70.6205C18.6582 71.8741 18.8421 73.2964 18.8421 73.7813C18.8421 74.6485 18.9775 75.1102 20.1454 78.2331C20.4689 79.0975 20.8007 80.1398 20.8834 80.5498C20.9661 80.9598 21.3215 81.875 21.6732 82.5836C22.0249 83.2922 22.5069 84.2883 22.744 84.7968C22.9815 85.3052 23.4312 86.1373 23.7441 86.6457C24.0569 87.1542 24.5029 87.9395 24.7349 88.3907C25.1125 89.1238 27.5452 92.5161 28.671 93.8788C30.5057 96.1003 34.317 99.6493 36.5436 101.21C37.3487 101.774 38.1301 102.358 38.2808 102.509C39.0175 103.246 45.5836 106.675 46.8189 106.967C47.1077 107.036 47.7682 107.296 48.2862 107.547C48.8043 107.797 49.3039 108.001 49.3963 108.001C49.4892 108.001 49.827 108.123 50.1477 108.273C50.9361 108.641 52.806 109.11 53.4955 109.113C53.8047 109.114 54.8477 109.281 55.8136 109.484C60.765 110.524 66.3186 110.559 71.2492 109.581C72.4693 109.34 73.9227 109.088 74.4787 109.022C75.635 108.885 77.221 108.383 78.8284 107.645C79.4384 107.365 80.2065 107.084 80.5351 107.019C81.3743 106.855 86.0845 104.554 86.8965 103.911C87.2667 103.618 87.6331 103.379 87.7108 103.379C87.7879 103.379 88.1239 103.171 88.4576 102.916C88.7908 102.662 89.142 102.454 89.2377 102.454C89.3338 102.454 89.521 102.323 89.6536 102.163C89.7863 102.003 90.192 101.717 90.5544 101.527C90.9171 101.337 91.5119 100.902 91.8761 100.561C92.2407 100.22 92.7814 99.7514 93.0776 99.5199C95.4521 97.6649 99.946 92.7065 101.486 90.2424C102.023 89.3831 102.574 88.5469 102.71 88.3846C102.846 88.2229 103.217 87.5988 103.535 86.9979C105.214 83.8242 105.503 83.2414 105.825 82.3927C106.018 81.8843 106.364 81.1359 106.595 80.7291C106.826 80.3224 107.016 79.8047 107.017 79.5782C107.019 79.2227 108.271 75.1444 108.877 73.5183C109.732 71.2261 109.471 57.1011 108.518 54.1045C108.195 53.0876 107.718 51.5483 107.459 50.6839C106.804 48.5022 106.753 48.358 106.119 46.8479C104.906 43.9598 102.27 39.2464 101.101 37.8754C100.995 37.7506 100.42 36.9727 99.8231 36.1462C98.2786 34.0084 98.1067 33.8092 95.8403 31.5392C94.7192 30.4159 93.1678 29.0431 92.3923 28.4884C91.6173 27.9337 90.2905 26.9806 89.4447 26.3705C87.8651 25.231 85.889 24.0648 84.0968 23.2143C80.6696 21.5877 79.1255 20.9161 78.8131 20.917C78.6181 20.9175 77.8764 20.7146 77.1647 20.4663C74.0359 19.375 72.4891 18.996 70.6022 18.8568C67.5017 18.628 60.6287 18.5263 59.4183 18.6914ZM67.3672 19.0649C72.0677 19.4291 73.993 19.7933 76.7732 20.8458C77.1684 20.9956 78.0289 21.2424 78.6856 21.395C79.3423 21.547 80.7245 22.0731 81.757 22.5635C82.7899 23.0539 83.832 23.5166 84.0728 23.592C84.314 23.6673 84.8547 23.9599 85.2744 24.2428C85.6944 24.5257 86.5785 25.0619 87.2394 25.4349C87.9003 25.8075 88.6905 26.2956 88.9955 26.5193C89.3006 26.7435 90.4152 27.5459 91.4722 28.3031C93.4478 29.7184 96.8007 32.8681 98.0744 34.5053C98.4695 35.0138 98.9002 35.5435 99.0319 35.6822C99.1632 35.8208 99.5583 36.3616 99.9095 36.884C100.261 37.4063 101.004 38.4579 101.561 39.2205C102.118 39.9832 102.877 41.1897 103.249 41.9015C104.501 44.3047 105.294 45.9645 105.635 46.8936C105.821 47.4021 106.044 47.911 106.129 48.0243C106.214 48.138 106.441 48.8036 106.634 49.5034C106.826 50.2037 107.109 51.1508 107.262 51.6084C107.416 52.066 107.854 53.5637 108.237 54.9365L108.932 57.4326L108.933 64.1812C108.934 71.7447 108.952 71.5959 107.466 76.2917C107.016 77.7154 106.593 79.1714 106.525 79.5273C106.457 79.8832 106.218 80.5489 105.993 81.0065C105.769 81.4641 105.271 82.5457 104.887 83.4101C104.502 84.2745 104.008 85.2729 103.788 85.6288C103.567 85.9847 103.331 86.428 103.262 86.6143C103.194 86.8001 102.858 87.3825 102.515 87.9085C102.173 88.4341 101.492 89.4885 101.003 90.2512C99.0291 93.3269 92.5157 100.063 90.5285 101.085C90.1934 101.257 89.7119 101.558 89.4577 101.754C87.4021 103.336 82.3531 106.033 80.384 106.602C79.8164 106.766 78.6518 107.196 77.7959 107.558C76.1489 108.254 74.3738 108.621 68.8461 109.407C64.5509 110.017 63.2856 109.983 56.7379 109.088C51.9875 108.439 50.7522 108.143 48.3269 107.073C47.9202 106.893 47.1715 106.607 46.6632 106.437C45.4667 106.036 42.1795 104.435 40.6983 103.531C40.061 103.142 39.4985 102.824 39.4486 102.824C38.3547 102.824 30.5764 95.651 27.7851 92.0677C25.0302 88.5316 21.6912 82.4325 21.2563 80.1421C21.1635 79.6512 20.9569 79.0004 20.7974 78.6953C20.6385 78.3902 20.5077 78.0496 20.5068 77.9377C20.5063 77.8263 20.3847 77.4921 20.2364 77.1949C19.1222 74.9614 18.2154 65.8928 18.6388 61.2229C19.2756 54.1974 19.5963 52.5699 20.9504 49.4821C21.084 49.1771 21.2989 48.5114 21.4278 48.003C21.5567 47.4945 21.9121 46.5377 22.2176 45.8767C23.6761 42.7211 23.8998 42.2704 24.1179 42.0527C24.2464 41.9242 24.5403 41.5045 24.771 41.1208C27.3978 36.7458 30.2169 33.3086 33.9043 29.986C35.2265 28.7949 37.747 26.8327 37.9554 26.8327C38.0192 26.8327 38.632 26.4717 39.3174 26.0307C40.0023 25.5897 41.0407 24.9237 41.6249 24.5506C42.209 24.1772 43.2073 23.6742 43.8432 23.4325C44.4791 23.1912 45.6233 22.6925 46.3859 22.325C47.1484 21.9575 48.3546 21.4967 49.0663 21.3007C49.778 21.1051 51.317 20.6508 52.4862 20.2912C56.1635 19.1605 62.1903 18.6636 67.3672 19.0649ZM116.458 26.4865C116.452 26.7536 116.322 27.2713 116.17 27.636C116.017 28.0012 115.892 28.6137 115.892 28.9964C115.892 30.3115 114.502 32.3763 112.691 33.7505C111.792 34.4332 109.953 34.8446 108.379 34.7147C107.356 34.6306 107.008 34.6662 106.838 34.8714C106.584 35.1779 106.591 35.1926 107.865 36.9094C108.394 37.6212 108.888 38.4116 108.964 38.6659C109.04 38.9201 109.329 39.4193 109.607 39.7752C109.885 40.1311 110.174 40.6304 110.249 40.8846C110.407 41.4217 110.872 42.4867 111.74 44.3051C112.081 45.017 112.446 45.9914 112.553 46.4702C112.661 46.9491 112.956 47.7968 113.211 48.3534C113.466 48.9104 113.674 49.5274 113.674 49.7243C113.674 49.9217 113.799 50.4366 113.951 50.8688C114.104 51.301 114.229 52.2657 114.229 53.0118C114.229 55.1713 114.751 55.2513 116.678 53.3885C118.416 51.7078 120.246 51.1152 122.695 51.4411C124.318 51.6574 124.68 51.7993 126.327 52.8657C127.313 53.504 127.908 53.6224 127.908 53.18C127.908 53.0233 127.743 52.9027 127.528 52.9027C127.319 52.9027 126.675 52.5823 126.096 52.1904C123.058 50.1357 119.374 50.4126 116.565 52.9064C115.007 54.2898 114.905 54.263 114.759 52.4256C114.629 50.8055 113.032 45.8735 112.148 44.3647C111.882 43.9118 111.604 43.2965 111.53 42.9984C111.285 42.0161 110.34 39.8848 109.979 39.5007C109.785 39.2931 109.451 38.7306 109.239 38.2503C109.027 37.7696 108.523 36.9963 108.121 36.5308C107.021 35.2592 107.067 35.2116 109.499 35.1187C112.836 34.9907 115.98 32.2649 116.348 29.1794C116.494 27.9582 116.966 27.5274 117.717 27.9296C118.26 28.2199 118.211 28.0761 117.51 27.3231C117.179 26.9681 116.81 26.5253 116.689 26.339C116.488 26.0307 116.468 26.0437 116.458 26.4865ZM58.7713 26.4615C57.6086 26.5456 56.3594 26.792 55.0742 27.1909C54.0066 27.5228 52.3845 28.0253 51.4695 28.3081C49.6796 28.8619 46.4413 30.3637 45.0919 31.2669C44.6344 31.5729 44.199 31.8234 44.1241 31.8239C43.9009 31.8253 42.0634 32.9614 41.7644 33.2832C41.6119 33.4473 41.1128 33.8702 40.6553 34.2233C36.0149 37.8015 31.9896 42.8514 29.5241 48.1879C29.0074 49.3065 28.5148 50.3119 28.4297 50.4223C28.3447 50.5328 28.0739 51.3648 27.8276 52.2713C27.5817 53.1777 27.1029 54.7932 26.7642 55.861L26.1486 57.8023L26.1528 64.0887L26.1569 70.3751L26.7628 72.3165C27.096 73.3842 27.5577 74.9235 27.7892 75.737C28.2551 77.3756 30.2848 81.8773 30.9725 82.7967C31.2146 83.1207 31.4124 83.4387 31.4124 83.5039C31.4124 83.6911 32.9888 86.0499 33.3941 86.4692C33.5951 86.6772 33.7929 86.9402 33.8336 87.0539C34.06 87.683 37.8103 91.5861 39.877 93.3435C41.9844 95.1356 48.3551 98.9023 49.9906 99.3239C50.2956 99.4025 51.7514 99.8887 53.2256 100.405C57.2181 101.802 63.0346 102.267 68.939 101.661C71.6162 101.386 77.484 99.7256 78.9208 98.8362C79.175 98.6791 80.09 98.2076 80.9542 97.7888C84.3528 96.1414 88.4733 93.0782 91.0456 90.2867C93.7958 87.3016 93.7806 87.3215 96.4855 83.2349C96.919 82.5795 97.4754 81.581 97.7208 81.0162C97.9667 80.4518 98.4972 79.3179 98.8997 78.497C99.3018 77.6761 99.8305 76.22 100.074 75.2614C100.317 74.3027 100.681 73.0191 100.882 72.4089C102.234 68.3094 102.205 59.7377 100.824 55.5836C100.587 54.8718 100.291 53.8318 100.166 53.2725C99.4298 49.9744 95.9351 43.4107 93.2066 40.2014C91.7416 38.4782 87.9483 34.7785 86.9621 34.111C86.4537 33.7667 85.7051 33.2485 85.2984 32.9596C83.7299 31.8438 81.867 30.6923 81.1945 30.4229C80.8082 30.268 79.8682 29.8261 79.1057 29.4406C78.3431 29.0556 77.0953 28.5513 76.3328 28.3206C75.5703 28.09 74.047 27.6157 72.9485 27.2667C70.0874 26.3584 64.5583 26.0441 58.7713 26.4615ZM70.4174 27.0948C71.0782 27.2353 72.326 27.5695 73.1902 27.8367C74.0544 28.1043 75.4686 28.542 76.3328 28.8092C77.197 29.0764 78.3616 29.5266 78.9208 29.8095C79.48 30.0924 80.2481 30.4487 80.628 30.6017C81.2925 30.8689 85.0165 33.0738 85.206 33.3123C85.2568 33.3761 85.9223 33.8878 86.6848 34.4494C90.3977 37.183 95.3565 43.1186 97.1588 46.9861C97.4195 47.5454 97.8262 48.3797 98.0633 48.8401C98.6539 49.9883 99.4113 52.1146 99.9386 54.1045C100.181 55.0197 100.547 56.3925 100.751 57.1552C101.513 59.998 101.44 68.5904 100.63 71.392C100.469 71.9513 100.139 73.1993 99.8984 74.1654C99.3757 76.2589 98.6848 78.1522 98.0938 79.1085C97.8571 79.4913 97.5665 80.1375 97.4481 80.5443C97.3294 80.951 96.7517 82.0354 96.1643 82.9543C95.5765 83.8728 95.0127 84.7566 94.911 84.9184C92.6834 88.4549 88.1766 92.8729 84.0968 95.5202C82.7709 96.3804 78.2558 98.7502 77.9355 98.7544C77.8514 98.7553 77.2691 98.9546 76.6415 99.1972C71.9263 101.021 68.6261 101.488 62.0063 101.267C56.9967 101.101 55.9962 100.906 50.73 99.0747C48.7632 98.3906 42.8874 95.3223 42.319 94.6826C42.2682 94.6253 41.9354 94.3784 41.5796 94.1339C41.2237 93.8894 40.891 93.643 40.8402 93.5862C40.7893 93.5293 39.9408 92.7888 38.9546 91.9406C37.9684 91.0924 37.1365 90.3311 37.106 90.2484C37.0755 90.1656 36.4974 89.518 35.8208 88.8094C35.1447 88.1004 34.4436 87.2822 34.2625 86.9906C34.0818 86.6993 33.7102 86.2112 33.4366 85.9061C33.1635 85.6011 32.5826 84.7275 32.1458 83.9648C31.7091 83.2021 31.2909 82.5365 31.2165 82.4856C30.9115 82.2762 28.4191 76.5783 28.1843 75.5521C28.0448 74.942 27.6848 73.6523 27.3839 72.6863C26.0497 68.3991 26.0858 59.7054 27.4556 55.3349C27.8169 54.1807 28.1797 52.8495 28.2611 52.3766C28.4265 51.4161 30.582 46.6602 31.5002 45.2296C31.8265 44.7211 32.3289 43.8914 32.6168 43.3857C33.8521 41.2151 38.3603 36.4028 40.958 34.4813C41.7067 33.9275 42.319 33.4001 42.319 33.309C42.319 33.2184 42.4988 33.0872 42.7183 33.0174C42.9378 32.9476 43.8737 32.4308 44.798 31.8687C45.7222 31.3071 46.7695 30.7302 47.1253 30.5869C47.4812 30.4441 48.1466 30.1312 48.6042 29.8917C49.0617 29.6523 50.2263 29.2002 51.1922 28.8869C53.1706 28.2453 57.0083 27.0851 57.5698 26.9589C58.5574 26.7365 69.2662 26.8498 70.4174 27.0948ZM10.5235 28.4856C10.5235 28.683 10.5975 28.8901 10.6876 28.946C10.7777 29.002 10.9094 29.3565 10.9801 29.7341C11.5536 32.7923 14.7886 35.1959 18.3767 35.231C20.1024 35.2477 20.3547 35.5301 19.4027 36.3783C19.0889 36.6584 18.5718 37.3499 18.2538 37.9152C17.3822 39.4655 16.439 41.4189 16.439 41.6746C16.439 41.7994 16.1926 42.3591 15.8918 42.9184C15.5909 43.4777 15.3414 44.0768 15.3372 44.2501C15.3331 44.4234 14.9874 45.2139 14.5687 46.0066C13.5654 47.9064 12.7464 50.8282 12.7395 52.5329C12.7321 54.27 12.0865 54.5117 10.9986 53.1837C9.31502 51.1286 5.75512 50.2952 3.01091 51.314C2.07045 51.6634 2.05335 51.663 1.3472 51.2969C0.954838 51.0935 0.529201 50.9627 0.401649 51.0061C0.0679815 51.1198 0.312458 51.4235 0.737168 51.4235C0.934504 51.4235 1.09579 51.5044 1.09579 51.6038C1.09579 52.146 2.14116 52.336 2.87135 51.926C4.62934 50.9405 8.80666 51.5284 10.1658 52.9531C10.4135 53.2128 10.8979 53.7236 11.2426 54.0883C12.4109 55.3248 12.9766 54.9591 13.1993 52.8232C13.4096 50.8064 14.3464 47.238 14.8672 46.4721C15.1214 46.0972 15.3298 45.6881 15.3298 45.5629C15.3298 45.1945 15.9038 43.5896 16.1432 43.2882C16.2643 43.1357 16.6465 42.3452 16.9917 41.5317C17.3374 40.7182 17.7699 39.803 17.9534 39.4979C18.1364 39.1928 18.4507 38.5887 18.6508 38.1556C18.8514 37.722 19.3509 37.0485 19.7609 36.6589C21.1528 35.3341 20.7166 34.5927 18.6323 34.742C15.8608 34.9403 12.2482 32.7571 11.7385 30.5754C11.268 28.5633 10.5235 27.2824 10.5235 28.4856ZM58.7713 28.2517C57.9117 28.3904 55.254 29.1083 55.3279 29.1818C55.3681 29.222 56.0969 29.0694 56.9477 28.8429C58.1424 28.5245 59.251 28.4038 61.8215 28.3123L65.1489 28.1935L62.1912 28.1852C60.5644 28.181 59.0255 28.2106 58.7713 28.2517ZM67.0469 28.261C67.3792 28.3021 67.8783 28.3012 68.1561 28.2591C68.4338 28.2171 68.1621 28.1833 67.5521 28.1843C66.942 28.1852 66.7147 28.2199 67.0469 28.261ZM52.5287 29.8261C51.8909 30.0401 51.4015 30.2467 51.4403 30.286C51.4796 30.3249 52.1257 30.1515 52.8767 29.9005C53.6277 29.6495 54.1175 29.4429 53.965 29.4406C53.8125 29.4388 53.166 29.6121 52.5287 29.8261ZM74.8539 29.791C75.4861 29.9934 75.9719 29.9934 75.5009 29.791C75.2976 29.7036 74.9649 29.6347 74.7615 29.6375C74.4644 29.6417 74.4824 29.6722 74.8539 29.791ZM49.3898 30.9937C47.8042 31.7324 47.5754 32.0134 49.1125 31.3353C51.0069 30.4991 51.2892 30.354 51.0073 30.3618C50.8548 30.3665 50.1269 30.6507 49.3898 30.9937ZM77.4419 30.623C77.6961 30.7681 77.9873 30.8874 78.0889 30.8874C78.1906 30.8874 78.0658 30.7681 77.8117 30.623C77.5575 30.4779 77.2663 30.3586 77.1647 30.3586C77.063 30.3586 77.1878 30.4779 77.4419 30.623ZM46.5707 32.3425C46.0115 32.6171 45.1612 33.1329 44.6815 33.4889C44.2018 33.8448 43.4425 34.3648 42.9942 34.6444C38.3446 37.544 31.2826 46.7591 30.2002 51.3389C30.1295 51.6394 29.9225 52.2602 29.7408 52.7178C29.5592 53.1754 29.2653 54.2154 29.0878 55.0289C28.9104 55.8425 28.6391 56.7577 28.4857 57.0628C28.2985 57.4344 28.1904 58.2886 28.1585 59.6513L28.1109 61.6851L28.2685 60.1135C28.5143 57.6637 29.7598 52.8417 30.7761 50.4066C31.6879 48.2216 33.8248 44.3079 34.3595 43.8429C34.4182 43.792 34.7084 43.377 35.0047 42.9198C37.2077 39.5247 42.6042 34.7161 46.6632 32.5311C48.1499 31.731 48.0852 31.5988 46.5707 32.3425ZM83.0792 33.4597C83.2807 33.6978 83.6129 33.9784 83.8177 34.0833C84.21 34.2844 84.1527 34.2224 83.2663 33.4861C82.7326 33.0428 82.7261 33.0419 83.0792 33.4597ZM86.2217 35.6785C86.4232 35.9165 86.7555 36.1971 86.9603 36.302C87.3526 36.5031 87.2953 36.4411 86.4089 35.7048C85.8751 35.2615 85.8687 35.2606 86.2217 35.6785ZM90.8464 40.1298C91.3562 40.6974 92.0494 41.4947 92.3872 41.9015C92.9413 42.5685 92.9593 42.5778 92.5707 41.994C92.3336 41.638 91.6404 40.8407 91.0299 40.2222L89.9198 39.0976L90.8464 40.1298ZM48.8334 45.738C48.4369 46.1619 47.977 47.1603 48.1157 47.2985C48.1573 47.3406 48.2779 47.1275 48.3833 46.8252C48.8329 45.5347 48.9328 45.5069 53.129 45.5069H56.9144L57.2121 45.9618C57.4099 46.2631 57.4736 46.6209 57.4015 47.0249C57.3202 47.4839 57.3355 47.5426 57.4649 47.2634C57.7472 46.6547 57.6844 46.0838 57.2925 45.6918C56.6871 45.0863 49.4069 45.1261 48.8334 45.738ZM61.4518 45.6918C61.1468 45.8938 60.9845 46.0598 61.0913 46.0602C61.1981 46.0611 61.3894 45.9576 61.516 45.8305C61.6865 45.6599 63.2569 45.574 67.5146 45.5018L73.2826 45.4043L67.6445 45.3641C62.2915 45.3267 61.9782 45.3428 61.4518 45.6918ZM60.5145 46.7027C60.35 46.9537 60.2442 47.2338 60.2788 47.3254C60.314 47.4169 60.4776 47.2116 60.6426 46.8691C60.9961 46.1365 60.936 46.0588 60.5145 46.7027ZM47.7011 48.1135C47.5879 48.4389 47.501 48.7971 47.508 48.909C47.5154 49.0208 47.6401 48.7869 47.7862 48.389C47.9318 47.991 48.0186 47.6332 47.9793 47.5939C47.9396 47.5542 47.8148 47.788 47.7011 48.1135ZM59.9863 48.2013C59.9179 48.4722 59.898 48.7296 59.9415 48.7731C59.9854 48.8165 60.0764 48.6307 60.1444 48.3594C60.2128 48.0885 60.2326 47.831 60.1892 47.7876C60.1453 47.7441 60.0542 47.93 59.9863 48.2013ZM46.7685 50.4736C46.2334 51.5224 46.2939 51.6842 46.8545 50.7038C47.1101 50.2568 47.2811 49.8538 47.2348 49.8076C47.1886 49.7613 46.9788 50.0613 46.7685 50.4736ZM58.7741 51.6237C58.7755 51.9713 58.8531 52.3762 58.9465 52.5232C59.056 52.6965 59.0787 52.5005 59.0107 51.9685C58.8799 50.9474 58.7704 50.788 58.7741 51.6237ZM46.2944 52.0706C46.4903 53.0437 46.683 53.0876 50.755 53.0876H54.4988L55.0178 52.6073L55.5363 52.127L55.003 52.5149C54.5053 52.8768 54.2326 52.9027 50.9052 52.9027C46.9067 52.9027 46.8184 52.8865 46.4487 52.0891L46.1825 51.516L46.2944 52.0706ZM59.4858 52.9521C59.5644 53.0302 61.7438 53.0718 64.3295 53.0446L69.0309 52.9947L64.1872 52.9022C61.5234 52.8518 59.4077 52.874 59.4858 52.9521ZM57.4344 60.2476C57.7666 60.2887 58.2658 60.2878 58.5435 60.2457C58.8212 60.2037 58.5495 60.1699 57.9395 60.1708C57.3294 60.1718 57.1021 60.2064 57.4344 60.2476ZM28.1506 63.3491C28.1502 64.2644 28.1811 64.6619 28.2199 64.2329C28.2588 63.804 28.2592 63.0552 28.2213 62.5689C28.183 62.0826 28.1511 62.4339 28.1506 63.3491ZM28.1095 68.2502C28.0854 69.618 28.1612 70.0229 28.7135 71.4845C29.08 72.4538 29.0804 72.0881 28.7149 70.5253C28.5527 69.8324 28.3558 68.7249 28.2768 68.0639L28.1335 66.8621L28.1095 68.2502ZM56.5068 67.2731C56.8373 67.3142 57.378 67.3142 57.7084 67.2731C58.0388 67.2324 57.7685 67.1986 57.1076 67.1986C56.4467 67.1986 56.1764 67.2324 56.5068 67.2731ZM29.0407 72.5938C29.0435 72.7972 29.1128 73.1716 29.1941 73.4258L29.342 73.8881L29.3476 73.4258C29.3503 73.1716 29.2815 72.7972 29.1941 72.5938L29.0352 72.224L29.0407 72.5938ZM114.629 73.7494C114.538 73.9274 114.407 74.7155 114.339 75.5003C114.27 76.2857 114.094 77.3257 113.946 77.8115C113.799 78.2978 113.677 78.8465 113.676 79.0309C113.675 79.2153 113.468 79.8162 113.216 80.3663C112.965 80.9163 112.709 81.5972 112.647 81.8796C112.473 82.6761 112.161 83.4582 111.815 83.9648C111.642 84.219 111.366 84.8213 111.203 85.3029C111.04 85.785 110.833 86.3259 110.743 86.5047C110.653 86.6841 110.396 87.205 110.171 87.6626C109.945 88.1203 109.581 88.8344 109.361 89.2495C109.14 89.665 108.846 90.2743 108.707 90.6038C108.568 90.9339 108.007 91.6623 107.46 92.223C105.904 93.8168 106.124 94.8217 107.988 94.6424C110.189 94.4311 113.119 95.8511 114.286 97.694C114.789 98.4886 115.706 100.998 115.72 101.618C115.749 102.823 116.051 102.936 116.064 101.746C116.106 97.9792 111.539 93.4239 108.358 94.06C106.635 94.4048 106.512 93.8949 107.943 92.3326C108.626 91.5875 109.126 90.8511 109.243 90.4176C109.346 90.0302 109.636 89.4704 109.886 89.1741C110.372 88.5964 110.884 87.5004 111.499 85.7213C111.71 85.1111 112.066 84.3207 112.289 83.9648C112.513 83.6089 112.828 82.9016 112.989 82.3932C113.151 81.8847 113.665 80.3483 114.131 78.9782C114.819 76.9569 114.957 76.3425 114.863 75.7148C114.607 74.0092 115.337 73.6667 116.548 74.9244C119.135 77.6118 124.362 77.738 126.925 75.1749C127.073 75.0266 127.355 74.905 127.552 74.905C127.756 74.905 127.908 74.7779 127.908 74.6078C127.908 74.1959 127.087 74.415 126.37 75.0182C123.639 77.3174 119.484 77.1029 116.707 74.519C115.5 73.3967 114.922 73.1822 114.629 73.7494ZM11.2084 74.0586C10.9843 74.3055 10.5693 74.7603 10.2869 75.07C8.84594 76.6472 5.53653 77.2111 3.20132 76.2769L2.00899 75.7994L1.3569 76.1845C0.998278 76.3957 0.585121 76.569 0.43816 76.569C0.29166 76.569 0.171501 76.6522 0.171501 76.7539C0.171501 76.8556 0.374385 76.9388 0.622556 76.9388C0.870727 76.9388 1.12537 76.8556 1.18822 76.7539C1.36984 76.4604 2.57789 76.5496 3.6838 76.9388C6.05182 77.7718 9.14125 76.9536 10.9076 75.0252C11.8887 73.9546 12.2889 73.9569 12.4701 75.034C13.1906 79.3133 13.6365 81.0079 14.3002 81.9878C14.785 82.7043 15.3298 84.0323 15.3298 84.4973C15.3298 84.6845 15.5382 85.1449 15.7933 85.5207C16.0485 85.8965 16.3285 86.5242 16.4168 86.9152C16.5046 87.3063 16.8484 88.1129 17.1812 88.7077C17.5139 89.3022 18.0292 90.2465 18.3264 90.8058C18.624 91.3651 19.1943 92.1445 19.594 92.5374C20.7863 93.7096 20.5562 94.1339 18.7284 94.1339C17.0712 94.1339 14.998 95.0404 13.8953 96.2468C12.9281 97.3053 11.4478 99.6535 11.4478 100.129C11.4478 100.289 11.3258 100.42 11.1765 100.42C11.0111 100.42 10.9464 100.529 11.0111 100.698C11.1678 101.105 11.5435 101.036 11.7542 100.559C13.6874 96.1895 15.5969 94.6914 19.2354 94.6895C21.3696 94.6881 21.6501 93.9042 20.0562 92.3936C19.618 91.9781 19.0126 91.1802 18.7113 90.6209C18.4105 90.0616 18.0287 89.3544 17.8633 89.0493C17.6983 88.7443 17.3836 88.0787 17.1645 87.5702C16.9459 87.0617 16.5309 86.1465 16.243 85.5364C15.9551 84.9262 15.5858 83.9546 15.4227 83.3768C15.2596 82.7995 14.9573 82.1117 14.7503 81.8487C14.5335 81.5732 14.1477 80.4125 13.8389 79.1085C13.5446 77.8642 13.2187 76.4914 13.1152 76.0578C13.0112 75.6242 12.9267 75.0279 12.9267 74.7326C12.9267 73.5187 12.0223 73.1642 11.2084 74.0586ZM29.3878 74.1381C29.3748 74.5056 30.4493 77.6447 30.85 78.4083C31.0395 78.7697 31.5751 79.8555 32.04 80.8216C33.6806 84.2287 37.4064 88.8367 40.7727 91.6217C41.3688 92.1149 40.9631 91.6684 39.8706 90.6288C35.1678 86.1548 31.9984 81.3827 30.1027 75.9219C29.7145 74.8033 29.3929 74.0004 29.3878 74.1381ZM59.2829 75.039C59.6152 75.0802 60.1143 75.0793 60.3921 75.0372C60.6698 74.9951 60.3981 74.9614 59.788 74.9623C59.178 74.9632 58.9506 74.9979 59.2829 75.039ZM93.9821 83.8261C93.6983 84.2583 93.1003 85.0903 92.6525 85.675C92.2051 86.2598 91.8863 86.7382 91.9431 86.7382C92.0596 86.7382 94.1752 83.9218 94.4627 83.3842C94.7964 82.7602 94.5071 83.0264 93.9821 83.8261ZM90.9365 87.7551C90.4873 88.2127 90.1615 88.5871 90.2124 88.5871C90.2632 88.5871 90.6722 88.2127 91.1214 87.7551C91.5706 87.2975 91.8964 86.9231 91.8456 86.9231C91.7947 86.9231 91.3857 87.2975 90.9365 87.7551ZM87.323 91.4067L86.5924 92.1925L87.378 91.4617C88.1087 90.7818 88.2487 90.6209 88.1087 90.6209C88.0786 90.6209 87.7251 90.9746 87.323 91.4067ZM42.6416 93.1424C43.3681 93.8039 44.907 94.8055 44.907 94.6174C44.907 94.5726 44.5119 94.2814 44.0289 93.9707C43.546 93.6601 42.8597 93.1859 42.5039 92.9173C42.0094 92.5438 42.0417 92.597 42.6416 93.1424ZM84.7503 93.4156C83.7793 94.1459 83.6883 94.2666 84.4328 93.839C84.9573 93.5376 85.7823 92.8142 85.5581 92.8521C85.517 92.8591 85.1533 93.1129 84.7503 93.4156ZM46.0374 95.4004C46.5439 95.7938 47.221 96.1677 47.4266 96.1677C47.5043 96.1677 47.1738 95.9181 46.6927 95.6131C45.7139 94.9918 45.3659 94.879 46.0374 95.4004ZM52.7995 98.4045C53.2261 98.601 53.85 98.8039 54.1859 98.8561C54.5219 98.9079 54.2146 98.7442 53.5029 98.4923C51.9612 97.9464 51.7449 97.9192 52.7995 98.4045ZM73.4675 98.7563C73.2346 98.8566 73.2004 98.9153 73.3751 98.9153C73.5276 98.9153 73.8187 98.8436 74.0221 98.7563C74.255 98.6559 74.2892 98.5972 74.1145 98.5972C73.962 98.5972 73.6709 98.6689 73.4675 98.7563ZM56.7379 99.4131C57.1954 99.5573 57.8609 99.6682 58.2168 99.6599C58.7145 99.6479 58.5869 99.5874 57.6622 99.3965C56.102 99.0747 55.6884 99.0821 56.7379 99.4131ZM70.0476 99.4112C69.1825 99.61 69.1275 99.6456 69.6779 99.6488C70.0338 99.6507 70.6161 99.5407 70.9719 99.4034C71.7668 99.0974 71.398 99.1001 70.0476 99.4112ZM61.7753 99.8189C62.9699 99.8508 64.9248 99.8508 66.1194 99.8189C67.3141 99.7866 66.3366 99.7602 63.9473 99.7602C61.5581 99.7602 60.5806 99.7866 61.7753 99.8189ZM34.0577 107.677C33.9755 107.804 33.908 108.871 33.908 110.048C33.908 112.481 33.9246 112.445 31.8311 114.627C31.0108 115.481 30.5736 115.785 29.9336 115.944C28.3045 116.35 27.9038 116.84 28.5273 117.662C28.8577 118.097 29.0079 118.069 29.0153 117.569C29.0236 116.985 29.4016 116.553 30.0375 116.4C32.5401 115.797 35.2015 111.39 34.3752 109.217C33.7689 107.621 35.0976 107.932 37.6241 109.976C38.0414 110.313 38.4449 110.589 38.5207 110.589C38.6635 110.589 39.0956 110.778 41.3217 111.809C42.044 112.144 42.8759 112.476 43.1703 112.547C43.4647 112.619 44.6205 113.114 45.7389 113.648C47.3347 114.409 48.2894 114.725 50.1755 115.113C53.6346 115.825 53.6785 115.838 53.7478 116.198C53.7834 116.383 53.4969 116.864 53.0851 117.312C50.7282 119.869 50.2568 122.677 51.7162 125.466C52.1396 126.276 52.4862 127.178 52.4862 127.469C52.4862 127.811 52.5684 127.973 52.7172 127.924C53.1937 127.767 53.038 127.016 52.1904 125.384C50.7069 122.528 51.3354 119.145 53.6822 117.355C55.009 116.342 54.7327 115.303 53.0874 115.12C51.024 114.889 46.8032 113.735 45.3248 112.997C44.5359 112.603 43.6407 112.222 43.3357 112.15C41.9165 111.815 38.7901 110.214 36.4073 108.602C34.6484 107.412 34.3142 107.28 34.0577 107.677ZM91.7495 107.998C90.4966 108.956 88.3046 110.405 88.1068 110.405C88.0019 110.405 87.1608 110.768 86.2375 111.213C81.5698 113.459 76.8328 115.027 74.7167 115.027C73.5576 115.027 73.0927 116.113 73.9444 116.83C76.617 119.079 77.6407 122.404 76.3781 124.734C75.1636 126.976 74.8941 127.969 75.5009 127.969C75.6802 127.969 75.7782 127.79 75.7782 127.461C75.7782 127.181 76.0629 126.37 76.4114 125.658C78.0169 122.378 77.5797 119.795 74.9755 117.177C73.6815 115.876 73.7674 115.637 75.6146 115.401C78.1744 115.074 80.0517 114.505 82.7298 113.242C83.4521 112.902 84.1084 112.623 84.1879 112.623C84.2673 112.623 85.0488 112.284 85.9246 111.869C86.8004 111.454 87.683 111.049 87.8864 110.968C88.0897 110.887 88.4641 110.736 88.7182 110.632C88.9724 110.529 89.8671 109.93 90.7064 109.302C92.6525 107.845 92.8609 107.871 92.8701 109.573C92.8882 112.727 94.8527 115.484 97.8687 116.588C98.8965 116.965 99.44 117.362 99.44 117.737C99.44 117.873 99.5232 117.985 99.6248 117.985C99.9714 117.985 99.8111 117.126 99.3938 116.746C99.165 116.538 98.4154 116.184 97.7277 115.959C96.1694 115.449 94.6129 114.116 94.202 112.94C93.2251 110.146 93.177 109.896 93.4464 109.001C93.9151 107.443 93.1017 106.963 91.7495 107.998Z" fill="#9C6F1D"/>
</svg>
