<?xml version="1.0" standalone="no"?>
<!DOCTYPE svg PUBLIC "-//W3C//DTD SVG 1.0//EN" "http://www.w3.org/TR/2001/REC-SVG-20010904/DTD/svg10.dtd">
<svg xmlns="http://www.w3.org/2000/svg" xmlns:xlink="http://www.w3.org/1999/xlink" id="body_1" width="32" height="30">

<g transform="matrix(0.08 0 0 0.08130081 0 0)">
    <path transform="matrix(1 0 0 0.9990975 0 1.524502E-05)"  d="M104.894 62.441C 104.894 62.656 104.73 62.731 104.529 62.606C 104.312 62.473 104.262 62.638 104.406 63.012C 104.623 63.578 104.433 63.618 102.584 63.401C 100.301 63.133 99.354 63.344 99.354 64.121C 99.354 64.566 98.364 64.841 97.383 64.668C 97.213 64.639 96.99 64.936 96.887 65.329C 96.784 65.723 96.366 66.132 95.958 66.238C 95.55 66.345 95.326 66.61 95.46 66.826C 95.594 67.043 95.543 67.221 95.347 67.221C 95.151 67.221 95.072 67.53 95.171 67.908C 95.278 68.321 95.117 68.686 94.767 68.82C 94.446 68.943 94.183 69.279 94.183 69.567C 94.183 69.854 93.85 70.176 93.444 70.282C 92.725 70.47 92.705 70.786 92.705 82.074L92.705 82.074L92.705 93.673L96.539 94.16C 102.518 94.919 108.543 94.328 111.629 92.679C 111.982 92.49 112.494 92.336 112.768 92.336C 113.292 92.336 119.324 89.296 120.31 88.534C 122.027 87.209 127.456 81.559 128.305 80.215C 130.746 76.347 133.33 70.128 133.337 68.099C 133.351 64.507 134.205 63.199 134.598 66.167C 135.454 72.615 139.29 80.105 144.229 84.972C 154.707 95.295 168.857 97.42 182.436 90.709C 187.907 88.005 197.599 77.236 197.599 73.861C 197.599 73.54 197.761 73.117 197.958 72.919C 198.155 72.722 198.542 71.567 198.816 70.352C 199.475 67.444 200.694 66.988 201.117 69.492C 201.932 74.315 205.307 79.985 210.563 85.362C 225.147 100.281 250.598 96.563 261.323 77.946C 263.017 75.007 264.988 69.48 265.384 66.56C 265.908 62.706 266.549 62.962 266.63 67.058C 266.667 68.929 268.162 73.594 269.677 76.563C 276.073 89.101 289.179 95.939 303.441 94.18L303.441 94.18L307.295 93.704L307.295 81.94C 307.295 70.422 307.279 70.175 306.556 70.175C 306.063 70.175 305.817 69.929 305.817 69.437C 305.817 69.003 305.571 68.698 305.22 68.698C 304.805 68.698 304.682 68.473 304.816 67.959C 304.922 67.553 304.859 67.221 304.675 67.221C 304.49 67.221 304.34 66.971 304.34 66.667C 304.34 66.362 304.09 66.113 303.786 66.113C 303.481 66.113 303.232 65.946 303.232 65.743C 303.232 65.54 302.941 65.371 302.585 65.368C 302.033 65.363 302.02 65.311 302.493 65.005C 302.913 64.733 302.758 64.645 301.847 64.641C 301.07 64.637 300.646 64.454 300.646 64.121C 300.646 63.349 299.702 63.132 297.477 63.394C 295.605 63.614 295.476 63.578 295.476 62.839L295.476 62.839L295.476 62.05L200.185 62.05C 133.363 62.05 104.894 62.167 104.894 62.441M20.683 320.037C 20.683 320.345 20.355 320.591 19.945 320.591C 19.452 320.591 19.206 320.837 19.206 321.33C 19.206 321.736 18.968 322.068 18.678 322.068C 18.387 322.068 18.096 322.442 18.031 322.899C 17.956 323.43 17.694 323.694 17.307 323.631C 16.315 323.468 16.395 329.334 17.39 329.65C 17.779 329.773 18.098 330.196 18.098 330.588C 18.098 330.981 18.328 331.302 18.609 331.302C 18.89 331.302 19.207 331.634 19.313 332.041C 19.419 332.447 19.753 332.779 20.055 332.779C 20.357 332.779 20.7 333.029 20.817 333.333C 20.999 333.808 22.564 333.887 31.774 333.887C 38.464 333.887 42.436 333.755 42.301 333.537C 41.623 332.438 45.575 332.41 200.38 332.41C 356.915 332.41 357.226 332.411 357.418 333.149C 357.68 334.147 379.317 334.33 379.317 333.333C 379.317 333.026 379.645 332.779 380.055 332.779C 380.462 332.779 380.774 332.655 380.75 332.502C 380.63 331.74 380.848 331.302 381.348 331.302C 381.811 331.302 381.902 330.543 381.902 326.685C 381.902 322.828 381.811 322.068 381.348 322.068C 381.04 322.068 380.794 321.74 380.794 321.33C 380.794 320.837 380.548 320.591 380.055 320.591C 379.645 320.591 379.317 320.345 379.317 320.037C 379.317 319.222 364.674 319.211 363.598 320.025C 362.527 320.835 37.981 320.847 36.565 320.037C 35.168 319.238 20.683 319.238 20.683 320.037M46.168 338.689C 46.168 339.181 45.922 339.428 45.429 339.428C 45.019 339.428 44.691 339.674 44.691 339.982C 44.691 340.286 44.426 340.536 44.102 340.536C 43.778 340.536 43.427 340.868 43.32 341.274C 43.214 341.681 42.897 342.013 42.616 342.013C 42.219 342.013 42.105 342.753 42.105 345.337C 42.105 348.046 42.208 348.661 42.659 348.661C 42.967 348.661 43.213 348.989 43.213 349.4C 43.213 349.892 43.46 350.139 43.952 350.139C 44.362 350.139 44.691 350.385 44.691 350.693C 44.691 351 45.019 351.247 45.429 351.247C 45.922 351.247 46.168 351.493 46.168 351.985C 46.168 352.723 46.414 352.724 200 352.724C 353.586 352.724 353.832 352.723 353.832 351.985C 353.832 351.493 354.078 351.247 354.571 351.247C 354.981 351.247 355.309 351 355.309 350.693C 355.309 350.385 355.638 350.139 356.048 350.139C 356.54 350.139 356.787 349.892 356.787 349.4C 356.787 348.989 357.033 348.661 357.341 348.661C 357.792 348.661 357.895 348.046 357.895 345.337C 357.895 342.753 357.781 342.013 357.384 342.013C 357.103 342.013 356.786 341.681 356.68 341.274C 356.573 340.868 356.222 340.536 355.898 340.536C 355.574 340.536 355.309 340.286 355.309 339.982C 355.309 339.674 354.981 339.428 354.571 339.428C 354.078 339.428 353.832 339.181 353.832 338.689C 353.832 337.951 353.586 337.95 200 337.95C 46.414 337.95 46.168 337.951 46.168 338.689" stroke="none" fill="#ECE8E4" fill-rule="nonzero" />
    <path transform="matrix(1 0 0 0.9990975 0 1.524502E-05)"  d="M50.129 231.974C 49.79 232.516 49.263 232.687 47.926 232.687C 46.414 232.687 46.168 232.79 46.168 233.426C 46.168 233.918 45.922 234.164 45.429 234.164C 45.019 234.164 44.691 234.411 44.691 234.718C 44.691 235.026 44.362 235.272 43.952 235.272C 43.46 235.272 43.213 235.519 43.213 236.011C 43.213 236.421 42.967 236.75 42.659 236.75C 42.355 236.75 42.105 236.999 42.105 237.304C 42.105 237.612 41.777 237.858 41.367 237.858C 40.874 237.858 40.628 238.104 40.628 238.596C 40.628 239.007 40.382 239.335 40.074 239.335C 39.766 239.335 39.52 239.663 39.52 240.074C 39.52 240.566 39.274 240.813 38.781 240.813C 38.375 240.813 38.042 241.022 38.042 241.278C 38.042 241.534 37.71 241.95 37.304 242.204C 36.688 242.589 36.565 243.066 36.565 245.063C 36.565 246.964 36.449 247.461 36.003 247.461C 35.516 247.461 35.454 248.367 35.541 254.201C 35.626 259.902 35.727 260.942 36.196 260.942C 36.504 260.942 36.807 260.537 36.879 260.027C 37.166 257.988 40.356 255.956 43.268 255.956C 48.049 255.956 49.678 258.758 50.782 268.883C 51.065 271.476 52.303 275.219 53.628 277.486C 54.197 278.46 54.663 279.381 54.663 279.532C 54.663 280.301 60.952 287.023 63.246 288.707C 65.394 290.284 71.196 293.259 72.123 293.259C 72.494 293.259 73.294 293.516 73.901 293.83C 76.508 295.178 88.59 295.177 91.198 293.829C 91.804 293.516 92.617 293.259 93.006 293.259C 94.956 293.259 102.31 288.615 105.873 285.134C 108.547 282.521 113.382 274.077 113.387 272.012C 113.388 271.6 113.616 270.935 113.895 270.535C 114.214 270.075 114.468 268.307 114.583 265.743C 114.708 262.985 114.96 261.325 115.368 260.572C 115.699 259.963 115.971 259.268 115.972 259.027C 115.973 258.787 116.698 257.998 117.582 257.273C 120.137 255.18 124.012 255.281 126.253 257.5C 127.994 259.225 128.027 259.323 128.338 263.688C 128.878 271.265 131.293 277.627 135.497 282.548C 138.734 286.338 139.677 287.292 141.572 288.692C 143.997 290.483 149.548 293.259 150.703 293.259C 151.124 293.259 151.958 293.513 152.558 293.823C 155.136 295.156 166.145 295.18 169.297 293.859C 170.084 293.529 170.973 293.259 171.274 293.259C 174.211 293.259 183.1 286.891 186.482 282.364C 187.241 281.348 187.978 280.268 188.119 279.963C 188.26 279.658 188.806 278.661 189.332 277.747C 191.569 273.86 192.904 269.337 193.147 264.82C 193.513 258.04 195.211 255.956 200.371 255.956C 204.863 255.956 206.625 258.335 206.937 264.826C 207.099 268.181 207.347 269.608 208.124 271.653C 208.664 273.075 209.204 274.56 209.323 274.953C 209.705 276.21 212.685 281.214 213.778 282.435C 214.359 283.084 215.217 284.164 215.685 284.836C 217.59 287.572 226.584 293.259 229.005 293.259C 229.425 293.259 230.29 293.529 230.927 293.858C 233.481 295.179 245.227 295.16 247.798 293.83C 248.405 293.516 249.22 293.259 249.609 293.259C 251.482 293.259 258.009 289.346 261.256 286.274C 267.82 280.067 271.03 272.955 271.809 262.893L271.809 262.893L272.09 259.265L273.817 257.61L275.544 255.956L278.326 255.956C 283 255.956 285.503 259.367 285.503 265.737C 285.503 270.591 288.611 278.53 291.94 282.179C 292.589 282.89 293.503 284.054 293.972 284.765C 295.803 287.542 303.068 292.206 307.141 293.218C 307.937 293.416 309.335 293.853 310.249 294.19C 312.175 294.899 321.934 295.065 324.469 294.432C 331.809 292.599 338.595 288.206 343.659 282.009C 346.078 279.049 349.422 271.084 349.403 268.329C 349.349 260.642 352.259 255.956 357.087 255.956C 359.783 255.956 362.641 257.908 363.199 260.131C 363.325 260.634 363.679 261.141 363.986 261.259C 364.47 261.445 364.543 260.56 364.543 254.467C 364.543 248.485 364.462 247.461 363.989 247.461C 363.553 247.461 363.435 246.948 363.435 245.063C 363.435 243.066 363.312 242.589 362.696 242.204C 362.29 241.95 361.958 241.534 361.958 241.278C 361.958 241.022 361.708 240.813 361.404 240.813C 361.096 240.813 360.849 240.484 360.849 240.074C 360.849 239.581 360.603 239.335 360.111 239.335C 359.618 239.335 359.372 239.089 359.372 238.596C 359.372 238.104 359.126 237.858 358.633 237.858C 358.223 237.858 357.895 237.612 357.895 237.304C 357.895 236.999 357.645 236.75 357.341 236.75C 357.033 236.75 356.787 236.421 356.787 236.011C 356.787 235.519 356.54 235.272 356.048 235.272C 355.638 235.272 355.309 235.026 355.309 234.718C 355.309 234.411 354.981 234.164 354.571 234.164C 354.078 234.164 353.832 233.918 353.832 233.426C 353.832 232.786 353.586 232.687 351.998 232.687C 350.564 232.687 350.081 232.531 349.783 231.974C 349.217 230.916 333.475 230.8 332.32 231.845C 331.187 232.87 68.813 232.87 67.68 231.845C 66.526 230.801 50.789 230.917 50.129 231.974M35.457 291.524L35.457 319.391L36.611 319.621C 37.246 319.748 110.771 319.852 200 319.852C 289.229 319.852 362.754 319.748 363.389 319.621L363.389 319.621L364.543 319.391L364.543 291.551C 364.543 268.002 364.464 263.712 364.028 263.712C 363.26 263.712 363.066 264.564 363.066 267.933C 363.066 270.456 362.937 271.134 362.327 271.837C 361.921 272.306 361.588 273.018 361.588 273.419C 361.588 274.572 359.699 279.948 358.509 282.179C 357.913 283.296 357.082 284.875 356.661 285.688C 352.564 293.598 341.795 302.332 332.779 305.055C 331.256 305.515 329.383 306.124 328.617 306.409C 327.851 306.693 326.729 306.925 326.124 306.925C 325.519 306.925 323.486 307.196 321.607 307.526C 313.094 309.025 297.477 304.677 290.295 298.81C 287.221 296.3 281.623 290.505 280.303 288.468C 279.333 286.972 278.145 285.88 277.971 286.326C 277.476 287.592 275.458 290.098 271.11 294.847C 269.566 296.533 265.936 299.544 264.265 300.525C 261.584 302.1 256.907 304.296 255.032 304.861C 253.813 305.229 251.982 305.843 250.962 306.227C 249.943 306.611 248.572 306.925 247.915 306.925C 247.259 306.925 245.185 307.196 243.306 307.526C 234.726 309.036 217.628 304.199 211.634 298.566C 210.72 297.707 209.328 296.495 208.54 295.873C 206.177 294.008 202.349 289.513 201.36 287.442C 200.664 285.986 199.276 285.773 198.946 287.073C 198.829 287.53 198.271 288.411 197.705 289.03C 197.139 289.65 195.942 291.063 195.045 292.17C 188.261 300.544 177.763 305.919 165.097 307.504C 160.465 308.083 159.868 308.085 156.694 307.526C 154.815 307.196 152.741 306.925 152.085 306.925C 151.428 306.925 150.057 306.611 149.038 306.227C 148.018 305.843 146.187 305.227 144.968 304.856C 142.809 304.201 135.227 300.361 134.279 299.443C 134.018 299.191 132.826 298.156 131.63 297.144C 127.51 293.656 123.779 289.598 122.711 287.442C 122.384 286.782 122.022 286.247 121.908 286.254C 121.577 286.272 120.625 287.128 120.222 287.769C 118.637 290.289 114.014 295.331 110.588 298.278C 106.996 301.367 94.487 306.936 91.172 306.922C 90.695 306.92 88.534 307.199 86.369 307.542C 82.679 308.126 82.195 308.127 78.613 307.544C 76.511 307.202 74.319 306.923 73.74 306.924C 70.796 306.927 58.357 301.654 55.916 299.367C 55.691 299.157 54.177 297.855 52.552 296.475C 45.675 290.635 38.412 278.58 38.412 273.005C 38.412 272.7 38.121 272.129 37.765 271.737C 37.278 271.2 37.074 270.15 36.934 267.465C 36.778 264.454 36.65 263.885 36.103 263.781C 35.492 263.664 35.457 265.184 35.457 291.524" stroke="none" fill="#B06E43" fill-rule="nonzero" />
    <path transform="matrix(1 0 0 0.9990975 0 1.524502E-05)"  d="M102.182 62.862C 102.039 63.409 102.238 63.527 103.306 63.527C 104.327 63.527 104.557 63.405 104.384 62.954C 104.257 62.625 104.319 62.477 104.529 62.606C 104.73 62.731 104.894 62.651 104.894 62.429C 104.894 61.719 102.376 62.121 102.182 62.862M295.476 62.862C 295.476 63.376 295.77 63.527 296.768 63.527C 297.479 63.527 298.058 63.403 298.055 63.25C 298.031 62.069 295.476 61.684 295.476 62.862M265.84 64.081C 265.719 64.488 265.514 65.603 265.384 66.56C 262.768 85.836 241.988 99.063 223.632 93.137C 212.48 89.537 202.783 79.354 201.117 69.492C 200.694 66.988 199.475 67.444 198.816 70.352C 198.542 71.567 198.155 72.722 197.958 72.919C 197.761 73.117 197.599 73.54 197.599 73.861C 197.599 74.801 193.543 80.998 191.136 83.737C 181.118 95.132 165.49 97.775 151.431 90.45C 142.999 86.056 135.873 75.776 134.598 66.167C 134.205 63.199 133.351 64.507 133.337 68.099C 133.33 70.128 130.746 76.347 128.305 80.215C 125.458 84.724 115.701 92.336 112.768 92.336C 112.494 92.336 111.982 92.493 111.629 92.684C 108.711 94.266 101.465 94.864 95.199 94.039L95.199 94.039L92.705 93.711L92.705 106.673L92.705 119.634L100.41 119.61C 107.473 119.589 108.261 119.652 109.875 120.366C 110.844 120.794 112.102 121.145 112.671 121.145C 113.24 121.145 113.925 121.353 114.193 121.607C 114.462 121.861 115.263 122.353 115.974 122.702C 118.463 123.921 121.112 125.542 122.299 126.571C 125.001 128.911 128.52 132.827 129.291 134.349C 129.574 134.908 130.1 135.761 130.461 136.246C 130.822 136.73 131.117 137.416 131.117 137.77C 131.117 138.124 131.354 138.61 131.642 138.85C 131.931 139.089 132.284 139.982 132.427 140.834C 132.57 141.685 132.916 142.71 133.195 143.111C 133.474 143.511 133.703 144.726 133.703 145.81C 133.703 147.03 133.843 147.694 134.072 147.553C 134.275 147.428 134.441 146.682 134.441 145.896C 134.441 145.11 134.671 144.237 134.951 143.957C 135.231 143.677 135.576 142.765 135.717 141.93C 135.958 140.501 137.86 136.385 139.449 133.852C 141.613 130.403 146.278 126.161 150.779 123.548C 153.307 122.081 155.295 121.145 155.884 121.145C 156.264 121.145 157.453 120.797 158.527 120.371C 161.167 119.325 173.515 119.206 175.518 120.207C 176.185 120.541 177.442 120.911 178.311 121.031C 179.18 121.15 179.981 121.394 180.091 121.571C 180.201 121.749 180.819 122.148 181.466 122.457C 184.307 123.815 185.54 124.636 188.63 127.232C 188.877 127.439 189.292 127.788 189.553 128.007C 189.814 128.226 190.859 129.371 191.874 130.551C 192.89 131.731 193.969 132.951 194.273 133.263C 194.846 133.852 195.394 134.715 196.192 136.288C 196.45 136.796 196.872 137.344 197.13 137.507C 197.388 137.669 197.599 138.172 197.599 138.625C 197.599 139.078 197.857 139.816 198.172 140.266C 198.487 140.715 198.865 141.791 199.012 142.656C 199.349 144.64 200.923 145.261 200.923 143.409C 200.923 142.829 201.256 141.702 201.662 140.905C 202.068 140.108 202.401 139.169 202.401 138.817C 202.401 138.466 202.551 138.085 202.735 137.972C 202.919 137.858 203.562 136.893 204.164 135.826C 206.316 132.015 212.717 125.507 216.06 123.73C 216.634 123.426 217.913 122.745 218.903 122.217C 219.893 121.69 221.358 121.135 222.158 120.985C 222.958 120.835 224.099 120.461 224.694 120.153C 226.568 119.184 239.403 119.344 241.643 120.364C 242.586 120.793 243.706 121.145 244.131 121.145C 244.961 121.145 250.518 123.99 250.723 124.52C 250.791 124.695 251.025 124.838 251.244 124.838C 251.696 124.838 255.553 127.625 256.194 128.416C 256.427 128.702 257.424 129.863 258.41 130.994C 261.048 134.019 263.933 139.278 264.354 141.828C 264.472 142.539 264.777 143.453 265.033 143.86C 265.29 144.266 265.631 145.596 265.793 146.814L265.793 146.814L266.086 149.03L266.332 146.167C 266.467 144.592 266.757 143.088 266.975 142.825C 267.194 142.561 267.485 141.644 267.622 140.786C 267.76 139.928 268.019 139.136 268.198 139.025C 268.378 138.914 268.77 138.294 269.07 137.648C 270.149 135.322 271.68 132.969 273.162 131.362C 273.993 130.461 274.991 129.332 275.38 128.851C 276.771 127.136 283.819 122.253 284.905 122.253C 285.06 122.253 285.436 122.004 285.741 121.699C 286.045 121.394 286.791 121.145 287.397 121.145C 288.003 121.145 289.268 120.794 290.208 120.366C 291.779 119.651 292.544 119.589 299.606 119.61L299.606 119.61L307.295 119.634L307.295 106.681L307.295 93.727L304.801 94.047C 289.396 96.025 276.273 89.493 269.677 76.563C 268.162 73.594 266.667 68.929 266.63 67.058C 266.581 64.603 266.158 63.007 265.84 64.081M94.429 67.836C 93.955 68.311 94.182 69.045 94.737 68.832C 95.042 68.715 95.291 68.388 95.291 68.105C 95.291 67.562 94.843 67.422 94.429 67.836M304.709 68.113C 304.709 68.435 304.972 68.698 305.294 68.698C 305.616 68.698 305.813 68.501 305.733 68.259C 305.504 67.575 304.709 67.461 304.709 68.113M92.952 143.921C 92.816 144.057 92.705 145.469 92.705 147.061L92.705 147.061L92.705 149.954L85.411 150.01C 76.367 150.08 77.042 150.018 76.894 150.786C 76.781 151.37 76.162 151.508 74.046 151.424C 73.941 151.419 73.494 151.752 73.053 152.162C 72.613 152.573 72.117 152.909 71.953 152.909C 71.788 152.909 71.653 153.158 71.653 153.463C 71.653 153.767 71.388 154.017 71.064 154.017C 70.74 154.017 70.389 154.349 70.282 154.755C 70.176 155.162 69.969 155.494 69.822 155.494C 69.415 155.494 68.698 157.263 68.698 158.268C 68.698 158.777 68.387 159.328 67.975 159.548C 67.265 159.929 67.254 160.535 67.329 195.665L67.329 195.665L67.405 231.394L200 231.394L332.595 231.394L332.595 195.884C 332.595 163.726 332.538 160.308 331.998 159.688C 331.67 159.311 331.3 158.338 331.176 157.527C 331.051 156.715 330.696 155.865 330.387 155.639C 330.078 155.413 329.825 155.044 329.825 154.82C 329.825 154.596 329.487 154.232 329.076 154.011C 328.664 153.791 328.424 153.452 328.543 153.259C 328.663 153.066 328.527 152.909 328.242 152.909C 327.956 152.909 327.422 152.576 327.054 152.17C 326.585 151.651 325.917 151.431 324.808 151.431C 323.6 151.431 323.201 151.28 323.106 150.786C 322.958 150.018 323.633 150.08 314.589 150.01L314.589 150.01L307.295 149.954L307.295 146.814C 307.295 143.468 306.541 142.494 305.51 144.506C 304.765 145.959 304.179 146.757 303.285 147.535C 302.807 147.951 302.101 148.583 301.716 148.938C 301.331 149.294 300.904 149.584 300.768 149.584C 300.631 149.584 300.257 149.82 299.937 150.108C 298.577 151.329 267.19 152.207 266.471 151.044C 266.304 150.774 266.09 150.774 265.763 151.046C 265.078 151.614 107.364 151.574 103.535 151.005C 100.653 150.576 96.952 148.389 95.874 146.477C 95.655 146.089 95.185 145.466 94.829 145.092C 94.474 144.719 94.183 144.247 94.183 144.044C 94.183 143.629 93.329 143.544 92.952 143.921M89.012 170.004C 90.911 170.685 91.367 171.036 92.458 172.662L92.458 172.662L93.444 174.133L93.438 194.823L93.432 215.512L92.606 216.99C 90.432 220.875 85.001 221.09 81.994 217.411L81.994 217.411L81.071 216.281L81.071 194.759L81.071 173.237L82.179 172.151C 84.624 169.755 86.593 169.137 89.012 170.004M114.86 170.375C 115.823 170.85 116.939 171.81 117.526 172.669L117.526 172.669L118.535 174.146L118.547 194.727L118.56 215.308L117.682 216.888C 114.958 221.79 108.031 220.882 106.205 215.382C 105.292 212.633 105.492 175.105 106.428 173.407C 108.293 170.026 111.68 168.809 114.86 170.375M139.658 170.252C 140.791 170.758 141.661 171.546 142.567 172.887L142.567 172.887L143.86 174.8L143.965 194.233C 144.081 215.665 144.155 214.477 142.566 216.876C 139.498 221.506 133.756 220.925 131.467 215.752C 130.301 213.115 130.358 176.173 131.533 173.871C 133.339 170.329 136.591 168.881 139.658 170.252M164.434 170.19C 166.401 170.937 167.989 172.832 168.713 175.297C 169.339 177.427 169.347 212.192 168.722 214.362C 168.213 216.132 166.288 219.021 165.619 219.021C 165.366 219.021 165.103 219.185 165.035 219.386C 164.398 221.272 158.688 219.567 157.01 216.99L157.01 216.99L156.048 215.512L155.943 195.448C 155.82 171.737 155.587 173.145 160.111 170.284C 161.523 169.391 162.287 169.374 164.434 170.19M189.926 170.261C 191.562 170.874 192.034 171.269 192.802 172.676L192.802 172.676L193.721 174.359L193.721 194.829L193.721 215.299L192.846 216.902C 190.636 220.947 185.049 221.102 182.164 217.199L182.164 217.199L181.348 216.096L181.348 194.857L181.348 173.618L182.512 172.292C 184.857 169.622 186.796 169.09 189.926 170.261M215.177 170.323C 216.243 170.823 217.194 171.638 217.758 172.531L217.758 172.531L218.652 173.947L218.652 194.841C 218.652 215.709 218.651 215.737 217.838 217.15C 214.918 222.224 207.308 220.485 206.45 214.548C 206.003 211.456 206.008 178.172 206.456 175.072C 207.089 170.692 211.199 168.453 215.177 170.323M239.912 170.261C 244.362 172.501 244.138 171.194 244.13 194.873L244.13 194.873L244.123 215.143L243.005 216.923C 240.001 221.708 233.484 220.806 231.7 215.358C 231.125 213.604 231.034 177.4 231.598 174.772C 232.431 170.89 236.632 168.61 239.912 170.261M264.683 170.122C 266.028 170.679 267.764 172.372 268.777 174.113C 269.635 175.588 269.424 214.283 268.549 215.989C 265.748 221.451 259.482 221.382 256.837 215.859C 255.681 213.446 255.769 175.944 256.935 173.777C 258.829 170.258 261.72 168.894 264.683 170.122M290.163 170.284C 291.388 170.797 292.322 171.538 293.075 172.593L293.075 172.593L294.183 174.146L294.298 193.906C 294.421 215.007 294.377 215.623 292.612 217.724C 289.696 221.196 284.072 220.566 282.188 216.557C 281.099 214.239 281.045 175.316 282.128 173.284C 283.741 170.258 287.103 169.003 290.163 170.284M315.156 170.201C 316.387 170.668 317.227 171.312 317.926 172.324L317.926 172.324L318.929 173.777L318.929 194.856L318.929 215.936L318.006 217.315C 315.617 220.882 310.365 220.909 307.599 217.369L307.599 217.369L306.741 216.27L306.637 195.187L306.533 174.104L307.672 172.532C 309.604 169.864 312.167 169.066 315.156 170.201M42.844 256.597C 42.539 256.687 41.766 256.995 41.126 257.281C 40.486 257.568 39.78 257.802 39.556 257.802C 39.333 257.802 39.151 257.986 39.151 258.211C 39.151 258.435 38.714 259.138 38.18 259.772C 37.063 261.1 37.07 264.824 38.194 267.474C 38.512 268.224 38.882 270.025 39.017 271.478C 39.161 273.021 39.451 274.192 39.716 274.294C 39.965 274.389 40.282 275.315 40.419 276.351C 40.557 277.387 40.909 278.578 41.202 278.997C 41.496 279.415 41.736 280.033 41.736 280.369C 41.736 280.706 41.975 281.179 42.266 281.421C 42.558 281.663 42.9 282.334 43.027 282.912C 43.154 283.491 43.498 284.056 43.79 284.168C 44.082 284.28 44.321 284.784 44.321 285.289C 44.321 285.793 44.53 286.338 44.784 286.501C 45.039 286.663 45.745 287.537 46.354 288.443C 46.963 289.349 47.959 290.632 48.569 291.295C 49.178 291.957 49.867 292.712 50.1 292.972C 51.018 293.997 54.343 296.953 54.588 296.963C 54.731 296.968 55.568 297.633 56.449 298.44C 57.33 299.247 58.265 299.908 58.528 299.908C 58.79 299.908 59.212 300.157 59.464 300.462C 59.717 300.766 60.216 301.016 60.572 301.016C 60.929 301.016 61.419 301.254 61.661 301.546C 61.903 301.838 62.574 302.18 63.153 302.307C 63.731 302.434 64.296 302.777 64.408 303.07C 64.524 303.37 65.099 303.601 65.733 303.601C 66.35 303.601 67.474 303.934 68.232 304.34C 68.99 304.746 70.098 305.078 70.695 305.078C 71.291 305.078 72.092 305.362 72.475 305.708C 73.523 306.656 91.557 306.649 92.506 305.7C 92.848 305.358 93.656 305.077 94.302 305.076C 94.947 305.075 95.974 304.743 96.584 304.34C 97.193 303.936 98.218 303.605 98.861 303.604C 99.504 303.602 100.086 303.471 100.154 303.312C 100.222 303.154 101.274 302.553 102.493 301.979C 103.712 301.404 104.958 300.78 105.263 300.592C 105.568 300.404 106.274 300.054 106.833 299.813C 107.392 299.573 107.849 299.269 107.849 299.138C 107.849 299.007 108.555 298.426 109.418 297.846C 111.22 296.636 111.483 296.42 113.808 294.237C 114.75 293.354 115.627 292.293 115.758 291.88C 115.889 291.467 116.806 290.272 117.796 289.223C 118.786 288.174 119.7 286.902 119.827 286.396C 120.377 284.206 122.151 284.439 123.566 286.888C 124.79 289.007 124.771 288.984 128.604 292.816C 133.055 297.265 134.338 298.43 134.784 298.43C 135.002 298.43 135.18 298.594 135.18 298.795C 135.18 298.995 135.741 299.394 136.428 299.68C 137.114 299.967 137.788 300.385 137.927 300.609C 138.065 300.833 138.433 301.016 138.745 301.016C 139.056 301.016 139.734 301.348 140.25 301.754C 140.767 302.161 141.481 302.493 141.839 302.493C 142.196 302.493 142.584 302.742 142.701 303.047C 142.829 303.383 143.39 303.602 144.125 303.604C 144.792 303.605 145.836 303.936 146.445 304.34C 147.054 304.743 148.156 305.075 148.893 305.076C 149.63 305.077 150.418 305.302 150.645 305.576C 150.988 305.989 156.836 306.611 160.665 306.641C 164.089 306.669 170.71 305.99 171.053 305.576C 171.28 305.302 172.043 305.078 172.748 305.078C 173.47 305.078 174.439 304.756 174.968 304.34C 175.485 303.934 176.447 303.601 177.105 303.601C 177.764 303.601 178.51 303.352 178.763 303.047C 179.016 302.742 179.509 302.493 179.859 302.493C 180.21 302.493 180.88 302.161 181.348 301.754C 181.817 301.348 182.497 301.016 182.86 301.016C 183.223 301.016 183.625 300.847 183.752 300.641C 183.88 300.435 184.513 300.039 185.159 299.761C 185.805 299.483 186.999 298.642 187.812 297.891C 188.624 297.141 189.705 296.252 190.212 295.918C 190.72 295.583 191.269 295.097 191.431 294.838C 191.594 294.579 191.951 294.367 192.226 294.367C 192.501 294.367 192.885 293.91 193.08 293.352C 193.275 292.793 193.956 291.778 194.594 291.097C 195.231 290.415 195.753 289.8 195.753 289.731C 195.753 289.661 196.185 289.138 196.714 288.569C 197.244 288 197.951 286.953 198.287 286.242C 199.117 284.486 200.83 284.389 201.628 286.054C 201.919 286.662 202.378 287.38 202.648 287.65C 202.918 287.92 203.139 288.259 203.139 288.402C 203.139 288.545 203.596 289.166 204.155 289.781C 205.736 291.522 207.202 293.54 207.202 293.974C 207.202 294.19 207.361 294.367 207.555 294.367C 208.136 294.367 210.596 296.15 212.428 297.899C 213.372 298.801 214.306 299.538 214.502 299.538C 214.698 299.538 215.255 299.845 215.74 300.221C 216.224 300.596 217.078 301.015 217.636 301.151C 218.195 301.288 218.652 301.555 218.652 301.745C 218.652 301.935 219.222 302.197 219.919 302.328C 220.616 302.459 221.276 302.799 221.385 303.083C 221.494 303.368 222.048 303.601 222.616 303.601C 223.184 303.601 224.269 303.934 225.027 304.34C 225.785 304.746 226.884 305.078 227.47 305.078C 228.055 305.078 228.719 305.302 228.946 305.575C 229.289 305.988 235.462 306.618 239.335 306.635C 242.761 306.65 249.012 305.989 249.355 305.576C 249.582 305.302 250.29 305.078 250.928 305.078C 251.566 305.078 252.709 304.746 253.467 304.34C 254.225 303.934 255.349 303.601 255.966 303.601C 256.622 303.601 257.175 303.371 257.299 303.047C 257.416 302.742 257.804 302.493 258.161 302.493C 258.519 302.493 259.233 302.161 259.75 301.754C 260.266 301.348 260.954 301.016 261.277 301.016C 261.601 301.016 262.198 300.683 262.604 300.277C 263.01 299.871 263.675 299.538 264.081 299.538C 264.488 299.538 264.82 299.367 264.82 299.157C 264.82 298.948 265.107 298.666 265.457 298.532C 266.195 298.249 274.423 290.107 274.423 289.66C 274.423 289.495 274.714 289.1 275.069 288.782C 275.806 288.123 276.456 287.208 277.137 285.873C 277.829 284.516 280.332 285.001 280.332 286.492C 280.332 286.782 281.247 288.151 282.364 289.534C 283.481 290.917 284.395 292.147 284.395 292.268C 284.395 292.627 286.246 294.367 286.628 294.367C 286.822 294.367 286.981 294.526 286.981 294.719C 286.981 294.912 287.769 295.613 288.734 296.277C 289.698 296.94 290.903 297.908 291.411 298.428C 291.92 298.948 292.876 299.597 293.536 299.87C 294.197 300.143 294.737 300.513 294.737 300.691C 294.737 300.87 295.085 301.016 295.51 301.016C 295.935 301.016 296.705 301.348 297.221 301.754C 297.738 302.161 298.476 302.493 298.861 302.493C 299.246 302.493 299.657 302.742 299.774 303.047C 299.891 303.352 300.428 303.601 300.968 303.601C 301.508 303.601 302.57 303.934 303.328 304.34C 304.086 304.746 305.194 305.078 305.789 305.078C 306.385 305.078 307.152 305.358 307.494 305.7C 308.443 306.649 326.477 306.656 327.525 305.708C 327.908 305.362 328.709 305.078 329.305 305.078C 329.902 305.078 331.01 304.746 331.768 304.34C 332.526 303.934 333.65 303.601 334.267 303.601C 334.901 303.601 335.476 303.37 335.592 303.07C 335.704 302.777 336.269 302.434 336.847 302.307C 337.426 302.18 338.097 301.838 338.339 301.546C 338.581 301.254 339.071 301.016 339.428 301.016C 339.784 301.016 340.283 300.766 340.536 300.462C 340.788 300.157 341.204 299.908 341.46 299.908C 341.985 299.908 346.194 296.734 346.384 296.196C 346.451 296.003 346.667 295.845 346.863 295.845C 347.059 295.845 347.949 295.055 348.841 294.09C 349.733 293.126 350.693 292.087 350.975 291.782C 352.575 290.051 355.679 285.836 355.679 285.395C 355.679 285.11 356.011 284.494 356.417 284.026C 356.824 283.557 357.156 282.862 357.156 282.48C 357.156 282.099 357.405 281.691 357.71 281.574C 358.015 281.457 358.264 281.046 358.264 280.661C 358.264 280.276 358.596 279.34 359.003 278.582C 359.409 277.824 359.741 276.781 359.741 276.265C 359.741 275.748 359.97 274.998 360.249 274.597C 360.528 274.197 360.943 272.474 361.172 270.768C 361.4 269.063 361.769 267.448 361.991 267.181C 362.987 265.98 362.872 260.833 361.825 259.786C 361.289 259.249 360.849 258.583 360.849 258.306C 360.849 258.029 360.642 257.801 360.388 257.8C 360.134 257.799 359.442 257.545 358.851 257.237C 357.362 256.46 356.328 256.437 354.884 257.147C 354.204 257.482 353.356 257.844 353.001 257.952C 352.645 258.06 352.355 258.474 352.355 258.872C 352.355 259.271 352.129 259.822 351.854 260.097C 351.539 260.412 351.252 262.029 351.079 264.459C 350.929 266.582 350.572 268.77 350.287 269.321C 350.002 269.872 349.764 270.872 349.757 271.542C 349.75 272.212 349.423 273.426 349.03 274.238C 348.638 275.051 348.311 276.012 348.304 276.374C 348.297 276.735 348.042 277.127 347.738 277.244C 347.433 277.361 347.184 277.749 347.184 278.106C 347.184 278.463 346.851 279.178 346.445 279.695C 346.039 280.211 345.706 280.746 345.706 280.884C 345.706 281.911 336.737 290.404 334.744 291.264C 334.097 291.543 333.464 291.94 333.337 292.146C 333.209 292.352 332.803 292.521 332.433 292.521C 332.064 292.521 331.569 292.753 331.334 293.036C 331.099 293.32 330.297 293.666 329.553 293.805C 328.809 293.945 327.864 294.295 327.453 294.583C 327.042 294.871 326.036 295.108 325.218 295.11C 324.4 295.112 322.914 295.362 321.917 295.664C 320.92 295.967 318.994 296.214 317.636 296.214C 316.279 296.214 314.352 295.967 313.355 295.664C 312.358 295.362 310.903 295.112 310.122 295.11C 309.34 295.108 308.26 294.862 307.721 294.563C 307.182 294.264 306.034 293.842 305.171 293.625C 304.307 293.408 303.601 293.071 303.601 292.876C 303.601 292.681 303.291 292.521 302.912 292.521C 302.533 292.521 301.801 292.188 301.284 291.782C 300.768 291.376 300.118 291.043 299.841 291.043C 299.564 291.043 298.355 290.129 297.154 289.012C 295.954 287.895 294.836 286.981 294.669 286.981C 294.503 286.981 294.367 286.828 294.367 286.641C 294.367 286.453 293.744 285.655 292.982 284.867C 290.53 282.33 289.511 281.031 288.985 279.77C 288.701 279.091 288.3 278.432 288.094 278.304C 287.888 278.177 287.719 277.818 287.719 277.506C 287.719 277.195 287.387 276.518 286.981 276.001C 286.574 275.485 286.242 274.574 286.242 273.977C 286.242 273.381 286.005 272.655 285.715 272.365C 285.424 272.075 285.081 270.882 284.952 269.714C 284.823 268.546 284.568 266.759 284.387 265.743C 284.206 264.728 283.946 262.92 283.809 261.726C 283.316 257.427 279.769 255.368 275.933 257.156C 273.385 258.344 272.687 260.025 272.515 265.395C 272.416 268.49 272.229 269.718 271.742 270.461C 271.388 271.001 271.099 272.016 271.099 272.718C 271.099 274.061 269.461 277.747 268.863 277.747C 268.671 277.747 268.513 278.081 268.513 278.489C 268.513 278.898 268.181 279.516 267.775 279.864C 267.368 280.212 267.036 280.714 267.036 280.98C 267.036 281.246 266.787 281.559 266.482 281.676C 266.177 281.793 265.928 282.047 265.928 282.24C 265.928 283.42 258.692 290.286 256.462 291.222C 255.827 291.488 255.194 291.89 255.056 292.114C 254.917 292.338 254.502 292.521 254.132 292.521C 253.763 292.521 253.265 292.757 253.025 293.046C 252.785 293.335 251.902 293.687 251.062 293.829C 250.222 293.971 249.306 294.316 249.026 294.597C 248.74 294.883 247.758 295.109 246.788 295.112C 245.838 295.115 244.395 295.357 243.583 295.65C 241.644 296.348 237.806 296.353 235.147 295.66C 233.977 295.355 232.401 295.106 231.643 295.106C 230.886 295.106 229.918 294.862 229.492 294.564C 229.066 294.266 228.018 293.91 227.162 293.773C 226.306 293.636 225.519 293.298 225.414 293.023C 225.308 292.747 224.929 292.521 224.572 292.521C 224.215 292.521 223.5 292.188 222.983 291.782C 222.467 291.376 221.813 291.043 221.531 291.043C 220.248 291.043 212.37 283.127 211.554 281.018C 211.408 280.641 211.135 280.332 210.948 280.332C 210.76 280.332 210.492 279.876 210.352 279.319C 210.212 278.761 209.944 278.121 209.757 277.895C 208.917 276.882 207.572 273.93 207.572 273.098C 207.572 272.593 207.291 271.752 206.947 271.228C 206.482 270.518 206.282 269.182 206.161 265.978C 206.056 263.175 205.823 261.427 205.493 260.952C 205.214 260.551 204.986 260 204.986 259.727C 204.986 258.894 202.456 256.787 201.165 256.545C 199.76 256.281 197.599 256.631 197.599 257.121C 197.599 257.306 197.308 257.559 196.953 257.685C 195.848 258.077 195.014 258.991 195.014 259.809C 195.014 260.24 194.784 260.921 194.503 261.323C 194.161 261.81 193.946 263.484 193.855 266.354C 193.746 269.796 193.589 270.797 193.073 271.368C 192.719 271.76 192.428 272.511 192.428 273.037C 192.428 274.028 190.827 277.552 190.2 277.939C 190.004 278.061 189.843 278.457 189.843 278.82C 189.843 279.184 189.511 279.864 189.104 280.332C 188.698 280.801 188.366 281.411 188.366 281.688C 188.366 282.529 179.806 290.705 178.693 290.928C 178.143 291.038 177.409 291.442 177.062 291.824C 176.716 292.207 176.146 292.521 175.796 292.521C 175.446 292.521 174.97 292.749 174.738 293.029C 174.506 293.308 173.638 293.645 172.81 293.778C 171.981 293.91 171.058 294.263 170.759 294.562C 170.436 294.885 169.511 295.108 168.487 295.11C 167.537 295.112 165.943 295.362 164.946 295.664C 163.949 295.967 162.105 296.214 160.849 296.214C 159.594 296.214 157.75 295.967 156.753 295.664C 155.756 295.362 154.271 295.112 153.452 295.11C 152.634 295.108 151.617 294.862 151.191 294.564C 150.765 294.266 149.734 293.913 148.9 293.779C 148.065 293.646 147.193 293.308 146.961 293.029C 146.729 292.749 146.248 292.521 145.891 292.521C 145.535 292.521 145.041 292.278 144.795 291.981C 144.549 291.684 144.012 291.335 143.604 291.205C 141.679 290.595 139.07 288.334 136.167 284.765C 134.928 283.241 133.768 281.892 133.59 281.767C 133.261 281.536 132.63 280.518 131.786 278.855C 131.528 278.347 131.212 277.849 131.085 277.747C 130.288 277.114 128.901 273.676 128.901 272.333C 128.901 271.466 128.708 270.727 128.46 270.644C 127.99 270.487 127.485 266.553 127.447 262.741C 127.431 261.203 127.246 260.331 126.87 260.018C 126.565 259.766 126.309 259.288 126.3 258.958C 126.252 257.123 120.139 255.574 119.247 257.169C 119.052 257.517 118.726 257.802 118.524 257.802C 117.446 257.802 116.391 259.76 116.173 262.167C 116.05 263.525 115.788 265.236 115.592 265.971C 115.396 266.705 115.235 268.041 115.235 268.94C 115.235 269.844 114.906 271.22 114.497 272.022C 114.09 272.819 113.758 273.914 113.758 274.456C 113.758 274.997 113.517 275.64 113.223 275.885C 112.929 276.129 112.5 276.897 112.271 277.592C 112.042 278.287 111.722 278.855 111.56 278.855C 111.398 278.855 111.168 279.312 111.05 279.871C 110.932 280.429 110.039 281.796 109.065 282.907C 107.438 284.764 106.499 285.692 102.23 289.658C 101.41 290.42 100.454 291.043 100.104 291.043C 99.754 291.043 99.167 291.376 98.8 291.782C 98.432 292.188 97.759 292.521 97.305 292.521C 96.85 292.521 96.39 292.749 96.283 293.028C 96.176 293.308 95.341 293.648 94.427 293.785C 93.513 293.922 92.566 294.276 92.321 294.57C 92.051 294.896 91.206 295.108 90.167 295.11C 89.227 295.112 87.642 295.362 86.645 295.664C 84.323 296.368 80.404 296.368 78.083 295.664C 77.086 295.362 75.584 295.112 74.745 295.11C 73.868 295.108 73.032 294.879 72.776 294.57C 72.531 294.276 71.602 293.925 70.711 293.791C 69.82 293.658 68.899 293.317 68.665 293.035C 68.43 292.752 67.936 292.521 67.567 292.521C 67.197 292.521 66.782 292.338 66.643 292.114C 66.505 291.89 65.83 291.472 65.144 291.185C 64.458 290.899 63.897 290.5 63.897 290.3C 63.897 290.099 63.653 289.935 63.356 289.935C 63.058 289.935 62.637 289.603 62.419 289.197C 62.202 288.79 61.854 288.458 61.647 288.458C 60.494 288.458 52.816 279.405 52.816 278.045C 52.816 277.678 52.653 277.378 52.454 277.378C 52.255 277.378 51.986 276.921 51.856 276.362C 51.726 275.803 51.382 274.965 51.091 274.499C 50.8 274.033 50.464 272.786 50.345 271.729C 50.227 270.671 49.958 269.589 49.748 269.323C 49.538 269.057 49.234 267.015 49.073 264.785C 48.867 261.944 48.61 260.561 48.213 260.164C 47.901 259.852 47.645 259.193 47.645 258.699C 47.645 258.092 47.437 257.802 46.999 257.8C 46.644 257.799 45.937 257.582 45.429 257.319C 43.996 256.575 43.443 256.42 42.844 256.597" stroke="none" fill="#FBDF8B" fill-rule="nonzero" />
    <path transform="matrix(1 0 0 0.9990975 0 1.524502E-05)"  d="M120.659 18.874C 120.547 19.301 120.279 19.54 120.062 19.406C 119.845 19.272 119.668 19.332 119.668 19.539C 119.668 19.746 119.33 20.23 118.918 20.614C 118.506 20.998 118.132 21.821 118.087 22.444C 118.042 23.066 117.922 23.57 117.821 23.563C 117.032 23.51 116.834 23.868 116.761 25.485C 116.697 26.886 116.805 27.331 117.209 27.331C 117.79 27.331 118.19 28.097 118.19 29.208C 118.19 29.598 118.44 29.917 118.744 29.917C 119.052 29.917 119.298 30.245 119.298 30.656C 119.298 31.148 119.544 31.394 120.037 31.394C 120.447 31.394 120.776 31.641 120.776 31.948C 120.776 32.253 121.025 32.502 121.33 32.502C 121.637 32.502 121.884 32.831 121.884 33.241C 121.884 33.733 122.13 33.98 122.622 33.98C 123.115 33.98 123.361 34.226 123.361 34.718C 123.361 35.218 123.115 35.457 122.601 35.457C 122.182 35.457 121.931 35.604 122.042 35.785C 122.294 36.191 121.353 37.019 121.019 36.685C 120.885 36.551 120.776 36.802 120.776 37.242C 120.776 37.796 120.548 38.042 120.037 38.042C 119.544 38.042 119.298 38.289 119.298 38.781C 119.298 39.187 119.072 39.52 118.795 39.52C 118.438 39.52 118.22 40.319 118.042 42.278C 117.733 45.688 118.088 48.753 118.792 48.753C 119.07 48.753 119.298 49.003 119.298 49.307C 119.298 49.615 119.627 49.861 120.037 49.861C 120.529 49.861 120.776 50.108 120.776 50.6C 120.776 51.296 121.022 51.339 125.02 51.339C 128.864 51.339 129.308 51.269 129.726 50.6C 129.979 50.194 130.401 49.861 130.664 49.861C 130.926 49.861 131.236 49.612 131.353 49.307C 131.47 49.003 131.797 48.753 132.08 48.753C 132.363 48.753 132.595 48.421 132.595 48.015C 132.595 47.522 132.841 47.276 133.333 47.276C 133.744 47.276 134.072 47.03 134.072 46.722C 134.072 46.405 134.405 46.168 134.85 46.168C 135.39 46.168 135.563 46.338 135.416 46.722C 135.271 47.099 135.436 47.276 135.93 47.276C 136.411 47.276 136.657 47.526 136.657 48.015C 136.657 48.507 136.904 48.753 137.396 48.753C 137.807 48.753 138.135 49 138.135 49.307C 138.135 49.612 138.384 49.861 138.689 49.861C 138.997 49.861 139.243 50.19 139.243 50.6C 139.243 51.299 139.489 51.339 143.835 51.339C 148.102 51.339 148.443 51.287 148.661 50.6C 148.79 50.194 149.134 49.861 149.425 49.861C 149.783 49.861 149.954 49.445 149.954 48.569C 149.954 47.714 150.127 47.276 150.465 47.276C 151.1 47.276 151.42 46.14 151.426 43.86C 151.431 42.35 151.328 42.105 150.693 42.105C 150.095 42.105 149.954 41.859 149.954 40.813C 149.954 39.958 149.781 39.52 149.443 39.52C 149.162 39.52 148.845 39.187 148.739 38.781C 148.633 38.375 148.281 38.042 147.957 38.042C 147.615 38.042 147.368 37.733 147.368 37.304C 147.368 36.821 147.122 36.565 146.657 36.565C 145.915 36.565 145.558 35.734 145.823 34.626C 145.908 34.271 146.29 33.98 146.673 33.98C 147.122 33.98 147.368 33.718 147.368 33.241C 147.368 32.835 147.557 32.502 147.788 32.502C 148.179 32.502 149.923 30.852 149.944 30.462C 149.95 30.365 149.954 29.965 149.954 29.572C 149.954 29.176 150.292 28.751 150.716 28.617C 151.909 28.238 151.675 22.161 150.468 22.161C 150.185 22.161 149.954 21.828 149.954 21.422C 149.954 21.012 149.708 20.683 149.4 20.683C 149.095 20.683 148.846 20.418 148.846 20.095C 148.846 19.771 148.525 19.422 148.133 19.32C 147.74 19.217 147.33 18.9 147.221 18.615C 146.864 17.685 139.749 17.891 139.237 18.847C 139.017 19.259 138.679 19.498 138.486 19.379C 138.293 19.26 138.135 19.505 138.135 19.923C 138.135 20.437 137.896 20.683 137.396 20.683C 136.904 20.683 136.657 20.93 136.657 21.422C 136.657 21.927 136.411 22.161 135.879 22.161C 135.339 22.161 135.166 22.33 135.314 22.715C 135.481 23.15 135.212 23.269 134.06 23.269C 133.004 23.269 132.595 23.114 132.595 22.715C 132.595 22.41 132.345 22.161 132.041 22.161C 131.733 22.161 131.487 21.832 131.487 21.422C 131.487 20.93 131.24 20.683 130.748 20.683C 130.342 20.683 130.009 20.445 130.009 20.154C 130.009 19.863 129.677 19.52 129.271 19.391C 128.864 19.262 128.532 18.918 128.532 18.627C 128.532 17.641 120.919 17.88 120.659 18.874M164.611 18.874C 164.499 19.3 164.243 19.547 164.04 19.422C 163.838 19.297 163.566 19.53 163.437 19.939C 163.307 20.348 162.962 20.683 162.671 20.683C 162.315 20.683 162.142 21.097 162.142 21.951C 162.142 22.853 161.948 23.281 161.469 23.432C 160.404 23.771 160.327 27.331 161.385 27.331C 162.004 27.331 162.142 27.567 162.142 28.624C 162.142 29.527 162.309 29.917 162.696 29.917C 163.004 29.917 163.25 30.245 163.25 30.656C 163.25 31.148 163.496 31.394 163.989 31.394C 164.399 31.394 164.728 31.641 164.728 31.948C 164.728 32.262 165.059 32.502 165.491 32.502C 166.087 32.502 166.203 32.665 166.02 33.241C 165.837 33.817 165.954 33.98 166.549 33.98C 167.067 33.98 167.313 34.218 167.313 34.718C 167.313 35.125 167.075 35.457 166.784 35.457C 166.493 35.457 166.152 35.781 166.026 36.177C 165.888 36.612 165.586 36.816 165.263 36.691C 164.9 36.552 164.728 36.736 164.728 37.264C 164.728 37.796 164.494 38.042 163.989 38.042C 163.496 38.042 163.25 38.289 163.25 38.781C 163.25 39.192 163.004 39.52 162.696 39.52C 162.309 39.52 162.142 39.91 162.142 40.813C 162.142 41.859 162.001 42.105 161.404 42.105C 160.762 42.105 160.665 42.351 160.665 43.987C 160.665 45.557 160.787 45.9 161.404 46.061C 162.015 46.221 162.142 46.565 162.142 48.058C 162.142 49.377 162.284 49.861 162.671 49.861C 162.962 49.861 163.306 50.194 163.435 50.6C 163.652 51.285 163.994 51.339 168.077 51.339C 172.238 51.339 172.484 51.298 172.484 50.6C 172.484 50.108 172.73 49.861 173.223 49.861C 173.633 49.861 173.961 49.615 173.961 49.307C 173.961 49 174.29 48.753 174.7 48.753C 175.192 48.753 175.439 48.507 175.439 48.015C 175.439 47.604 175.685 47.276 175.993 47.276C 176.297 47.276 176.547 47.027 176.547 46.722C 176.547 46.322 176.957 46.168 178.024 46.168C 179.091 46.168 179.501 46.322 179.501 46.722C 179.501 47.027 179.751 47.276 180.055 47.276C 180.363 47.276 180.609 47.604 180.609 48.015C 180.609 48.507 180.856 48.753 181.348 48.753C 181.758 48.753 182.087 49 182.087 49.307C 182.087 49.612 182.325 49.861 182.616 49.861C 182.907 49.861 183.251 50.194 183.38 50.6C 183.597 51.284 183.938 51.339 187.996 51.339C 192.054 51.339 192.396 51.284 192.613 50.6C 192.742 50.194 193.086 49.861 193.377 49.861C 193.735 49.861 193.906 49.445 193.906 48.569C 193.906 47.71 194.079 47.276 194.42 47.276C 195.131 47.276 195.383 46.447 195.383 44.106C 195.383 42.351 195.292 42.105 194.645 42.105C 194.047 42.105 193.906 41.859 193.906 40.813C 193.906 39.91 193.739 39.52 193.352 39.52C 193.044 39.52 192.798 39.192 192.798 38.781C 192.798 38.289 192.552 38.042 192.059 38.042C 191.567 38.042 191.32 37.796 191.32 37.304C 191.32 36.811 191.074 36.565 190.582 36.565C 190.175 36.565 189.843 36.33 189.843 36.042C 189.843 35.754 189.635 35.435 189.381 35.332C 189.012 35.183 189.012 35.14 189.381 35.117C 189.635 35.101 189.843 34.858 189.843 34.577C 189.843 34.296 190.175 33.979 190.582 33.873C 190.988 33.766 191.32 33.415 191.32 33.091C 191.32 32.767 191.509 32.502 191.74 32.502C 192.482 32.502 193.906 30.647 193.906 29.679C 193.906 29.05 194.15 28.676 194.645 28.547C 195.888 28.221 195.675 22.161 194.42 22.161C 194.137 22.161 193.906 21.828 193.906 21.422C 193.906 21.012 193.66 20.683 193.352 20.683C 193.047 20.683 192.798 20.418 192.798 20.095C 192.798 19.771 192.465 19.419 192.059 19.313C 191.653 19.207 191.32 18.89 191.32 18.609C 191.32 17.671 183.699 17.894 183.189 18.847C 182.969 19.259 182.631 19.498 182.438 19.379C 182.245 19.26 182.087 19.505 182.087 19.923C 182.087 20.437 181.848 20.683 181.348 20.683C 180.856 20.683 180.609 20.93 180.609 21.422C 180.609 21.832 180.363 22.161 180.055 22.161C 179.751 22.161 179.501 22.41 179.501 22.715C 179.501 23.115 179.091 23.269 178.024 23.269C 176.957 23.269 176.547 23.115 176.547 22.715C 176.547 22.41 176.297 22.161 175.993 22.161C 175.685 22.161 175.439 21.832 175.439 21.422C 175.439 20.93 175.192 20.683 174.7 20.683C 174.207 20.683 173.961 20.437 173.961 19.945C 173.961 19.538 173.837 19.226 173.684 19.25C 172.922 19.37 172.484 19.152 172.484 18.652C 172.484 17.644 164.876 17.859 164.611 18.874M208.79 18.587C 208.628 18.857 208.194 19.188 207.825 19.323C 207.457 19.459 207.266 19.749 207.401 19.967C 207.536 20.186 207.308 20.452 206.891 20.561C 206.475 20.67 206.081 21.116 206.014 21.552C 205.947 21.988 205.7 22.308 205.466 22.262C 204.37 22.048 204.297 28.27 205.393 28.556C 205.872 28.682 206.096 29.073 206.101 29.79C 206.107 30.831 207.443 32.502 208.27 32.502C 208.495 32.502 208.68 32.835 208.68 33.241C 208.68 33.718 208.926 33.98 209.375 33.98C 209.758 33.98 210.14 34.271 210.225 34.626C 210.49 35.734 210.133 36.565 209.391 36.565C 208.926 36.565 208.68 36.821 208.68 37.304C 208.68 37.796 208.433 38.042 207.941 38.042C 207.535 38.042 207.222 38.167 207.246 38.319C 207.366 39.081 207.148 39.52 206.648 39.52C 206.261 39.52 206.094 39.91 206.094 40.813C 206.094 41.859 205.953 42.105 205.355 42.105C 204.691 42.105 204.617 42.351 204.617 44.541C 204.617 46.665 204.711 47.001 205.355 47.169C 205.911 47.314 206.094 47.673 206.094 48.612C 206.094 49.43 206.271 49.861 206.605 49.861C 206.886 49.861 207.203 50.194 207.309 50.6C 207.49 51.29 207.813 51.339 212.154 51.339C 216.559 51.339 216.805 51.3 216.805 50.6C 216.805 50.19 217.051 49.861 217.359 49.861C 217.664 49.861 217.913 49.612 217.913 49.307C 217.913 49 218.242 48.753 218.652 48.753C 219.144 48.753 219.391 48.507 219.391 48.015C 219.391 47.604 219.637 47.276 219.945 47.276C 220.249 47.276 220.499 47.046 220.499 46.765C 220.499 46.224 221.725 45.865 222.807 46.089C 223.163 46.162 223.453 46.459 223.453 46.749C 223.453 47.039 223.703 47.276 224.007 47.276C 224.315 47.276 224.561 47.604 224.561 48.015C 224.561 48.507 224.808 48.753 225.3 48.753C 225.71 48.753 226.039 49 226.039 49.307C 226.039 49.615 226.367 49.861 226.777 49.861C 227.27 49.861 227.516 50.108 227.516 50.6C 227.516 51.298 227.762 51.339 231.983 51.339C 236.139 51.339 236.463 51.288 236.643 50.6C 236.749 50.194 237.057 49.861 237.328 49.861C 237.66 49.861 237.855 49.235 237.931 47.922C 238.013 46.495 238.189 45.983 238.596 45.983C 239.004 45.983 239.18 45.472 239.262 44.044C 239.363 42.299 239.298 42.105 238.616 42.105C 237.996 42.105 237.858 41.87 237.858 40.813C 237.858 39.958 237.685 39.52 237.347 39.52C 237.066 39.52 236.749 39.187 236.643 38.781C 236.537 38.375 236.185 38.042 235.861 38.042C 235.513 38.042 235.272 37.732 235.272 37.282C 235.272 36.864 235.115 36.619 234.922 36.738C 234.729 36.858 234.39 36.618 234.17 36.206C 233.949 35.794 233.526 35.457 233.228 35.457C 232.93 35.457 232.687 35.125 232.687 34.718C 232.687 34.226 232.933 33.98 233.426 33.98C 233.918 33.98 234.164 33.733 234.164 33.241C 234.164 32.831 234.411 32.502 234.718 32.502C 235.023 32.502 235.272 32.253 235.272 31.948C 235.272 31.641 235.601 31.394 236.011 31.394C 236.504 31.394 236.75 31.148 236.75 30.656C 236.75 30.245 236.996 29.917 237.304 29.917C 237.691 29.917 237.858 29.527 237.858 28.624C 237.858 27.578 237.999 27.331 238.596 27.331C 239.237 27.331 239.335 27.085 239.335 25.485C 239.335 23.754 239.134 23.437 238.135 23.594C 237.982 23.618 237.858 23.065 237.858 22.364C 237.858 21.663 237.638 20.956 237.368 20.794C 237.099 20.632 236.772 20.208 236.641 19.852C 236.511 19.497 236.149 19.206 235.838 19.206C 235.527 19.206 235.272 18.957 235.272 18.652C 235.272 18.195 234.595 18.098 231.394 18.098C 228.193 18.098 227.516 18.195 227.516 18.652C 227.516 19.152 227.078 19.37 226.316 19.25C 226.163 19.226 226.039 19.538 226.039 19.945C 226.039 20.437 225.793 20.683 225.3 20.683C 224.808 20.683 224.561 20.93 224.561 21.422C 224.561 21.832 224.315 22.161 224.007 22.161C 223.703 22.161 223.453 22.41 223.453 22.715C 223.453 23.115 223.043 23.269 221.976 23.269C 220.909 23.269 220.499 23.115 220.499 22.715C 220.499 22.41 220.249 22.161 219.945 22.161C 219.637 22.161 219.391 21.832 219.391 21.422C 219.391 20.93 219.144 20.683 218.652 20.683C 218.152 20.683 217.913 20.437 217.913 19.923C 217.913 19.505 217.755 19.26 217.562 19.379C 217.369 19.498 217.031 19.259 216.811 18.847C 216.312 17.915 209.332 17.689 208.79 18.587M252.632 18.652C 252.632 18.957 252.382 19.206 252.078 19.206C 251.77 19.206 251.524 19.534 251.524 19.945C 251.524 20.437 251.277 20.683 250.785 20.683C 250.326 20.683 250.046 20.93 250.046 21.333C 250.046 21.691 249.738 22.175 249.362 22.41C 248.278 23.087 248.217 28.278 249.289 28.618C 249.833 28.791 250.046 29.174 250.046 29.976C 250.046 30.783 250.251 31.148 250.785 31.287C 251.191 31.394 251.524 31.71 251.524 31.991C 251.524 32.272 251.773 32.502 252.078 32.502C 252.385 32.502 252.632 32.831 252.632 33.241C 252.632 33.733 252.878 33.98 253.37 33.98C 253.777 33.98 254.109 34.215 254.109 34.503C 254.109 34.791 254.317 35.11 254.571 35.212C 254.94 35.361 254.94 35.405 254.571 35.428C 254.317 35.444 254.109 35.706 254.109 36.011C 254.109 36.319 253.781 36.565 253.37 36.565C 252.878 36.565 252.632 36.811 252.632 37.304C 252.632 37.714 252.385 38.042 252.078 38.042C 251.77 38.042 251.524 38.371 251.524 38.781C 251.524 39.274 251.277 39.52 250.785 39.52C 250.187 39.52 250.046 39.766 250.046 40.813C 250.046 41.859 249.905 42.105 249.307 42.105C 248.643 42.105 248.569 42.351 248.569 44.541C 248.569 46.665 248.663 47.001 249.307 47.169C 249.863 47.314 250.046 47.673 250.046 48.612C 250.046 49.615 250.192 49.861 250.785 49.861C 251.277 49.861 251.524 50.108 251.524 50.6C 251.524 51.299 251.77 51.339 256.14 51.339C 260.511 51.339 260.757 51.299 260.757 50.6C 260.757 50.19 261.003 49.861 261.311 49.861C 261.616 49.861 261.865 49.612 261.865 49.307C 261.865 49 262.193 48.753 262.604 48.753C 263.096 48.753 263.343 48.507 263.343 48.015C 263.343 47.522 263.589 47.276 264.081 47.276C 264.492 47.276 264.82 47.03 264.82 46.722C 264.82 46.417 265.069 46.168 265.374 46.168C 265.679 46.168 265.928 46.417 265.928 46.722C 265.928 47.03 266.256 47.276 266.667 47.276C 267.159 47.276 267.405 47.522 267.405 48.015C 267.405 48.432 267.652 48.753 267.971 48.753C 268.282 48.753 268.632 49.003 268.749 49.307C 268.866 49.612 269.157 49.861 269.395 49.861C 269.633 49.861 270.067 50.194 270.36 50.6C 270.838 51.264 271.316 51.339 275.058 51.339C 278.978 51.339 279.224 51.295 279.224 50.6C 279.224 50.108 279.471 49.861 279.963 49.861C 280.369 49.861 280.702 49.632 280.702 49.351C 280.702 49.07 281.034 48.753 281.44 48.646C 282.126 48.467 282.179 48.143 282.179 44.137C 282.179 40.131 282.126 39.806 281.44 39.627C 281.032 39.52 280.702 39.123 280.702 38.738C 280.702 38.289 280.44 38.042 279.963 38.042C 279.464 38.042 279.224 37.796 279.224 37.282C 279.224 36.864 279.067 36.619 278.874 36.738C 278.681 36.858 278.342 36.618 278.122 36.206C 277.901 35.794 277.478 35.457 277.18 35.457C 276.882 35.457 276.639 35.125 276.639 34.718C 276.639 34.226 276.885 33.98 277.378 33.98C 277.87 33.98 278.116 33.733 278.116 33.241C 278.116 32.831 278.363 32.502 278.67 32.502C 278.975 32.502 279.224 32.253 279.224 31.948C 279.224 31.641 279.553 31.394 279.963 31.394C 280.456 31.394 280.702 31.148 280.702 30.656C 280.702 30.163 280.948 29.917 281.44 29.917C 281.847 29.917 282.159 29.792 282.135 29.64C 281.954 28.49 282.254 27.331 282.733 27.331C 283.15 27.331 283.287 26.884 283.287 25.524C 283.287 24.259 283.121 23.653 282.733 23.504C 282.404 23.378 282.179 22.823 282.179 22.138C 282.179 21.294 281.98 20.931 281.44 20.79C 281.034 20.684 280.702 20.352 280.702 20.052C 280.702 19.752 280.369 19.419 279.963 19.313C 279.557 19.207 279.224 18.89 279.224 18.609C 279.224 18.206 278.402 18.098 275.346 18.098C 272.226 18.098 271.468 18.201 271.468 18.627C 271.468 18.918 271.136 19.262 270.729 19.391C 270.323 19.52 269.991 19.863 269.991 20.154C 269.991 20.445 269.664 20.683 269.264 20.683C 268.757 20.683 268.604 20.858 268.758 21.259C 268.905 21.644 268.717 21.904 268.192 22.041C 267.759 22.154 267.405 22.477 267.405 22.758C 267.405 23.095 266.967 23.269 266.113 23.269C 265.21 23.269 264.82 23.102 264.82 22.715C 264.82 22.407 264.492 22.161 264.081 22.161C 263.589 22.161 263.343 21.914 263.343 21.422C 263.343 20.93 263.096 20.683 262.604 20.683C 262.104 20.683 261.865 20.437 261.865 19.923C 261.865 19.505 261.704 19.262 261.508 19.383C 261.311 19.505 260.939 19.265 260.68 18.851C 260.061 17.859 252.632 17.675 252.632 18.652M68.704 156.325C 68.708 156.997 68.778 157.05 69.067 156.602C 69.53 155.886 69.53 155.494 69.067 155.494C 68.864 155.494 68.701 155.868 68.704 156.325M84.58 170.323C 83.869 170.731 82.789 171.554 82.179 172.151L82.179 172.151L81.071 173.237L81.071 194.759L81.071 216.281L81.994 217.411C 85.001 221.09 90.432 220.875 92.606 216.99L92.606 216.99L93.432 215.512L93.438 194.823L93.444 174.133L92.458 172.662C 91.367 171.036 90.911 170.685 89.012 170.004C 87.24 169.368 86.101 169.451 84.58 170.323M109.88 170.17C 108.383 170.93 107.165 172.073 106.428 173.407C 105.492 175.105 105.292 212.633 106.205 215.382C 108.031 220.882 114.958 221.79 117.682 216.888L117.682 216.888L118.56 215.308L118.547 194.727L118.535 174.146L117.526 172.669C 115.736 170.048 112.319 168.931 109.88 170.17M135.333 170.191C 133.387 171.268 132.347 172.274 131.533 173.871C 130.358 176.173 130.301 213.115 131.467 215.752C 133.756 220.925 139.498 221.506 142.566 216.876C 144.155 214.477 144.081 215.665 143.965 194.233L143.965 194.233L143.86 174.8L142.567 172.887C 140.577 169.942 137.712 168.874 135.333 170.191M160.111 170.284C 155.587 173.145 155.82 171.737 155.943 195.448L155.943 195.448L156.048 215.512L157.01 216.99C 158.688 219.567 164.398 221.272 165.035 219.386C 165.103 219.185 165.366 219.021 165.619 219.021C 166.288 219.021 168.213 216.132 168.722 214.362C 169.347 212.192 169.339 177.427 168.713 175.297C 167.42 170.895 163.113 168.385 160.111 170.284M185.005 170.264C 184.274 170.651 183.152 171.563 182.512 172.292L182.512 172.292L181.348 173.618L181.348 194.857L181.348 216.096L182.164 217.199C 185.049 221.102 190.636 220.947 192.846 216.902L192.846 216.902L193.721 215.299L193.721 194.829L193.721 174.359L192.802 172.676C 191.329 169.98 187.679 168.851 185.005 170.264M210.342 170.103C 207.779 171.29 206.826 172.508 206.456 175.072C 206.008 178.172 206.003 211.456 206.45 214.548C 207.308 220.485 214.918 222.224 217.838 217.15C 218.651 215.737 218.652 215.709 218.652 194.841L218.652 194.841L218.652 173.947L217.758 172.531C 216.201 170.065 212.816 168.956 210.342 170.103M235.457 170.168C 233.373 171.223 232.01 172.849 231.598 174.772C 231.034 177.4 231.125 213.604 231.7 215.358C 233.484 220.806 240.001 221.708 243.005 216.923L243.005 216.923L244.123 215.143L244.13 194.873C 244.137 174.609 244.136 174.602 243.321 173.266C 241.434 170.174 238.066 168.848 235.457 170.168M260.572 170.143C 258.943 171.002 257.831 172.113 256.935 173.777C 255.769 175.944 255.681 213.446 256.837 215.859C 259.482 221.382 265.748 221.451 268.549 215.989C 269.424 214.283 269.635 175.588 268.777 174.113C 266.595 170.362 263.238 168.738 260.572 170.143M284.605 170.804C 281.3 173.07 281.474 171.752 281.456 194.741C 281.438 218.139 281.321 217.275 284.771 219.138C 287.673 220.706 290.542 220.188 292.612 217.724C 294.377 215.623 294.421 215.007 294.298 193.906L294.298 193.906L294.183 174.146L293.075 172.593C 290.905 169.552 287.485 168.829 284.605 170.804M310.361 170.271C 309.437 170.681 308.35 171.595 307.672 172.532L307.672 172.532L306.533 174.104L306.637 195.187L306.741 216.27L307.599 217.369C 310.365 220.909 315.617 220.882 318.006 217.315L318.006 217.315L318.929 215.936L318.929 194.856L318.929 173.777L317.926 172.324C 316.217 169.85 313.169 169.022 310.361 170.271M134.688 231.856C 170.475 231.908 229.146 231.908 265.067 231.856C 300.988 231.804 271.708 231.762 200 231.762C 128.292 231.762 98.902 231.804 134.688 231.856" stroke="none" fill="#F2D24C" fill-rule="nonzero" />
    <path transform="matrix(1 0 0 0.9990975 0 1.524502E-05)"  d="M96.676 119.587L92.705 119.693L92.705 131.834C 92.705 143.793 92.717 143.972 93.444 143.782C 93.857 143.674 94.183 143.771 94.183 144.001C 94.183 144.228 94.474 144.719 94.829 145.092C 95.185 145.466 95.655 146.089 95.874 146.477C 96.952 148.389 100.653 150.576 103.535 151.005C 107.364 151.574 265.078 151.614 265.763 151.046C 266.09 150.774 266.304 150.774 266.471 151.044C 267.19 152.207 298.577 151.329 299.937 150.108C 300.257 149.82 300.631 149.584 300.768 149.584C 300.904 149.584 301.331 149.294 301.716 148.938C 302.101 148.583 302.807 147.951 303.285 147.535C 304.179 146.757 304.765 145.959 305.51 144.506C 305.744 144.049 306.241 143.675 306.615 143.675C 307.261 143.675 307.295 143.08 307.295 131.671L307.295 131.671L307.295 119.668L303.324 119.599C 295.494 119.464 291.694 119.707 290.048 120.448C 289.196 120.831 288.003 121.145 287.397 121.145C 286.791 121.145 286.045 121.394 285.741 121.699C 285.436 122.004 285.06 122.253 284.905 122.253C 283.819 122.253 276.771 127.136 275.38 128.851C 274.991 129.332 273.993 130.461 273.162 131.362C 271.68 132.969 270.149 135.322 269.07 137.648C 268.77 138.294 268.378 138.914 268.198 139.025C 268.019 139.136 267.76 139.928 267.622 140.786C 267.485 141.644 267.194 142.561 266.975 142.825C 266.757 143.088 266.467 144.592 266.332 146.167L266.332 146.167L266.086 149.03L265.793 146.814C 265.631 145.596 265.29 144.266 265.033 143.86C 264.777 143.453 264.472 142.539 264.354 141.828C 263.933 139.278 261.048 134.019 258.41 130.994C 257.424 129.863 256.427 128.702 256.194 128.416C 255.553 127.625 251.696 124.838 251.244 124.838C 251.025 124.838 250.791 124.695 250.723 124.52C 250.518 123.99 244.961 121.145 244.131 121.145C 243.706 121.145 242.586 120.793 241.643 120.364C 239.403 119.344 226.568 119.184 224.694 120.153C 224.099 120.461 222.958 120.835 222.158 120.985C 221.358 121.135 219.893 121.69 218.903 122.217C 217.913 122.745 216.634 123.426 216.06 123.73C 212.717 125.507 206.316 132.015 204.164 135.826C 203.562 136.893 202.919 137.858 202.735 137.972C 202.551 138.085 202.401 138.466 202.401 138.817C 202.401 139.169 202.068 140.108 201.662 140.905C 201.256 141.702 200.923 142.829 200.923 143.409C 200.923 145.261 199.349 144.64 199.012 142.656C 198.865 141.791 198.487 140.715 198.172 140.266C 197.857 139.816 197.599 139.078 197.599 138.625C 197.599 138.172 197.388 137.669 197.13 137.507C 196.872 137.344 196.45 136.796 196.192 136.288C 195.394 134.715 194.846 133.852 194.273 133.263C 193.969 132.951 192.89 131.733 191.874 130.554C 190.066 128.457 189.614 127.991 188.655 127.234C 188.395 127.028 187.433 126.261 186.519 125.53C 184.896 124.232 183.856 123.599 181.466 122.457C 180.819 122.148 180.201 121.749 180.091 121.571C 179.981 121.394 179.18 121.15 178.311 121.031C 177.442 120.911 176.185 120.541 175.518 120.207C 173.515 119.206 161.167 119.325 158.527 120.371C 157.453 120.797 156.264 121.145 155.884 121.145C 155.295 121.145 153.307 122.081 150.779 123.548C 146.278 126.161 141.613 130.403 139.449 133.852C 137.86 136.385 135.958 140.501 135.717 141.93C 135.576 142.765 135.231 143.677 134.951 143.957C 134.671 144.237 134.441 145.11 134.441 145.896C 134.441 146.682 134.275 147.428 134.072 147.553C 133.843 147.694 133.703 147.03 133.703 145.81C 133.703 144.726 133.474 143.511 133.195 143.111C 132.916 142.71 132.57 141.685 132.427 140.834C 132.284 139.982 131.931 139.089 131.642 138.85C 131.354 138.61 131.117 138.124 131.117 137.77C 131.117 137.416 130.822 136.73 130.461 136.246C 130.1 135.761 129.574 134.908 129.291 134.349C 128.52 132.827 125.001 128.911 122.299 126.571C 121.112 125.542 118.463 123.921 115.974 122.702C 115.263 122.353 114.462 121.861 114.193 121.607C 113.925 121.353 113.24 121.145 112.671 121.145C 112.102 121.145 110.908 120.832 110.019 120.45C 108.252 119.691 103.741 119.399 96.676 119.587M67.752 231.899C 68.682 232.829 331.318 232.829 332.248 231.899C 332.807 231.341 332.732 231.319 331.246 231.606C 329.147 232.011 70.853 232.011 68.754 231.606C 67.268 231.319 67.193 231.341 67.752 231.899M39.889 256.714C 37.577 258.552 37.106 259.069 36.922 259.974C 36.795 260.596 36.498 260.924 36.091 260.891C 35.095 260.81 35.193 263.557 36.196 263.819C 36.865 263.994 36.934 264.323 36.934 267.321C 36.934 270.071 37.059 270.789 37.673 271.569C 38.079 272.085 38.412 272.745 38.412 273.034C 38.412 275.882 42.978 285.761 46.139 289.751C 49.144 293.544 49.329 293.738 52.552 296.475C 54.177 297.855 55.691 299.157 55.916 299.367C 58.357 301.654 70.796 306.927 73.74 306.924C 74.319 306.923 76.511 307.202 78.613 307.544C 82.195 308.127 82.679 308.126 86.369 307.542C 88.534 307.199 90.695 306.92 91.172 306.922C 94.487 306.936 106.996 301.367 110.588 298.278C 114.014 295.331 118.637 290.289 120.222 287.769C 120.625 287.128 121.577 286.272 121.908 286.254C 122.022 286.247 122.384 286.782 122.711 287.442C 123.779 289.598 127.51 293.656 131.63 297.144C 132.826 298.156 134.018 299.191 134.279 299.443C 135.227 300.361 142.809 304.201 144.968 304.856C 146.187 305.227 148.018 305.843 149.038 306.227C 150.057 306.611 151.428 306.925 152.085 306.925C 152.741 306.925 154.815 307.196 156.694 307.526C 159.868 308.085 160.465 308.083 165.097 307.504C 177.763 305.919 188.261 300.544 195.045 292.17C 195.942 291.063 197.139 289.65 197.705 289.03C 198.271 288.411 198.829 287.53 198.946 287.073C 199.276 285.773 200.664 285.986 201.36 287.442C 202.349 289.513 206.177 294.008 208.54 295.873C 209.328 296.495 210.72 297.707 211.634 298.566C 217.628 304.199 234.726 309.036 243.306 307.526C 245.185 307.196 247.259 306.925 247.915 306.925C 248.572 306.925 249.943 306.611 250.962 306.227C 251.982 305.843 253.813 305.229 255.032 304.861C 256.907 304.296 261.584 302.1 264.265 300.525C 265.936 299.544 269.566 296.533 271.11 294.847C 275.458 290.098 277.476 287.592 277.971 286.326C 278.145 285.88 279.333 286.972 280.303 288.468C 281.623 290.505 287.221 296.3 290.295 298.81C 297.477 304.677 313.094 309.025 321.607 307.526C 323.486 307.196 325.519 306.925 326.124 306.925C 326.729 306.925 327.851 306.693 328.617 306.409C 329.383 306.124 331.256 305.515 332.779 305.055C 341.795 302.332 352.564 293.598 356.661 285.688C 357.082 284.875 357.913 283.296 358.509 282.179C 359.699 279.948 361.588 274.572 361.588 273.419C 361.588 273.018 361.921 272.306 362.327 271.837C 362.937 271.134 363.066 270.456 363.066 267.933C 363.066 264.564 363.26 263.712 364.028 263.712C 364.819 263.712 364.656 261.757 363.804 261.028C 363.398 260.68 363.066 260.152 363.066 259.854C 363.066 259.287 362.012 258.11 360.293 256.758C 357.829 254.82 352.811 256.117 351.319 259.078C 350.565 260.578 349.388 266.255 349.403 268.329C 349.474 278.39 337.183 291.257 324.469 294.432C 321.934 295.065 312.175 294.899 310.249 294.19C 309.335 293.853 307.937 293.416 307.141 293.218C 303.068 292.206 295.803 287.542 293.972 284.765C 293.503 284.054 292.589 282.89 291.94 282.179C 288.611 278.53 285.503 270.591 285.503 265.737C 285.503 259.367 283 255.956 278.326 255.956L278.326 255.956L275.544 255.956L273.817 257.61L272.09 259.265L271.809 262.893C 271.03 272.955 267.82 280.067 261.256 286.274C 258.009 289.346 251.482 293.259 249.609 293.259C 249.22 293.259 248.405 293.516 247.798 293.83C 245.227 295.16 233.481 295.179 230.927 293.858C 230.29 293.529 229.425 293.259 229.005 293.259C 226.584 293.259 217.59 287.572 215.685 284.836C 215.217 284.164 214.359 283.084 213.778 282.435C 212.685 281.214 209.705 276.21 209.323 274.953C 209.204 274.56 208.664 273.075 208.124 271.653C 207.347 269.608 207.099 268.181 206.937 264.826C 206.625 258.335 204.863 255.956 200.371 255.956C 195.211 255.956 193.513 258.04 193.147 264.82C 192.904 269.337 191.569 273.86 189.332 277.747C 188.806 278.661 188.26 279.658 188.119 279.963C 186.447 283.572 180.663 288.833 175.554 291.391C 173.501 292.418 171.575 293.259 171.274 293.259C 170.973 293.259 170.084 293.529 169.297 293.859C 166.145 295.18 155.136 295.156 152.558 293.823C 151.958 293.513 151.124 293.259 150.703 293.259C 149.548 293.259 143.997 290.483 141.572 288.692C 139.677 287.292 138.734 286.338 135.497 282.548C 131.293 277.627 128.878 271.265 128.338 263.688C 128.027 259.323 127.994 259.225 126.253 257.5C 124.012 255.281 120.137 255.18 117.582 257.273C 116.698 257.998 115.973 258.787 115.972 259.027C 115.971 259.268 115.699 259.963 115.368 260.572C 114.96 261.325 114.708 262.985 114.583 265.743C 114.468 268.307 114.214 270.075 113.895 270.535C 113.616 270.935 113.388 271.6 113.387 272.012C 113.382 274.077 108.547 282.521 105.873 285.134C 102.31 288.615 94.956 293.259 93.006 293.259C 92.617 293.259 91.804 293.516 91.198 293.829C 88.59 295.177 76.508 295.178 73.901 293.83C 73.294 293.516 72.494 293.259 72.123 293.259C 71.196 293.259 65.394 290.284 63.246 288.707C 60.952 287.023 54.663 280.301 54.663 279.532C 54.663 279.381 54.197 278.46 53.628 277.486C 52.303 275.219 51.065 271.476 50.782 268.883C 49.672 258.697 48.052 255.943 43.19 255.968C 41.387 255.977 40.59 256.157 39.889 256.714M45.429 257.319C 45.937 257.582 46.644 257.799 46.999 257.8C 47.437 257.802 47.645 258.092 47.645 258.699C 47.645 259.193 47.901 259.852 48.213 260.164C 48.61 260.561 48.867 261.944 49.073 264.785C 49.234 267.015 49.538 269.057 49.748 269.323C 49.958 269.589 50.227 270.671 50.345 271.729C 50.464 272.786 50.8 274.033 51.091 274.499C 51.382 274.965 51.726 275.803 51.856 276.362C 51.986 276.921 52.255 277.378 52.454 277.378C 52.653 277.378 52.816 277.678 52.816 278.045C 52.816 279.405 60.494 288.458 61.647 288.458C 61.854 288.458 62.202 288.79 62.419 289.197C 62.637 289.603 63.058 289.935 63.356 289.935C 63.653 289.935 63.897 290.099 63.897 290.3C 63.897 290.5 64.458 290.899 65.144 291.185C 65.83 291.472 66.505 291.89 66.643 292.114C 66.782 292.338 67.197 292.521 67.567 292.521C 67.936 292.521 68.43 292.752 68.665 293.035C 68.899 293.317 69.82 293.658 70.711 293.791C 71.602 293.925 72.531 294.276 72.776 294.57C 73.032 294.879 73.868 295.108 74.745 295.11C 75.584 295.112 77.086 295.362 78.083 295.664C 80.404 296.368 84.323 296.368 86.645 295.664C 87.642 295.362 89.227 295.112 90.167 295.11C 91.206 295.108 92.051 294.896 92.321 294.57C 92.566 294.276 93.513 293.922 94.427 293.785C 95.341 293.648 96.176 293.308 96.283 293.028C 96.39 292.749 96.85 292.521 97.305 292.521C 97.759 292.521 98.432 292.188 98.8 291.782C 99.167 291.376 99.754 291.043 100.104 291.043C 100.454 291.043 101.41 290.42 102.23 289.658C 106.499 285.692 107.438 284.764 109.065 282.907C 110.039 281.796 110.932 280.429 111.05 279.871C 111.168 279.312 111.398 278.855 111.56 278.855C 111.722 278.855 112.042 278.287 112.271 277.592C 112.5 276.897 112.929 276.129 113.223 275.885C 113.517 275.64 113.758 274.997 113.758 274.456C 113.758 273.914 114.09 272.819 114.497 272.022C 114.906 271.22 115.235 269.844 115.235 268.94C 115.235 268.041 115.396 266.705 115.592 265.971C 115.788 265.236 116.05 263.525 116.173 262.167C 116.391 259.76 117.446 257.802 118.524 257.802C 118.726 257.802 119.052 257.517 119.247 257.169C 120.139 255.574 126.252 257.123 126.3 258.958C 126.309 259.288 126.565 259.766 126.87 260.018C 127.246 260.331 127.431 261.203 127.447 262.741C 127.485 266.553 127.99 270.487 128.46 270.644C 128.708 270.727 128.901 271.466 128.901 272.333C 128.901 273.676 130.288 277.114 131.085 277.747C 131.212 277.849 131.528 278.347 131.786 278.855C 132.63 280.518 133.261 281.536 133.59 281.767C 133.768 281.892 134.928 283.241 136.167 284.765C 139.07 288.334 141.679 290.595 143.604 291.205C 144.012 291.335 144.549 291.684 144.795 291.981C 145.041 292.278 145.535 292.521 145.891 292.521C 146.248 292.521 146.729 292.749 146.961 293.029C 147.193 293.308 148.065 293.646 148.9 293.779C 149.734 293.913 150.765 294.266 151.191 294.564C 151.617 294.862 152.634 295.108 153.452 295.11C 154.271 295.112 155.756 295.362 156.753 295.664C 157.75 295.967 159.594 296.214 160.849 296.214C 162.105 296.214 163.949 295.967 164.946 295.664C 165.943 295.362 167.537 295.112 168.487 295.11C 169.511 295.108 170.436 294.885 170.759 294.562C 171.058 294.263 171.981 293.91 172.81 293.778C 173.638 293.645 174.506 293.308 174.738 293.029C 174.97 292.749 175.446 292.521 175.796 292.521C 176.146 292.521 176.716 292.207 177.062 291.824C 177.409 291.442 178.143 291.038 178.693 290.928C 179.806 290.705 188.366 282.529 188.366 281.688C 188.366 281.411 188.698 280.801 189.104 280.332C 189.511 279.864 189.843 279.184 189.843 278.82C 189.843 278.457 190.004 278.061 190.2 277.939C 190.827 277.552 192.428 274.028 192.428 273.037C 192.428 272.511 192.719 271.76 193.073 271.368C 193.589 270.797 193.746 269.796 193.855 266.354C 193.946 263.484 194.161 261.81 194.503 261.323C 194.784 260.921 195.014 260.24 195.014 259.809C 195.014 258.991 195.848 258.077 196.953 257.685C 197.308 257.559 197.599 257.306 197.599 257.121C 197.599 256.631 199.76 256.281 201.165 256.545C 202.456 256.787 204.986 258.894 204.986 259.727C 204.986 260 205.214 260.551 205.493 260.952C 205.823 261.427 206.056 263.175 206.161 265.978C 206.282 269.182 206.482 270.518 206.947 271.228C 207.291 271.752 207.572 272.593 207.572 273.098C 207.572 273.93 208.917 276.882 209.757 277.895C 209.944 278.121 210.212 278.761 210.352 279.319C 210.492 279.876 210.76 280.332 210.948 280.332C 211.135 280.332 211.408 280.641 211.554 281.018C 212.37 283.127 220.248 291.043 221.531 291.043C 221.813 291.043 222.467 291.376 222.983 291.782C 223.5 292.188 224.215 292.521 224.572 292.521C 224.929 292.521 225.308 292.747 225.414 293.023C 225.519 293.298 226.306 293.636 227.162 293.773C 228.018 293.91 229.066 294.266 229.492 294.564C 229.918 294.862 230.886 295.106 231.643 295.106C 232.401 295.106 233.977 295.355 235.147 295.66C 237.806 296.353 241.644 296.348 243.583 295.65C 244.395 295.357 245.838 295.115 246.788 295.112C 247.758 295.109 248.74 294.883 249.026 294.597C 249.306 294.316 250.222 293.971 251.062 293.829C 251.902 293.687 252.785 293.335 253.025 293.046C 253.265 292.757 253.763 292.521 254.132 292.521C 254.502 292.521 254.917 292.338 255.056 292.114C 255.194 291.89 255.827 291.488 256.462 291.222C 258.692 290.286 265.928 283.42 265.928 282.24C 265.928 282.047 266.177 281.793 266.482 281.676C 266.787 281.559 267.036 281.246 267.036 280.98C 267.036 280.714 267.368 280.212 267.775 279.864C 268.181 279.516 268.513 278.898 268.513 278.489C 268.513 278.081 268.671 277.747 268.863 277.747C 269.461 277.747 271.099 274.061 271.099 272.718C 271.099 272.016 271.388 271.001 271.742 270.461C 272.229 269.718 272.416 268.49 272.515 265.395C 272.687 260.025 273.385 258.344 275.933 257.156C 279.769 255.368 283.316 257.427 283.809 261.726C 283.946 262.92 284.206 264.728 284.387 265.743C 284.568 266.759 284.823 268.546 284.952 269.714C 285.081 270.882 285.424 272.075 285.715 272.365C 286.005 272.655 286.242 273.381 286.242 273.977C 286.242 274.574 286.574 275.485 286.981 276.001C 287.387 276.518 287.719 277.195 287.719 277.506C 287.719 277.818 287.888 278.177 288.094 278.304C 288.3 278.432 288.701 279.091 288.985 279.77C 289.511 281.031 290.53 282.33 292.982 284.867C 293.744 285.655 294.367 286.453 294.367 286.641C 294.367 286.828 294.503 286.981 294.669 286.981C 294.836 286.981 295.954 287.895 297.154 289.012C 298.355 290.129 299.564 291.043 299.841 291.043C 300.118 291.043 300.768 291.376 301.284 291.782C 301.801 292.188 302.533 292.521 302.912 292.521C 303.291 292.521 303.601 292.681 303.601 292.876C 303.601 293.071 304.307 293.408 305.171 293.625C 306.034 293.842 307.182 294.264 307.721 294.563C 308.26 294.862 309.34 295.108 310.122 295.11C 310.903 295.112 312.358 295.362 313.355 295.664C 314.352 295.967 316.279 296.214 317.636 296.214C 318.994 296.214 320.92 295.967 321.917 295.664C 322.914 295.362 324.4 295.112 325.218 295.11C 326.036 295.108 327.042 294.871 327.453 294.583C 327.864 294.295 328.809 293.945 329.553 293.805C 330.297 293.666 331.099 293.32 331.334 293.036C 331.569 292.753 332.064 292.521 332.433 292.521C 332.803 292.521 333.209 292.352 333.337 292.146C 333.464 291.94 334.097 291.543 334.744 291.264C 336.737 290.404 345.706 281.911 345.706 280.884C 345.706 280.746 346.039 280.211 346.445 279.695C 346.851 279.178 347.184 278.463 347.184 278.106C 347.184 277.749 347.433 277.361 347.738 277.244C 348.042 277.127 348.297 276.735 348.304 276.374C 348.311 276.012 348.638 275.051 349.03 274.238C 349.423 273.426 349.75 272.212 349.757 271.542C 349.764 270.872 350.002 269.872 350.287 269.321C 350.572 268.77 350.929 266.582 351.079 264.459C 351.252 262.029 351.539 260.412 351.854 260.097C 352.129 259.822 352.355 259.271 352.355 258.872C 352.355 258.474 352.645 258.06 353.001 257.952C 353.356 257.844 354.204 257.482 354.884 257.147C 356.328 256.437 357.362 256.46 358.851 257.237C 359.442 257.545 360.134 257.799 360.388 257.8C 360.642 257.801 360.849 258.029 360.849 258.306C 360.849 258.583 361.289 259.249 361.825 259.786C 362.872 260.833 362.987 265.98 361.991 267.181C 361.769 267.448 361.4 269.063 361.172 270.768C 360.943 272.474 360.528 274.197 360.249 274.597C 359.97 274.998 359.741 275.748 359.741 276.265C 359.741 276.781 359.409 277.824 359.003 278.582C 358.596 279.34 358.264 280.276 358.264 280.661C 358.264 281.046 358.015 281.457 357.71 281.574C 357.405 281.691 357.156 282.099 357.156 282.48C 357.156 282.862 356.824 283.557 356.417 284.026C 356.011 284.494 355.679 285.11 355.679 285.395C 355.679 285.836 352.575 290.051 350.975 291.782C 350.693 292.087 349.733 293.126 348.841 294.09C 347.949 295.055 347.059 295.845 346.863 295.845C 346.667 295.845 346.451 296.003 346.384 296.196C 346.194 296.734 341.985 299.908 341.46 299.908C 341.204 299.908 340.788 300.157 340.536 300.462C 340.283 300.766 339.784 301.016 339.428 301.016C 339.071 301.016 338.581 301.254 338.339 301.546C 338.097 301.838 337.426 302.18 336.847 302.307C 336.269 302.434 335.704 302.777 335.592 303.07C 335.476 303.37 334.901 303.601 334.267 303.601C 333.65 303.601 332.526 303.934 331.768 304.34C 331.01 304.746 329.902 305.078 329.305 305.078C 328.709 305.078 327.908 305.362 327.525 305.708C 326.477 306.656 308.443 306.649 307.494 305.7C 307.152 305.358 306.385 305.078 305.789 305.078C 305.194 305.078 304.086 304.746 303.328 304.34C 302.57 303.934 301.508 303.601 300.968 303.601C 300.428 303.601 299.891 303.352 299.774 303.047C 299.657 302.742 299.246 302.493 298.861 302.493C 298.476 302.493 297.738 302.161 297.221 301.754C 296.705 301.348 295.935 301.016 295.51 301.016C 295.085 301.016 294.737 300.87 294.737 300.691C 294.737 300.513 294.197 300.143 293.536 299.87C 292.876 299.597 291.92 298.948 291.411 298.428C 290.903 297.908 289.698 296.94 288.734 296.277C 287.769 295.613 286.981 294.912 286.981 294.719C 286.981 294.526 286.822 294.367 286.628 294.367C 286.246 294.367 284.395 292.627 284.395 292.268C 284.395 292.147 283.481 290.917 282.364 289.534C 281.247 288.151 280.332 286.782 280.332 286.492C 280.332 285.001 277.829 284.516 277.137 285.873C 276.456 287.208 275.806 288.123 275.069 288.782C 274.714 289.1 274.423 289.495 274.423 289.66C 274.423 290.107 266.195 298.249 265.457 298.532C 265.107 298.666 264.82 298.948 264.82 299.157C 264.82 299.367 264.488 299.538 264.081 299.538C 263.675 299.538 263.01 299.871 262.604 300.277C 262.198 300.683 261.601 301.016 261.277 301.016C 260.954 301.016 260.266 301.348 259.75 301.754C 259.233 302.161 258.519 302.493 258.161 302.493C 257.804 302.493 257.416 302.742 257.299 303.047C 257.175 303.371 256.622 303.601 255.966 303.601C 255.349 303.601 254.225 303.934 253.467 304.34C 252.709 304.746 251.566 305.078 250.928 305.078C 250.29 305.078 249.582 305.302 249.355 305.576C 249.012 305.989 242.761 306.65 239.335 306.635C 235.462 306.618 229.289 305.988 228.946 305.575C 228.719 305.302 228.055 305.078 227.47 305.078C 226.884 305.078 225.785 304.746 225.027 304.34C 224.269 303.934 223.184 303.601 222.616 303.601C 222.048 303.601 221.494 303.368 221.385 303.083C 221.276 302.799 220.616 302.459 219.919 302.328C 219.222 302.197 218.652 301.935 218.652 301.745C 218.652 301.555 218.195 301.288 217.636 301.151C 217.078 301.015 216.224 300.596 215.74 300.221C 215.255 299.845 214.698 299.538 214.502 299.538C 214.306 299.538 213.372 298.801 212.428 297.899C 210.596 296.15 208.136 294.367 207.555 294.367C 207.361 294.367 207.202 294.19 207.202 293.974C 207.202 293.54 205.736 291.522 204.155 289.781C 203.596 289.166 203.139 288.545 203.139 288.402C 203.139 288.259 202.918 287.92 202.648 287.65C 202.378 287.38 201.919 286.662 201.628 286.054C 200.83 284.389 199.117 284.486 198.287 286.242C 197.951 286.953 197.244 288 196.714 288.569C 196.185 289.138 195.753 289.661 195.753 289.731C 195.753 289.8 195.231 290.415 194.594 291.097C 193.956 291.778 193.275 292.793 193.08 293.352C 192.885 293.91 192.501 294.367 192.226 294.367C 191.951 294.367 191.594 294.579 191.431 294.838C 191.269 295.097 190.72 295.583 190.212 295.918C 189.705 296.252 188.624 297.141 187.812 297.891C 186.999 298.642 185.805 299.483 185.159 299.761C 184.513 300.039 183.88 300.435 183.752 300.641C 183.625 300.847 183.223 301.016 182.86 301.016C 182.497 301.016 181.817 301.348 181.348 301.754C 180.88 302.161 180.21 302.493 179.859 302.493C 179.509 302.493 179.016 302.742 178.763 303.047C 178.51 303.352 177.764 303.601 177.105 303.601C 176.447 303.601 175.485 303.934 174.968 304.34C 174.439 304.756 173.47 305.078 172.748 305.078C 172.043 305.078 171.28 305.302 171.053 305.576C 170.71 305.99 164.089 306.669 160.665 306.641C 156.836 306.611 150.988 305.989 150.645 305.576C 150.418 305.302 149.63 305.077 148.893 305.076C 148.156 305.075 147.054 304.743 146.445 304.34C 145.836 303.936 144.792 303.605 144.125 303.604C 143.39 303.602 142.829 303.383 142.701 303.047C 142.584 302.742 142.196 302.493 141.839 302.493C 141.481 302.493 140.767 302.161 140.25 301.754C 139.734 301.348 139.056 301.016 138.745 301.016C 138.433 301.016 138.065 300.833 137.927 300.609C 137.788 300.385 137.114 299.967 136.428 299.68C 135.741 299.394 135.18 298.995 135.18 298.795C 135.18 298.594 135.002 298.43 134.784 298.43C 134.338 298.43 133.055 297.265 128.604 292.816C 124.771 288.984 124.79 289.007 123.566 286.888C 122.151 284.439 120.377 284.206 119.827 286.396C 119.7 286.902 118.786 288.174 117.796 289.223C 116.806 290.272 115.889 291.467 115.758 291.88C 115.627 292.293 114.75 293.354 113.808 294.237C 111.483 296.42 111.22 296.636 109.418 297.846C 108.555 298.426 107.849 299.007 107.849 299.138C 107.849 299.269 107.392 299.573 106.833 299.813C 106.274 300.054 105.568 300.404 105.263 300.592C 104.958 300.78 103.712 301.404 102.493 301.979C 101.274 302.553 100.222 303.154 100.154 303.312C 100.086 303.471 99.504 303.602 98.861 303.604C 98.218 303.605 97.193 303.936 96.584 304.34C 95.974 304.743 94.947 305.075 94.302 305.076C 93.656 305.077 92.848 305.358 92.506 305.7C 91.557 306.649 73.523 306.656 72.475 305.708C 72.092 305.362 71.291 305.078 70.695 305.078C 70.098 305.078 68.99 304.746 68.232 304.34C 67.474 303.934 66.35 303.601 65.733 303.601C 65.099 303.601 64.524 303.37 64.408 303.07C 64.296 302.777 63.731 302.434 63.153 302.307C 62.574 302.18 61.903 301.838 61.661 301.546C 61.419 301.254 60.929 301.016 60.572 301.016C 60.216 301.016 59.717 300.766 59.464 300.462C 59.212 300.157 58.79 299.908 58.528 299.908C 58.265 299.908 57.33 299.247 56.449 298.44C 55.568 297.633 54.731 296.968 54.588 296.963C 54.343 296.953 51.018 293.997 50.1 292.972C 49.867 292.712 49.178 291.957 48.569 291.295C 47.959 290.632 46.963 289.349 46.354 288.443C 45.745 287.537 45.039 286.663 44.784 286.501C 44.53 286.338 44.321 285.793 44.321 285.289C 44.321 284.784 44.082 284.28 43.79 284.168C 43.498 284.056 43.154 283.491 43.027 282.912C 42.9 282.334 42.558 281.663 42.266 281.421C 41.975 281.179 41.736 280.706 41.736 280.369C 41.736 280.033 41.496 279.415 41.202 278.997C 40.909 278.578 40.557 277.387 40.419 276.351C 40.282 275.315 39.965 274.389 39.716 274.294C 39.451 274.192 39.161 273.021 39.017 271.478C 38.882 270.025 38.512 268.224 38.194 267.474C 37.07 264.824 37.063 261.1 38.18 259.772C 38.714 259.138 39.151 258.435 39.151 258.211C 39.151 257.986 39.333 257.802 39.556 257.802C 39.78 257.802 40.486 257.568 41.126 257.281C 43.321 256.299 43.468 256.3 45.429 257.319M36.682 320.116C 37.863 320.773 362.609 320.774 363.472 320.118C 363.936 319.764 329.036 319.668 199.969 319.668C 71.05 319.668 36.048 319.764 36.682 320.116M42.744 332.813C 42.384 333.023 42.186 333.35 42.304 333.541C 42.761 334.279 357.597 333.98 357.455 333.241C 357.307 332.47 44.064 332.044 42.744 332.813" stroke="none" fill="#E4AC76" fill-rule="nonzero" />
</g>
</svg>