<?xml version="1.0" standalone="no"?>
<!DOCTYPE svg PUBLIC "-//W3C//DTD SVG 1.0//EN" "http://www.w3.org/TR/2001/REC-SVG-20010904/DTD/svg10.dtd">
<svg xmlns="http://www.w3.org/2000/svg" xmlns:xlink="http://www.w3.org/1999/xlink" id="body_1" width="160" height="23">

<g transform="matrix(0.4 0 0 0.3965517 0 0)">
    <path transform="matrix(1 0 0 0.9984286 0 0)"  d="M13.885 11.379C 13.813 11.492 13.754 11.658 13.753 11.75C 13.751 11.842 13.525 11.937 13.25 11.962C 12.264 12.052 12 12.167 12 12.503C 12 12.716 11.888 12.833 11.684 12.833C 11.242 12.833 11.207 13.004 11.178 15.313C 11.147 17.682 11.213 17.833 12.281 17.833C 12.689 17.833 13.172 17.914 13.355 18.012C 13.579 18.131 13.754 18.135 13.89 18.022C 14.001 17.93 14.486 17.802 14.969 17.738C 15.467 17.672 15.933 17.506 16.048 17.353C 16.159 17.205 16.531 16.94 16.875 16.765C 17.219 16.591 17.5 16.39 17.5 16.32C 17.5 16.25 17.683 15.975 17.906 15.71C 18.129 15.445 18.362 15.026 18.424 14.78C 18.574 14.183 18.769 14.217 18.987 14.878C 19.182 15.468 20.55 17 20.882 17C 20.995 17 21.174 17.14 21.28 17.31C 21.41 17.517 21.767 17.659 22.358 17.738C 22.844 17.802 23.338 17.935 23.456 18.033C 23.61 18.161 23.917 18.138 24.544 17.951C 25.024 17.808 25.698 17.645 26.042 17.588C 26.406 17.528 26.667 17.391 26.667 17.259C 26.667 17.134 26.892 16.954 27.167 16.858C 27.442 16.762 27.667 16.566 27.667 16.421C 27.667 16.277 27.849 16.089 28.071 16.005C 28.343 15.901 28.494 15.697 28.53 15.384C 28.614 14.647 29.463 14.608 29.609 15.335C 29.677 15.676 29.851 15.912 30.107 16.009C 30.323 16.091 30.5 16.277 30.5 16.421C 30.5 16.566 30.725 16.762 31 16.858C 31.275 16.954 31.5 17.134 31.5 17.259C 31.5 17.391 31.761 17.528 32.125 17.588C 32.469 17.645 33.143 17.808 33.623 17.951C 34.279 18.146 34.552 18.164 34.723 18.022C 34.848 17.919 35.311 17.784 35.751 17.724C 36.192 17.664 36.686 17.481 36.848 17.318C 37.011 17.156 37.328 16.924 37.552 16.803C 38.067 16.525 38.771 15.686 39.168 14.876C 39.438 14.324 39.489 14.29 39.593 14.583C 39.881 15.393 40.785 16.515 41.371 16.791C 41.712 16.952 41.993 17.172 41.996 17.28C 42.001 17.508 42.277 17.605 43.364 17.758C 43.803 17.82 44.184 17.972 44.236 18.106C 44.315 18.313 44.378 18.312 44.705 18.102C 44.913 17.968 45.458 17.833 45.917 17.801L45.917 17.801L46.75 17.744L46.75 15.33C 46.75 12.932 46.748 12.917 46.375 12.937C 46.091 12.952 46 12.865 46 12.579C 46 12.152 45.718 12 44.921 12C 44.473 12 44.35 11.922 44.266 11.588L44.266 11.588L44.163 11.175L29.088 11.175C 17.384 11.175 13.985 11.221 13.885 11.379M18 16.833C 17.594 17.292 17.174 17.667 17.067 17.667C 16.959 17.667 16.754 17.847 16.61 18.067C 16.411 18.37 16.134 18.496 15.465 18.587C 14.98 18.654 14.435 18.811 14.255 18.937C 13.779 19.269 12.889 19.223 12.514 18.847C 12.149 18.483 12 18.556 12 19.101C 12 19.31 11.925 19.527 11.833 19.583C 11.731 19.647 11.667 19.36 11.667 18.833C 11.667 18.307 11.603 18.02 11.5 18.083C 11.324 18.192 11.274 19.846 11.43 20.427C 11.516 20.747 11.619 20.766 12.927 20.699C 13.976 20.646 14.428 20.69 14.708 20.872C 14.914 21.006 15.357 21.206 15.692 21.316C 16.67 21.636 18.048 22.942 18.363 23.847C 18.584 24.481 18.735 24.461 19.071 23.753C 19.46 22.933 20.915 21.553 21.639 21.318C 21.975 21.209 22.398 21.017 22.579 20.893C 23.08 20.548 24.645 20.608 25.377 21C 25.719 21.183 26.093 21.334 26.208 21.334C 26.565 21.335 28.475 23.153 28.531 23.545C 28.613 24.127 29.453 24.163 29.596 23.59C 29.71 23.139 31.598 21.335 31.959 21.334C 32.074 21.334 32.448 21.183 32.79 21C 33.522 20.608 35.086 20.548 35.588 20.893C 35.769 21.017 36.194 21.21 36.534 21.32C 37.149 21.52 38.995 23.193 39.005 23.56C 39.023 24.204 39.476 24.363 39.756 23.823C 40.333 22.706 41.492 21.638 42.474 21.316C 42.809 21.206 43.255 21.005 43.464 20.869C 43.759 20.677 44.164 20.643 45.264 20.718C 46.916 20.83 46.888 20.857 46.686 19.333C 46.583 18.555 46.536 18.426 46.521 18.875C 46.498 19.561 46.167 19.756 46.167 19.083C 46.167 18.854 46.092 18.667 46 18.667C 45.908 18.667 45.833 18.75 45.833 18.851C 45.833 18.953 45.723 18.993 45.589 18.942C 45.454 18.89 45.3 18.92 45.246 19.007C 45.1 19.243 44.29 19.201 43.912 18.937C 43.731 18.811 43.186 18.654 42.701 18.587C 42.046 18.498 41.755 18.368 41.568 18.083C 41.429 17.871 41.132 17.652 40.908 17.596C 40.684 17.54 40.5 17.418 40.5 17.325C 40.5 17.232 40.237 16.892 39.915 16.571L39.915 16.571L39.33 15.986L39.169 16.41C 39.081 16.643 38.899 16.833 38.765 16.833C 38.632 16.833 38.475 16.983 38.417 17.166C 38.359 17.349 38.133 17.544 37.914 17.599C 37.696 17.654 37.406 17.868 37.27 18.076C 37.112 18.317 36.786 18.492 36.367 18.559C 36.006 18.616 35.495 18.776 35.23 18.914C 34.631 19.226 33.843 19.238 33.412 18.94C 33.231 18.815 32.733 18.661 32.306 18.598C 31.74 18.515 31.454 18.372 31.26 18.075C 31.113 17.851 30.875 17.667 30.732 17.667C 30.589 17.667 30.239 17.404 29.955 17.083C 29.669 16.761 29.28 16.5 29.083 16.5C 28.887 16.5 28.497 16.761 28.212 17.083C 27.928 17.404 27.578 17.667 27.435 17.667C 27.292 17.667 27.054 17.851 26.907 18.075C 26.712 18.372 26.426 18.515 25.861 18.598C 25.433 18.661 24.935 18.815 24.755 18.94C 24.332 19.232 23.538 19.228 22.97 18.931C 22.724 18.803 22.274 18.648 21.97 18.587C 20.99 18.389 20.852 18.322 20.747 17.991C 20.691 17.813 20.498 17.667 20.319 17.667C 20.133 17.667 19.911 17.488 19.803 17.25C 19.699 17.021 19.511 16.833 19.386 16.833C 19.261 16.833 19.087 16.646 19 16.417C 18.798 15.886 18.862 15.86 18 16.833M46 25.599C 46 25.82 46 26.037 46 26.083C 46 26.336 46.255 26.199 46.309 25.917C 46.343 25.733 46.445 25.537 46.533 25.481C 46.622 25.425 46.539 25.339 46.347 25.289C 46.066 25.215 46 25.275 46 25.599M11.726 25.708C 11.757 25.915 11.908 26.108 12.06 26.138C 12.3 26.185 12.311 26.134 12.142 25.763C 11.901 25.234 11.649 25.201 11.726 25.708M16.92 30.018C 16.752 30.698 16.899 36.421 17.083 36.375C 17.306 36.32 17.398 29.998 17.18 29.78C 17.076 29.676 16.983 29.761 16.92 30.018M21.12 29.769C 20.945 29.944 20.973 36.5 21.149 36.5C 21.443 36.5 21.5 35.93 21.488 33.111C 21.477 30.375 21.381 29.507 21.12 29.769M25.17 29.833C 24.979 32.262 25.105 36.698 25.354 36.306C 25.538 36.015 25.52 30.35 25.333 29.917C 25.235 29.687 25.184 29.661 25.17 29.833M32.778 29.778C 32.555 30.001 32.65 36.533 32.875 36.458C 33.034 36.405 33.076 35.604 33.052 33.094C 33.021 29.845 32.997 29.558 32.778 29.778M36.771 30.044C 36.64 30.533 36.637 35.896 36.768 36.236C 37.06 36.999 37.167 36.184 37.167 33.177C 37.167 30.14 37.032 29.071 36.771 30.044M40.934 29.93C 40.767 30.366 40.826 36.23 41 36.5C 41.107 36.666 41.162 35.557 41.164 33.208C 41.167 29.748 41.142 29.391 40.934 29.93M9.492 30.083C 9.428 30.737 9.494 36.217 9.567 36.289C 9.622 36.344 9.667 34.951 9.667 33.194C 9.667 31.438 9.629 30 9.583 30C 9.537 30 9.496 30.037 9.492 30.083M45.136 33.042C 45.107 34.715 45.14 36.155 45.208 36.242C 45.277 36.329 45.333 34.96 45.333 33.2C 45.333 31.44 45.301 30 45.261 30C 45.22 30 45.164 31.369 45.136 33.042M48.5 33.167C 48.5 34.939 48.545 36.344 48.6 36.289C 48.654 36.235 48.699 34.829 48.699 33.167C 48.699 31.504 48.654 30.099 48.6 30.044C 48.545 29.989 48.5 31.394 48.5 33.167M12.838 35.908C 12.835 36.267 12.883 36.35 13.017 36.216C 13.149 36.084 13.151 35.945 13.022 35.724C 12.866 35.455 12.843 35.477 12.838 35.908M10.713 37.862C 11.022 37.975 11.383 37.976 11.796 37.866C 12.383 37.71 12.358 37.701 11.333 37.697C 10.411 37.694 10.319 37.718 10.713 37.862M14.794 37.878C 15.292 37.997 15.617 37.994 15.878 37.869C 16.183 37.721 16.056 37.691 15.167 37.698L15.167 37.698L14.083 37.707L14.794 37.878L13.885 11.379zM18.625 37.874C 19.001 37.995 19.332 37.995 19.708 37.874C 20.202 37.716 20.154 37.701 19.167 37.701C 18.18 37.701 18.132 37.716 18.625 37.874M22.546 37.862C 22.855 37.975 23.216 37.976 23.63 37.866C 24.216 37.71 24.191 37.701 23.167 37.697C 22.244 37.694 22.152 37.718 22.546 37.862M26.537 37.866C 26.95 37.976 27.312 37.975 27.62 37.862C 28.015 37.718 27.923 37.694 27 37.697C 25.975 37.701 25.95 37.71 26.537 37.866M30.482 37.859C 30.846 37.964 31.262 37.965 31.649 37.861C 32.192 37.717 32.138 37.701 31.083 37.699C 30.052 37.697 29.982 37.716 30.482 37.859M34.537 37.866C 34.95 37.976 35.312 37.975 35.62 37.862C 36.015 37.718 35.923 37.694 35 37.697C 33.975 37.701 33.95 37.71 34.537 37.866M38.458 37.874C 38.834 37.995 39.166 37.995 39.542 37.874C 40.035 37.716 39.987 37.701 39 37.701C 38.013 37.701 37.965 37.716 38.458 37.874M42.277 37.87C 42.635 37.985 43.01 37.985 43.444 37.871C 44.046 37.711 44.015 37.701 42.917 37.701C 41.891 37.701 41.814 37.721 42.277 37.87M46.37 37.866C 46.784 37.976 47.145 37.975 47.454 37.862C 47.848 37.718 47.756 37.694 46.833 37.697C 45.809 37.701 45.784 37.71 46.37 37.866M3.958 43.36C 3.538 43.514 3.319 43.833 3.634 43.833C 3.707 43.833 3.939 44.546 4.149 45.417C 4.359 46.288 4.601 47 4.686 47C 4.772 47 4.91 47.179 4.993 47.397C 5.22 47.994 6.876 49.344 7.959 49.814C 10.68 50.996 14.644 49.855 15.867 47.538C 16.293 46.731 17.022 46.778 17.571 47.647C 19.756 51.108 26.208 51.117 28.15 47.661C 28.704 46.676 29.522 46.696 30.019 47.708C 31.653 51.039 38.08 51.107 40.442 47.82C 41.241 46.708 41.902 46.694 42.407 47.779C 42.585 48.162 42.885 48.558 43.074 48.658C 43.262 48.758 43.655 49.015 43.946 49.229C 47.538 51.863 52.916 49.708 54.057 45.177C 54.255 44.392 54.48 43.704 54.558 43.647C 54.635 43.59 54.455 43.459 54.158 43.355C 53.411 43.095 53.167 43.338 53.167 44.34C 53.167 45.345 52.584 46.544 51.609 47.548C 50.936 48.24 50.529 48.523 49.5 49.015C 48.889 49.307 46.373 49.301 45.667 49.006C 44.61 48.564 43 47.253 43 46.834C 43 46.749 42.841 46.531 42.646 46.35C 42.281 46.01 42.02 45.039 42.007 43.976C 42.001 43.468 41.931 43.352 41.576 43.263C 40.933 43.102 40.833 43.259 40.833 44.427C 40.833 45.278 40.764 45.569 40.5 45.833C 40.317 46.017 40.167 46.273 40.167 46.402C 40.167 46.796 38.468 48.391 37.583 48.827C 35.226 49.989 31.096 48.639 30.411 46.483C 30.356 46.309 30.249 46.167 30.173 46.167C 29.94 46.167 29.791 45.634 29.685 44.417C 29.584 43.254 29.582 43.25 29.083 43.25L29.083 43.25L28.583 43.25L28.489 44.456C 28.417 45.382 28.311 45.752 28.031 46.05C 27.831 46.264 27.667 46.514 27.667 46.606C 27.667 47.687 24.879 49.229 22.917 49.234C 20.913 49.239 18 47.592 18 46.454C 18 46.337 17.85 46.112 17.667 45.955C 17.392 45.72 17.333 45.464 17.333 44.496C 17.333 43.208 17.202 43.035 16.445 43.322C 16.021 43.484 16 43.548 16 44.654C 16 45.663 15.945 45.876 15.583 46.266C 15.354 46.513 15.167 46.771 15.167 46.838C 15.167 47.141 13.717 48.366 12.861 48.786C 9.613 50.381 5 47.78 5 44.353C 5 43.921 4.91 43.477 4.8 43.367C 4.57 43.137 4.57 43.137 3.958 43.36M0.5 52.25C 0.5 52.509 0.406 52.667 0.25 52.667C -0.203 52.667 -0.103 55.101 0.355 55.221C 0.571 55.277 0.675 55.404 0.621 55.546C 0.512 55.828 0.561 55.839 2.333 55.941L2.333 55.941L3.75 56.021L3.694 57.011L3.637 58L28.985 58L54.333 58L54.333 57.02L54.333 56.041L55.794 55.971C 57.737 55.878 57.645 55.988 57.612 53.79L57.612 53.79L57.583 51.917L56.375 51.868C 55.183 51.819 55.167 51.824 55.167 52.237C 55.167 53.019 55.799 53 29.083 53C 2.404 53 3 53.017 3 52.244C 3 51.844 2.967 51.833 1.75 51.833C 0.528 51.833 0.5 51.843 0.5 52.25" stroke="none" fill="#F7E7B1" fill-rule="nonzero" />
    <path transform="matrix(1 0 0 0.9984286 0 0)"  d="M46.63 22.792C 46.591 23.227 46.616 23.733 46.686 23.917C 46.765 24.125 46.816 23.83 46.823 23.125C 46.835 21.821 46.732 21.644 46.63 22.792M15.5 22.816C 15.5 22.964 15.892 23.167 16.18 23.167C 16.264 23.167 16.333 23.054 16.333 22.917C 16.333 22.761 16.176 22.667 15.917 22.667C 15.688 22.667 15.5 22.734 15.5 22.816M21.09 22.822C 21.038 22.907 21.071 23.024 21.165 23.083C 21.385 23.218 22 23.026 22 22.822C 22 22.62 21.215 22.62 21.09 22.822M25.87 22.859C 25.956 23.119 26.329 23.164 26.342 22.917C 26.347 22.825 26.226 22.724 26.073 22.692C 25.899 22.656 25.823 22.719 25.87 22.859M31.667 22.929C 31.667 23.084 31.78 23.169 31.945 23.137C 32.363 23.056 32.42 22.667 32.014 22.667C 31.809 22.667 31.667 22.774 31.667 22.929M36.167 22.822C 36.167 23.026 36.782 23.218 37.001 23.083C 37.095 23.024 37.129 22.907 37.076 22.822C 36.951 22.62 36.167 22.62 36.167 22.822M41.833 22.996C 41.833 23.288 41.882 23.304 42.25 23.136C 42.479 23.032 42.667 22.884 42.667 22.807C 42.667 22.73 42.479 22.667 42.25 22.667C 41.946 22.667 41.833 22.756 41.833 22.996M16.667 23.653C 16.667 23.941 16.869 24.333 17.018 24.333C 17.1 24.333 17.167 24.146 17.167 23.917C 17.167 23.657 17.072 23.5 16.917 23.5C 16.779 23.5 16.667 23.569 16.667 23.653M20.259 23.652C 20.126 23.867 20.338 24.35 20.517 24.239C 20.716 24.117 20.71 23.5 20.51 23.5C 20.424 23.5 20.311 23.568 20.259 23.652M37.333 23.635C 37.333 23.709 37.443 23.915 37.578 24.093C 37.812 24.403 37.823 24.397 37.828 23.958C 37.831 23.66 37.746 23.5 37.583 23.5C 37.446 23.5 37.333 23.561 37.333 23.635M40.968 24.204C 40.927 24.761 40.829 24.953 40.5 25.119C 40.137 25.302 40.312 25.333 41.875 25.362C 42.86 25.381 43.872 25.401 44.123 25.406C 44.427 25.413 44.597 25.321 44.634 25.129C 44.684 24.87 44.56 24.852 43.365 24.944C 41.7 25.073 41.093 24.944 41.233 24.492C 41.288 24.313 41.38 24.017 41.436 23.833C 41.508 23.599 41.462 23.5 41.279 23.5C 41.093 23.5 41.005 23.699 40.968 24.204M27.417 24.586L27.083 25.03L23.926 25.008C 22.189 24.996 20.689 24.925 20.592 24.849C 20.493 24.771 20.208 24.84 19.935 25.009C 19.463 25.301 19.54 25.308 23.685 25.364C 28.346 25.427 28.278 25.438 27.968 24.678L27.968 24.678L27.75 24.143L27.417 24.586L46.63 22.792zM30.291 24.274C 30.244 24.352 30.151 24.672 30.084 24.983L30.084 24.983L29.963 25.55L30.606 25.443C 30.96 25.385 32.938 25.336 35 25.334C 38.725 25.332 38.747 25.33 38.25 25.021C 37.965 24.845 37.674 24.771 37.574 24.849C 37.478 24.925 35.979 24.996 34.245 25.007L34.245 25.007L31.091 25.028L30.733 24.579C 30.536 24.333 30.337 24.195 30.291 24.274M16.736 24.856C 16.655 24.988 16.135 25.017 15.049 24.952C 13.643 24.869 13.486 24.888 13.534 25.138C 13.569 25.321 13.745 25.413 14.044 25.406C 14.295 25.401 15.26 25.382 16.189 25.365L16.189 25.365L17.878 25.333L17.455 25C 16.963 24.614 16.894 24.6 16.736 24.856M6.436 37.841C 6.08 37.904 5.72 38.077 5.636 38.227C 5.528 38.421 5.25 38.5 4.676 38.5C 3.955 38.5 3.858 38.544 3.765 38.917C 3.697 39.186 3.543 39.333 3.33 39.333C 3.138 39.333 2.988 39.455 2.971 39.625C 2.956 39.785 2.926 40.029 2.906 40.167C 2.885 40.304 2.861 40.577 2.851 40.772C 2.841 40.975 2.694 41.164 2.509 41.213C 2.026 41.339 1.973 51.441 2.454 51.613C 2.617 51.671 2.9 51.897 3.083 52.114L3.083 52.114L3.417 52.511L29.083 52.508C 56.533 52.505 55.167 52.542 55.167 51.801C 55.167 51.727 55.309 51.667 55.482 51.667C 55.976 51.667 56 51.425 56 46.475C 56 41.829 55.928 41.167 55.42 41.167C 55.253 41.167 55.169 40.91 55.134 40.292C 55.09 39.537 55.033 39.41 54.719 39.365C 54.491 39.332 54.334 39.175 54.302 38.948C 54.258 38.638 54.127 38.576 53.435 38.532C 52.884 38.497 52.534 38.377 52.352 38.161C 52.168 37.942 51.808 37.822 51.207 37.778C 50.484 37.725 50.364 37.753 50.519 37.94C 50.665 38.115 50.596 38.28 50.211 38.673L50.211 38.673L49.716 39.18L29.1 39.18L8.485 39.18L8.002 38.798C 7.736 38.588 7.514 38.293 7.509 38.143C 7.497 37.781 7.221 37.704 6.436 37.841M5.215 43.029C 5.398 43.275 5.65 44.021 5.776 44.688C 5.913 45.411 6.139 46.043 6.336 46.253C 6.518 46.446 6.667 46.681 6.667 46.775C 6.667 46.868 6.948 47.167 7.292 47.439C 10.554 50.022 14.814 48.285 15.469 44.105C 15.868 41.56 17.559 41.905 18.109 44.643C 18.914 48.66 23.928 50.034 26.581 46.965C 27.303 46.13 27.436 45.824 27.765 44.262C 28.29 41.765 29.831 41.743 30.333 44.224C 31.33 49.153 36.853 50.273 39.587 46.101C 39.727 45.888 39.943 45.178 40.068 44.524C 40.571 41.882 42.233 41.6 42.646 44.085C 43.621 49.963 51.205 50.274 52.419 44.486C 52.773 42.797 53.162 42.402 54.275 42.605L54.275 42.605L55.083 42.753L55.131 44.474C 55.176 46.097 55.159 46.2 54.832 46.285C 54.641 46.335 54.34 46.661 54.162 47.008C 51.924 51.397 45.976 52.304 42.45 48.796C 41.444 47.794 41.324 47.801 40.312 48.908C 39.855 49.408 39.317 49.867 39.116 49.928C 38.915 49.989 38.635 50.14 38.494 50.263C 37.117 51.468 31.267 50.824 30.724 49.409C 30.676 49.283 30.512 49.139 30.36 49.09C 30.208 49.041 29.956 48.776 29.799 48.5C 29.516 48.002 28.5 47.746 28.5 48.173C 28.5 48.268 28.219 48.637 27.875 48.992C 25.543 51.402 20.893 51.637 18.463 49.467C 18.175 49.21 17.88 49 17.808 49C 17.735 49 17.559 48.775 17.417 48.5C 17.125 47.936 16.492 47.82 16.132 48.265C 13.801 51.137 9.926 51.832 6.771 49.943C 5.757 49.337 4.392 47.897 4.056 47.08C 3.856 46.591 3.648 46.334 3.453 46.334C 3.084 46.333 3.03 46.176 2.952 44.875C 2.917 44.302 2.846 43.791 2.794 43.738C 2.742 43.686 2.802 43.442 2.929 43.197C 3.334 42.414 4.684 42.315 5.215 43.029" stroke="none" fill="#AB663D" fill-rule="nonzero" />
    <path transform="matrix(1 0 0 0.9984286 0 0)"  d="M22.658 21.311C 21.104 21.707 19.822 22.722 19.103 24.125C 18.748 24.817 18.582 24.807 18.234 24.072C 17.346 22.203 15.617 21.25 13.111 21.25L13.111 21.25L11.306 21.25L11.278 23.138L11.25 25.025L11.708 25.117C 11.96 25.167 12.167 25.273 12.167 25.351C 12.167 25.43 12.539 25.683 12.994 25.914L12.994 25.914L13.822 26.333L29.079 26.333L44.336 26.333L45.168 25.884C 45.626 25.637 46 25.374 46 25.301C 46 25.227 46.197 25.167 46.439 25.167C 46.862 25.167 46.873 25.142 46.759 24.458C 46.592 23.46 46.591 23.367 46.723 22.25L46.723 22.25L46.84 21.25L45.334 21.196C 42.834 21.106 41.2 21.921 40.083 23.813C 39.462 24.866 39.503 24.87 38.741 23.675C 36.876 20.747 33.243 20.275 30.644 22.624C 30.279 22.953 29.877 23.472 29.749 23.778C 29.435 24.529 28.601 24.59 28.421 23.876C 28.237 23.142 26.56 21.694 25.583 21.426C 24.171 21.038 23.788 21.023 22.658 21.311M16.333 22.917C 16.333 23.186 16.181 23.226 15.764 23.066C 15.358 22.91 15.451 22.667 15.917 22.667C 16.176 22.667 16.333 22.761 16.333 22.917M22 22.822C 22 23.026 21.385 23.218 21.165 23.083C 21.071 23.024 21.038 22.907 21.09 22.822C 21.215 22.62 22 22.62 22 22.822M26.342 22.917C 26.329 23.164 25.956 23.119 25.87 22.859C 25.823 22.719 25.899 22.656 26.073 22.692C 26.226 22.724 26.347 22.825 26.342 22.917M32.292 22.875C 32.187 23.19 31.667 23.235 31.667 22.929C 31.667 22.774 31.809 22.667 32.014 22.667C 32.218 22.667 32.332 22.753 32.292 22.875M37.076 22.822C 37.129 22.907 37.095 23.024 37.001 23.083C 36.782 23.218 36.167 23.026 36.167 22.822C 36.167 22.62 36.951 22.62 37.076 22.822M42.667 22.807C 42.667 22.884 42.479 23.032 42.25 23.136C 41.882 23.304 41.833 23.288 41.833 22.996C 41.833 22.756 41.946 22.667 42.25 22.667C 42.479 22.667 42.667 22.73 42.667 22.807M17.167 23.917C 17.167 24.382 16.924 24.475 16.768 24.07C 16.608 23.653 16.648 23.5 16.917 23.5C 17.072 23.5 17.167 23.657 17.167 23.917M20.667 23.823C 20.667 24.001 20.6 24.188 20.517 24.239C 20.338 24.35 20.126 23.867 20.259 23.652C 20.423 23.386 20.667 23.489 20.667 23.823M37.828 23.958C 37.823 24.397 37.812 24.403 37.578 24.093C 37.266 23.681 37.268 23.5 37.583 23.5C 37.746 23.5 37.831 23.66 37.828 23.958M41.436 23.833C 41.38 24.017 41.288 24.313 41.233 24.492C 41.093 24.944 41.7 25.073 43.365 24.944C 44.56 24.852 44.684 24.87 44.634 25.129C 44.597 25.321 44.427 25.413 44.123 25.406C 43.872 25.401 42.86 25.381 41.875 25.362C 40.312 25.333 40.137 25.302 40.5 25.119C 40.829 24.953 40.927 24.761 40.968 24.204C 41.005 23.699 41.093 23.5 41.279 23.5C 41.462 23.5 41.508 23.599 41.436 23.833M28.052 25.317C 27.977 25.375 26.012 25.396 23.685 25.364C 19.54 25.308 19.463 25.301 19.935 25.009C 20.208 24.84 20.493 24.771 20.592 24.849C 20.689 24.925 22.189 24.996 23.926 25.008L23.926 25.008L27.083 25.03L27.417 24.586L27.75 24.143L27.968 24.678C 28.088 24.972 28.126 25.26 28.052 25.317M34.245 25.007C 35.979 24.996 37.478 24.925 37.574 24.849C 37.674 24.771 37.965 24.845 38.25 25.021C 38.747 25.33 38.725 25.332 35 25.334C 32.938 25.336 30.96 25.385 30.606 25.443L30.606 25.443L29.963 25.55L30.084 24.983C 30.266 24.136 30.342 24.089 30.733 24.579L30.733 24.579L31.091 25.028L34.245 25.007L22.658 21.311zM17.455 25L17.878 25.333L16.189 25.365C 15.26 25.382 14.295 25.401 14.044 25.406C 13.745 25.413 13.569 25.321 13.534 25.138C 13.486 24.888 13.643 24.869 15.049 24.952C 16.135 25.017 16.655 24.988 16.736 24.856C 16.894 24.6 16.963 24.614 17.455 25M11.097 29.94C 10.916 30.409 10.951 36.184 11.136 36.369C 11.455 36.689 11.524 36.121 11.524 33.17C 11.524 30.301 11.38 29.208 11.097 29.94M46.759 29.94C 46.568 30.418 46.599 36.166 46.794 36.361C 47.123 36.69 47.191 36.145 47.191 33.17C 47.191 30.289 47.048 29.218 46.759 29.94M15.069 30.054C 14.965 30.173 14.942 30.402 15.015 30.589C 15.218 31.108 15.191 35.309 14.983 35.699C 14.797 36.047 15.043 36.393 15.397 36.281C 15.505 36.248 15.589 31.402 15.507 29.958C 15.496 29.771 15.273 29.819 15.069 30.054M26.92 29.994C 26.751 30.269 26.771 36.23 26.942 36.284C 27.309 36.399 27.511 36.052 27.34 35.6C 27.115 35.009 27.115 31.324 27.34 30.732C 27.532 30.228 27.169 29.591 26.92 29.994M30.923 29.989C 30.644 30.442 30.796 36.25 31.087 36.25C 31.337 36.25 31.366 35.938 31.366 33.191C 31.366 30.356 31.244 29.471 30.923 29.989M42.652 29.957C 42.635 30.101 42.639 36.184 42.656 36.376C 42.662 36.446 42.81 36.414 42.984 36.304C 43.236 36.148 43.27 36.023 43.151 35.709C 43.068 35.49 43 34.346 43 33.167C 43 31.987 43.068 30.843 43.151 30.624C 43.27 30.31 43.236 30.186 42.984 30.029C 42.81 29.92 42.66 29.887 42.652 29.957M19.025 30.13L18.634 30.194L19.008 30.592C 19.416 31.026 19.667 30.991 19.667 30.5C 19.667 30.12 19.538 30.046 19.025 30.13M22.823 30.099C 22.622 31.437 22.846 36.241 23.107 36.192C 23.524 36.115 23.52 36.131 23.244 35.598C 22.898 34.931 22.898 31.198 23.245 30.74C 23.379 30.562 23.492 30.369 23.495 30.311C 23.5 30.196 22.84 29.988 22.823 30.099M34.847 30.155C 34.646 30.282 34.655 30.375 34.91 30.763C 35.25 31.282 35.213 34.817 34.857 35.708C 34.708 36.084 34.719 36.167 34.921 36.167C 35.056 36.167 35.213 36.167 35.27 36.167C 35.433 36.167 35.392 30.102 35.229 30.051C 35.149 30.026 34.977 30.073 34.847 30.155M38.5 30.49C 38.5 30.995 38.749 31.028 39.171 30.578L39.171 30.578L39.558 30.167L39.029 30.167C 38.616 30.167 38.5 30.238 38.5 30.49M19.242 35.469C 18.665 35.884 18.626 36.167 19.146 36.167C 19.55 36.167 19.667 36.094 19.667 35.843C 19.667 35.473 19.474 35.303 19.242 35.469M38.6 35.456C 38.295 35.76 38.525 36.167 39.001 36.167C 39.459 36.167 39.485 36.138 39.297 35.837C 39.07 35.473 38.754 35.301 38.6 35.456M7.459 38.049C 7.501 38.251 7.749 38.588 8.01 38.798L8.01 38.798L8.485 39.18L29.1 39.18L49.716 39.18L50.205 38.68C 50.474 38.404 50.646 38.101 50.587 38.006C 50.411 37.721 50.167 37.811 50.167 38.161C 50.167 38.833 50.152 38.833 29.136 38.831C 8.013 38.829 8 38.828 8 38.32C 8 38.15 7.861 37.937 7.691 37.846C 7.427 37.705 7.393 37.735 7.459 38.049M3.622 42.641C 3.14 42.755 2.563 43.583 2.845 43.757C 2.93 43.81 3 43.751 3 43.626C 3 43.325 4.612 42.979 4.813 43.237C 4.891 43.336 4.998 43.792 5.051 44.25C 5.792 50.617 15.364 50.617 15.986 44.25C 16.146 42.608 17.5 42.703 17.5 44.356C 17.5 47.666 22.196 50.26 25.25 48.637C 26.831 47.797 28.333 45.7 28.333 44.332C 28.333 43.37 28.464 43.167 29.083 43.167C 29.71 43.167 29.833 43.367 29.833 44.389C 29.833 45.767 31.287 47.786 32.883 48.625C 35.343 49.917 39.031 48.641 40.073 46.136C 40.213 45.799 40.404 45.476 40.497 45.418C 40.591 45.361 40.669 44.924 40.672 44.448C 40.683 42.659 42.008 42.486 42.181 44.251C 42.808 50.663 52.137 50.662 53.076 44.25C 53.244 43.102 53.347 43.011 54.251 43.218C 55.11 43.415 55.387 44.448 54.683 44.825C 54.509 44.918 54.218 45.431 54.038 45.966C 52.768 49.725 48.294 51.546 44.625 49.797C 43.915 49.458 43.333 49.114 43.333 49.034C 43.333 48.953 43.146 48.801 42.917 48.697C 42.688 48.593 42.5 48.405 42.5 48.279C 42.5 47.395 41.232 47.055 40.682 47.792C 38.083 51.27 31.883 51.318 29.906 47.875C 29.657 47.441 29.488 47.333 29.061 47.333C 28.639 47.333 28.456 47.447 28.188 47.875C 26.058 51.275 19.945 51.275 17.529 47.875C 16.988 47.114 16.281 47.12 15.828 47.889C 13.324 52.133 5.574 50.805 4.094 45.878C 3.902 45.239 3.673 44.805 3.498 44.749C 3.342 44.7 3.136 44.492 3.039 44.288C 2.903 43.999 2.882 44.138 2.946 44.917C 3.051 46.207 3.096 46.333 3.453 46.334C 3.648 46.334 3.856 46.591 4.056 47.08C 4.392 47.897 5.757 49.337 6.771 49.943C 9.926 51.832 13.801 51.137 16.132 48.265C 16.492 47.82 17.125 47.936 17.417 48.5C 17.559 48.775 17.735 49 17.808 49C 17.88 49 18.175 49.21 18.463 49.467C 20.893 51.637 25.543 51.402 27.875 48.992C 28.219 48.637 28.5 48.268 28.5 48.173C 28.5 47.746 29.516 48.002 29.799 48.5C 29.956 48.776 30.208 49.041 30.36 49.09C 30.512 49.139 30.676 49.283 30.724 49.409C 31.267 50.824 37.117 51.468 38.494 50.263C 38.635 50.14 38.915 49.989 39.116 49.928C 39.317 49.867 39.855 49.408 40.312 48.908C 41.324 47.801 41.444 47.794 42.45 48.796C 45.976 52.304 51.924 51.397 54.162 47.008C 54.34 46.661 54.641 46.335 54.832 46.285C 55.159 46.2 55.176 46.097 55.131 44.474L55.131 44.474L55.083 42.753L54.275 42.605C 53.162 42.402 52.773 42.797 52.419 44.486C 51.205 50.274 43.621 49.963 42.646 44.085C 42.233 41.6 40.571 41.882 40.068 44.524C 39.291 48.603 34.343 50.085 31.664 47.041C 30.868 46.137 30.609 45.588 30.333 44.224C 29.831 41.743 28.29 41.765 27.765 44.262C 27.436 45.824 27.303 46.13 26.581 46.965C 23.928 50.034 18.914 48.66 18.109 44.643C 17.559 41.905 15.868 41.56 15.469 44.105C 14.814 48.285 10.554 50.022 7.292 47.439C 6.948 47.167 6.667 46.868 6.667 46.775C 6.667 46.681 6.518 46.446 6.336 46.253C 6.139 46.043 5.913 45.411 5.776 44.688C 5.425 42.83 4.907 42.338 3.622 42.641M54.917 52.25C 54.701 52.585 3.633 52.651 3.23 52.317C 3.051 52.168 3 52.184 3 52.39C 3 52.994 3.262 53 29.124 53C 56.037 53 55.299 53.021 55.143 52.276C 55.09 52.023 55.065 52.02 54.917 52.25" stroke="none" fill="#D6A95F" fill-rule="nonzero" />
    <path transform="matrix(1 0 0 0.9984286 0 0)"  d="M15.505 5.657C 15.188 6.249 15.375 7.893 15.752 7.833C 15.838 7.82 15.936 7.891 15.97 7.993C 16.004 8.094 15.935 8.156 15.817 8.13C 15.266 8.01 15.19 10.12 15.737 10.328C 15.958 10.413 16.202 10.593 16.279 10.73C 16.621 11.341 18.5 11.137 18.5 10.488C 18.5 10.403 18.575 10.333 18.667 10.333C 18.758 10.333 18.833 10.448 18.833 10.589C 18.833 10.916 19.441 11.145 20.083 11.061C 21.039 10.935 21.171 10.895 21.377 10.674C 21.544 10.494 21.535 10.474 21.333 10.571C 21.196 10.637 21.226 10.576 21.4 10.434C 21.573 10.293 21.77 10.211 21.837 10.252C 22.145 10.442 21.951 8.468 21.633 8.171C 21.424 7.976 21.372 7.829 21.487 7.758C 21.586 7.697 21.674 7.708 21.683 7.782C 21.726 8.127 21.969 7.006 21.983 6.395C 22.008 5.386 21.915 5.357 18.627 5.347C 15.881 5.338 15.665 5.359 15.505 5.657M22.667 5.592C 22.234 5.831 21.962 7 22.34 7C 22.439 7 22.477 7.069 22.425 7.153C 22.373 7.238 22.443 7.42 22.582 7.558C 22.904 7.881 22.9 8.15 22.566 8.519C 22.017 9.126 22.22 10.625 22.817 10.375C 22.872 10.352 22.918 10.39 22.919 10.458C 22.927 10.854 23.254 10.98 24.232 10.964C 25.171 10.949 25.279 10.913 25.208 10.64C 25.141 10.384 25.227 10.333 25.731 10.333C 26.062 10.333 26.324 10.39 26.314 10.458C 26.224 11.024 26.899 11.258 27.587 10.901C 27.82 10.78 28.108 10.719 28.227 10.764C 28.482 10.862 28.513 10.744 28.58 9.417C 28.608 8.867 28.564 8.29 28.482 8.135C 28.4 7.98 28.394 7.815 28.469 7.769C 28.636 7.666 28.722 6.104 28.585 5.671C 28.455 5.263 23.386 5.195 22.667 5.592M29.616 5.439C 29.429 5.627 29.483 7.583 29.681 7.781C 29.812 7.912 29.812 7.994 29.681 8.074C 29.579 8.138 29.5 8.693 29.5 9.353C 29.5 10.201 29.553 10.487 29.695 10.399C 29.826 10.318 29.855 10.369 29.784 10.554C 29.707 10.755 29.79 10.853 30.089 10.915C 30.315 10.962 30.689 11.039 30.921 11.088C 31.228 11.152 31.446 11.062 31.732 10.754C 32.195 10.254 32.755 10.209 32.993 10.653C 33.274 11.179 34.97 11.1 35.179 10.551C 35.263 10.329 35.397 10.186 35.475 10.235C 35.61 10.318 36 9.652 36 9.337C 36 9.257 35.882 9.073 35.738 8.929C 35.587 8.777 35.556 8.667 35.665 8.667C 35.768 8.667 35.804 8.587 35.743 8.489C 35.683 8.391 35.592 8.352 35.541 8.403C 35.491 8.453 35.356 8.367 35.242 8.211C 35.067 7.971 35.098 7.871 35.442 7.576C 35.974 7.119 36.08 6.302 35.673 5.799C 35.361 5.413 29.963 5.093 29.616 5.439M36.436 5.588C 36.005 6.019 36.071 7.414 36.537 7.741C 36.816 7.936 36.842 8 36.64 8C 36.012 8 35.961 10.097 36.583 10.333C 36.813 10.42 37 10.529 37 10.574C 37 10.619 36.887 10.613 36.75 10.56C 36.248 10.368 36.516 10.669 37.042 10.888C 37.945 11.264 39.324 11.05 39.344 10.53C 39.351 10.329 39.397 10.356 39.505 10.625C 39.588 10.831 39.79 11.007 39.953 11.014C 40.116 11.022 40.512 11.056 40.833 11.089C 41.428 11.15 42.251 10.772 42.091 10.512C 42.043 10.434 42.157 10.331 42.344 10.282C 42.75 10.176 42.781 8.044 42.375 8.125C 42.079 8.184 42.116 7.722 42.417 7.606C 42.801 7.459 42.765 5.731 42.374 5.522C 41.818 5.224 36.742 5.281 36.436 5.588M18.424 14.78C 18.362 15.026 18.129 15.445 17.906 15.71C 17.683 15.975 17.5 16.25 17.5 16.32C 17.5 16.39 17.219 16.591 16.875 16.765C 16.531 16.94 16.159 17.205 16.048 17.353C 15.933 17.506 15.467 17.672 14.969 17.738C 14.486 17.802 14.001 17.93 13.89 18.022C 13.754 18.135 13.579 18.131 13.355 18.012C 13.172 17.914 12.694 17.833 12.294 17.833C 11.894 17.833 11.477 17.743 11.367 17.633C 11.211 17.478 11.167 17.857 11.167 19.342L11.167 19.342L11.167 21.25L13.042 21.25C 15.622 21.25 17.337 22.182 18.234 24.072C 18.59 24.824 18.748 24.819 19.151 24.042C 20.474 21.493 24.221 20.294 26.398 21.723C 27.165 22.226 28.315 23.451 28.422 23.88C 28.601 24.59 29.436 24.526 29.749 23.778C 29.877 23.472 30.279 22.953 30.644 22.624C 33.243 20.275 36.876 20.747 38.741 23.675C 39.503 24.87 39.462 24.866 40.083 23.813C 41.193 21.932 42.857 21.096 45.296 21.193C 46.483 21.24 46.754 21.205 46.793 21C 46.861 20.639 43.977 20.535 43.448 20.879C 43.248 21.009 42.809 21.206 42.474 21.316C 41.492 21.638 40.333 22.706 39.756 23.823C 39.476 24.363 39.023 24.204 39.005 23.56C 38.995 23.193 37.149 21.52 36.534 21.32C 36.194 21.21 35.769 21.017 35.588 20.893C 35.086 20.548 33.522 20.608 32.79 21C 32.448 21.183 32.074 21.334 31.959 21.334C 31.598 21.335 29.71 23.139 29.596 23.59C 29.453 24.163 28.613 24.127 28.531 23.545C 28.475 23.153 26.565 21.335 26.208 21.334C 26.093 21.334 25.719 21.183 25.377 21C 24.645 20.608 23.08 20.548 22.579 20.893C 22.398 21.017 21.975 21.209 21.639 21.318C 20.915 21.553 19.46 22.933 19.071 23.753C 18.735 24.461 18.584 24.481 18.363 23.847C 18.049 22.946 16.665 21.635 15.692 21.316C 15.357 21.206 14.914 21.006 14.708 20.872C 14.428 20.69 13.976 20.646 12.927 20.699C 11.619 20.766 11.516 20.747 11.43 20.427C 11.274 19.846 11.324 18.192 11.5 18.083C 11.603 18.02 11.667 18.307 11.667 18.833C 11.667 19.36 11.731 19.647 11.833 19.583C 11.925 19.527 12 19.31 12 19.101C 12 18.556 12.149 18.483 12.514 18.847C 12.889 19.223 13.779 19.269 14.255 18.937C 14.435 18.811 14.98 18.654 15.465 18.587C 16.134 18.496 16.411 18.37 16.61 18.067C 16.754 17.847 16.954 17.667 17.055 17.667C 17.155 17.667 17.593 17.278 18.028 16.803L18.028 16.803L18.818 15.939L18.988 16.386C 19.082 16.632 19.261 16.833 19.386 16.833C 19.511 16.833 19.699 17.021 19.803 17.25C 19.911 17.488 20.133 17.667 20.319 17.667C 20.498 17.667 20.691 17.813 20.747 17.991C 20.852 18.322 20.99 18.389 21.97 18.587C 22.274 18.648 22.724 18.803 22.97 18.931C 23.538 19.228 24.332 19.232 24.755 18.94C 24.935 18.815 25.433 18.661 25.861 18.598C 26.426 18.515 26.712 18.372 26.907 18.075C 27.054 17.851 27.292 17.667 27.435 17.667C 27.578 17.667 27.928 17.404 28.212 17.083C 28.497 16.761 28.887 16.5 29.083 16.5C 29.28 16.5 29.669 16.761 29.955 17.083C 30.239 17.404 30.589 17.667 30.732 17.667C 30.875 17.667 31.113 17.851 31.26 18.075C 31.454 18.372 31.74 18.515 32.306 18.598C 32.733 18.661 33.231 18.815 33.412 18.94C 33.843 19.238 34.631 19.226 35.23 18.914C 35.495 18.776 36.006 18.616 36.367 18.559C 36.786 18.492 37.112 18.317 37.27 18.076C 37.406 17.868 37.696 17.654 37.914 17.599C 38.133 17.544 38.359 17.349 38.417 17.166C 38.475 16.983 38.632 16.833 38.765 16.833C 38.899 16.833 39.081 16.643 39.169 16.41L39.169 16.41L39.33 15.986L39.915 16.571C 40.237 16.892 40.5 17.232 40.5 17.325C 40.5 17.418 40.684 17.54 40.908 17.596C 41.132 17.652 41.429 17.871 41.568 18.083C 41.755 18.368 42.046 18.498 42.701 18.587C 43.186 18.654 43.731 18.811 43.912 18.937C 44.29 19.201 45.1 19.243 45.246 19.007C 45.3 18.92 45.454 18.89 45.589 18.942C 45.723 18.993 45.833 18.953 45.833 18.851C 45.833 18.75 45.908 18.667 46 18.667C 46.092 18.667 46.167 18.854 46.167 19.083C 46.167 19.754 46.497 19.562 46.526 18.875C 46.55 18.301 46.562 18.319 46.667 19.083L46.667 19.083L46.781 19.917L46.807 18.82L46.833 17.723L45.958 17.793C 45.477 17.832 44.913 17.973 44.705 18.105C 44.378 18.313 44.315 18.313 44.236 18.106C 44.184 17.972 43.803 17.82 43.364 17.758C 42.277 17.605 42.001 17.508 41.996 17.28C 41.993 17.172 41.712 16.952 41.371 16.791C 40.785 16.515 39.881 15.393 39.593 14.583C 39.489 14.29 39.438 14.324 39.168 14.876C 38.771 15.686 38.067 16.525 37.552 16.803C 37.328 16.924 37.011 17.156 36.848 17.318C 36.686 17.481 36.192 17.664 35.751 17.724C 35.311 17.784 34.848 17.919 34.723 18.022C 34.552 18.164 34.279 18.146 33.623 17.951C 33.143 17.808 32.469 17.645 32.125 17.588C 31.761 17.528 31.5 17.391 31.5 17.259C 31.5 17.134 31.275 16.954 31 16.858C 30.725 16.762 30.5 16.566 30.5 16.421C 30.5 16.277 30.323 16.091 30.107 16.009C 29.851 15.912 29.677 15.676 29.609 15.335C 29.463 14.608 28.614 14.647 28.53 15.384C 28.494 15.697 28.343 15.901 28.071 16.005C 27.849 16.089 27.667 16.277 27.667 16.421C 27.667 16.566 27.442 16.762 27.167 16.858C 26.892 16.954 26.667 17.134 26.667 17.259C 26.667 17.391 26.406 17.528 26.042 17.588C 25.698 17.645 25.024 17.808 24.544 17.951C 23.917 18.138 23.61 18.161 23.456 18.033C 23.338 17.935 22.844 17.802 22.358 17.738C 21.767 17.659 21.41 17.517 21.28 17.31C 21.174 17.14 20.995 17 20.882 17C 20.55 17 19.182 15.468 18.987 14.878C 18.769 14.217 18.574 14.183 18.424 14.78M11.167 25.163C 11.167 25.259 10.746 25.334 10.208 25.336C 9.175 25.339 8.951 25.423 8.785 25.875C 8.726 26.035 8.525 26.167 8.339 26.167C 8.152 26.167 7.994 26.223 7.986 26.292C 7.907 27.014 7.763 27.454 7.491 27.8C 7.188 28.184 7.167 28.507 7.167 32.681L7.167 32.681L7.167 37.149L7.583 37.599C 7.812 37.846 8 38.179 8 38.338C 8 38.825 8.145 38.829 29.136 38.831C 49.936 38.833 50.163 38.827 50.17 38.202C 50.171 38.045 50.359 37.74 50.586 37.524L50.586 37.524L51 37.132L51 32.662L51 28.192L50.583 27.697C 50.335 27.401 50.167 26.993 50.167 26.684C 50.167 26.25 50.103 26.167 49.768 26.167C 49.482 26.167 49.34 26.049 49.265 25.75C 49.168 25.365 49.086 25.333 48.184 25.333C 47.648 25.333 46.955 25.294 46.646 25.247C 46.209 25.18 46.158 25.196 46.417 25.318C 46.6 25.405 46.661 25.482 46.553 25.488C 46.445 25.495 46.333 25.653 46.303 25.84C 46.274 26.027 46.175 26.173 46.083 26.166C 45.992 26.158 45.94 26.005 45.969 25.826C 46.035 25.411 45.997 25.415 45.099 25.917L45.099 25.917L44.353 26.333L29.087 26.333L13.822 26.333L13.01 25.922C 12.563 25.695 12.172 25.444 12.141 25.364C 12.055 25.145 11.167 24.962 11.167 25.163M12.142 25.763C 12.311 26.134 12.3 26.185 12.06 26.138C 11.908 26.108 11.757 25.915 11.726 25.708C 11.649 25.201 11.901 25.234 12.142 25.763M11.524 33.17C 11.524 36.121 11.455 36.689 11.136 36.369C 10.951 36.184 10.916 30.409 11.097 29.94C 11.38 29.208 11.524 30.301 11.524 33.17M17.295 33.137C 17.236 37.334 16.934 37.532 16.869 33.417C 16.82 30.33 16.892 29.492 17.18 29.78C 17.275 29.875 17.322 31.237 17.295 33.137M21.488 33.111C 21.5 35.93 21.443 36.5 21.149 36.5C 20.973 36.5 20.945 29.944 21.12 29.769C 21.381 29.507 21.477 30.375 21.488 33.111M25.486 33.167C 25.491 34.771 25.431 36.183 25.354 36.306C 25.105 36.698 25.069 36.216 25.111 33.083C 25.16 29.404 25.153 29.498 25.333 29.917C 25.412 30.1 25.481 31.563 25.486 33.167M33.052 33.094C 33.076 35.604 33.034 36.405 32.875 36.458C 32.65 36.533 32.555 30.001 32.778 29.778C 32.997 29.558 33.021 29.845 33.052 33.094M37.167 33.177C 37.167 36.184 37.06 36.999 36.768 36.236C 36.637 35.896 36.64 30.533 36.771 30.044C 37.032 29.071 37.167 30.14 37.167 33.177M41.164 33.208C 41.162 35.557 41.107 36.666 41 36.5C 40.704 36.042 40.799 29.667 41.101 29.667C 41.137 29.667 41.166 31.26 41.164 33.208M47.191 33.17C 47.191 36.145 47.123 36.69 46.794 36.361C 46.599 36.166 46.568 30.418 46.759 29.94C 47.048 29.218 47.191 30.289 47.191 33.17M15.507 29.958C 15.589 31.402 15.505 36.248 15.397 36.281C 15.043 36.393 14.797 36.047 14.983 35.699C 15.191 35.309 15.218 31.108 15.015 30.589C 14.942 30.402 14.965 30.173 15.069 30.054C 15.273 29.819 15.496 29.771 15.507 29.958M27.34 30.732C 27.115 31.324 27.115 35.009 27.34 35.6C 27.511 36.052 27.309 36.399 26.942 36.284C 26.771 36.23 26.751 30.269 26.92 29.994C 27.169 29.591 27.532 30.228 27.34 30.732M31.366 33.191C 31.366 35.938 31.337 36.25 31.087 36.25C 30.796 36.25 30.644 30.442 30.923 29.989C 31.244 29.471 31.366 30.356 31.366 33.191M43.151 30.624C 43.068 30.843 43 31.987 43 33.167C 43 34.346 43.068 35.49 43.151 35.709C 43.27 36.023 43.236 36.148 42.984 36.304C 42.81 36.414 42.662 36.446 42.656 36.376C 42.639 36.184 42.635 30.101 42.652 29.957C 42.66 29.887 42.81 29.92 42.984 30.029C 43.236 30.186 43.27 30.31 43.151 30.624M9.667 33.194C 9.667 34.951 9.622 36.344 9.567 36.289C 9.512 36.235 9.471 34.835 9.476 33.178C 9.485 29.725 9.476 30 9.583 30C 9.629 30 9.667 31.438 9.667 33.194M19.667 30.5C 19.667 30.991 19.416 31.026 19.008 30.592L19.008 30.592L18.634 30.194L19.025 30.13C 19.538 30.046 19.667 30.12 19.667 30.5M23.495 30.311C 23.492 30.369 23.379 30.562 23.245 30.74C 22.898 31.198 22.898 34.931 23.244 35.598C 23.52 36.131 23.524 36.115 23.107 36.192C 22.846 36.241 22.622 31.437 22.823 30.099C 22.84 29.988 23.5 30.196 23.495 30.311M35.374 33.132C 35.374 34.801 35.327 36.167 35.27 36.167C 35.213 36.167 35.056 36.167 34.921 36.167C 34.719 36.167 34.708 36.084 34.857 35.708C 35.213 34.817 35.25 31.282 34.91 30.763C 34.655 30.375 34.646 30.282 34.847 30.155C 35.322 29.855 35.374 30.151 35.374 33.132M45.333 33.2C 45.333 34.96 45.277 36.329 45.208 36.242C 45.08 36.078 45.13 30 45.261 30C 45.301 30 45.333 31.44 45.333 33.2M48.699 33.167C 48.699 34.829 48.654 36.235 48.6 36.289C 48.545 36.344 48.5 34.939 48.5 33.167C 48.5 31.394 48.545 29.989 48.6 30.044C 48.654 30.099 48.699 31.504 48.699 33.167M39.171 30.578C 38.749 31.028 38.5 30.995 38.5 30.49C 38.5 30.238 38.616 30.167 39.029 30.167L39.029 30.167L39.558 30.167L39.171 30.578L15.505 5.657zM19.667 35.843C 19.667 36.094 19.55 36.167 19.146 36.167C 18.675 36.167 18.647 36.139 18.855 35.875C 19.333 35.264 19.667 35.251 19.667 35.843M39.297 35.837C 39.485 36.138 39.459 36.167 39.001 36.167C 38.626 36.167 38.5 36.09 38.5 35.861C 38.5 35.257 38.926 35.244 39.297 35.837M13.017 36.216C 12.883 36.35 12.835 36.267 12.838 35.908C 12.843 35.477 12.866 35.455 13.022 35.724C 13.151 35.945 13.149 36.084 13.017 36.216M11.796 37.866C 11.383 37.976 11.022 37.975 10.713 37.862C 10.319 37.718 10.411 37.694 11.333 37.697C 12.358 37.701 12.383 37.71 11.796 37.866M15.878 37.869C 15.617 37.994 15.292 37.997 14.794 37.878L14.794 37.878L14.083 37.707L15.167 37.698C 16.056 37.691 16.183 37.721 15.878 37.869M19.708 37.874C 19.332 37.995 19.001 37.995 18.625 37.874C 18.132 37.716 18.18 37.701 19.167 37.701C 20.154 37.701 20.202 37.716 19.708 37.874M23.63 37.866C 23.216 37.976 22.855 37.975 22.546 37.862C 22.152 37.718 22.244 37.694 23.167 37.697C 24.191 37.701 24.216 37.71 23.63 37.866M27.62 37.862C 27.312 37.975 26.95 37.976 26.537 37.866C 25.95 37.71 25.975 37.701 27 37.697C 27.923 37.694 28.015 37.718 27.62 37.862M31.649 37.861C 31.262 37.965 30.846 37.964 30.482 37.859C 29.982 37.716 30.052 37.697 31.083 37.699C 32.138 37.701 32.192 37.717 31.649 37.861M35.62 37.862C 35.312 37.975 34.95 37.976 34.537 37.866C 33.95 37.71 33.975 37.701 35 37.697C 35.923 37.694 36.015 37.718 35.62 37.862M39.542 37.874C 39.166 37.995 38.834 37.995 38.458 37.874C 37.965 37.716 38.013 37.701 39 37.701C 39.987 37.701 40.035 37.716 39.542 37.874M43.444 37.871C 43.01 37.985 42.635 37.985 42.277 37.87C 41.814 37.721 41.891 37.701 42.917 37.701C 44.015 37.701 44.046 37.711 43.444 37.871M47.454 37.862C 47.145 37.975 46.784 37.976 46.37 37.866C 45.784 37.71 45.809 37.701 46.833 37.697C 47.756 37.694 47.848 37.718 47.454 37.862M3.458 43.286C 2.758 43.392 2.943 44.833 3.657 44.833C 3.73 44.833 3.885 45.173 4.001 45.588C 4.118 46.003 4.241 46.314 4.277 46.279C 4.388 46.168 3.775 43.833 3.634 43.833C 3.319 43.833 3.537 43.514 3.958 43.36C 4.429 43.188 4.264 43.164 3.458 43.286M41.7 43.27C 41.892 43.327 42.003 43.578 42.047 44.052L42.047 44.052L42.111 44.75L42.097 44.001C 42.086 43.381 42.027 43.247 41.75 43.219C 41.507 43.195 41.493 43.209 41.7 43.27M54.227 43.352C 54.49 43.455 54.637 43.588 54.554 43.645C 54.471 43.703 54.273 44.313 54.113 45C 53.954 45.688 53.732 46.41 53.62 46.605C 53.508 46.8 53.312 47.137 53.184 47.355C 52.953 47.748 52.954 47.748 53.302 47.439C 53.495 47.268 53.812 46.648 54.007 46.062C 54.211 45.45 54.498 44.924 54.681 44.826C 55.055 44.625 55.151 43.335 54.792 43.331C 54.677 43.33 54.396 43.291 54.167 43.246C 53.808 43.175 53.817 43.189 54.227 43.352M17.359 44.543C 17.338 45.483 17.389 45.717 17.667 45.955C 17.85 46.112 18 46.337 18 46.454C 18 47.116 20.771 49.191 21.602 49.152C 21.775 49.143 21.665 49.064 21.357 48.975C 19.497 48.44 17.695 46.315 17.492 44.417L17.492 44.417L17.384 43.417L17.359 44.543zM28.36 44.25C 28.342 44.761 28.203 45.277 28 45.583C 27.575 46.225 27.574 46.469 27.997 46.086C 28.383 45.737 28.551 45.001 28.457 44.076C 28.394 43.46 28.387 43.471 28.36 44.25M29.689 44.267C 29.666 45.142 29.926 46.167 30.172 46.167C 30.248 46.167 30.356 46.309 30.411 46.483C 30.698 47.385 33.075 49.19 33.928 49.152C 34.178 49.141 34.156 49.109 33.833 49.011C 31.771 48.381 30.079 46.437 29.834 44.417L29.834 44.417L29.712 43.417L29.689 44.267zM40.667 44.362C 40.667 44.931 40.573 45.328 40.39 45.53C 40.238 45.698 40.169 45.891 40.237 45.959C 40.505 46.227 40.833 45.406 40.833 44.468C 40.833 43.936 40.796 43.5 40.75 43.5C 40.704 43.5 40.667 43.888 40.667 44.362M52.96 44.708C 52.918 45.006 52.829 45.4 52.762 45.583C 52.641 45.912 52.643 45.912 52.903 45.593C 53.048 45.415 53.167 45.021 53.167 44.718C 53.167 44.014 53.059 44.008 52.96 44.708M5.019 44.926C 5.009 45.115 5.11 45.415 5.245 45.593C 5.379 45.771 5.492 45.838 5.495 45.742C 5.498 45.645 5.432 45.495 5.35 45.408C 5.267 45.321 5.163 45.1 5.119 44.917C 5.041 44.591 5.038 44.592 5.019 44.926M15.417 46.023C 14.871 47.124 13.899 48.129 12.936 48.585C 12.598 48.746 12.358 48.914 12.403 48.959C 12.637 49.192 15.167 47.245 15.167 46.832C 15.167 46.768 15.354 46.513 15.583 46.266C 15.813 46.018 16 45.633 16 45.408C 16 44.857 15.988 44.869 15.417 46.023M42.167 45.385C 42.167 45.622 42.354 46.018 42.583 46.266C 42.813 46.513 43 46.777 43 46.852C 43 47.48 45.781 49.348 46.367 49.113C 46.492 49.063 46.443 49.02 46.25 49.012C 45.214 48.966 43.504 47.491 42.684 45.935C 42.269 45.147 42.167 45.038 42.167 45.385M5.501 46.053C 5.497 46.84 7.78 48.859 8.917 49.074L8.917 49.074L9.417 49.169L8.917 48.975C 7.745 48.521 6.43 47.439 5.808 46.419C 5.639 46.143 5.501 45.978 5.501 46.053M52.428 46.279C 52.303 46.647 51.789 47.231 50.948 47.958C 50.603 48.256 50.392 48.5 50.479 48.5C 50.877 48.5 52.833 46.277 52.621 46.066C 52.571 46.016 52.484 46.112 52.428 46.279M40 46.34C 40 46.935 37.866 48.645 36.667 49.011C 36.356 49.106 36.33 49.142 36.565 49.152C 37.144 49.179 38.407 48.426 39.291 47.527C 40.038 46.768 40.388 46.167 40.083 46.167C 40.037 46.167 40 46.245 40 46.34M4.346 46.683C 4.339 46.829 4.483 47.084 4.667 47.25C 4.85 47.416 5 47.469 5 47.367C 5 47.266 4.898 47.123 4.774 47.05C 4.65 46.977 4.506 46.804 4.454 46.667C 4.374 46.454 4.358 46.456 4.346 46.683M26.836 47.367C 26.127 48.157 25.256 48.729 24.333 49.011C 24.054 49.096 24.014 49.143 24.214 49.152C 24.975 49.189 27.667 47.228 27.667 46.637C 27.667 46.442 27.662 46.447 26.836 47.367M15.867 47.538C 15.087 49.015 13.094 50.108 10.75 50.342L10.75 50.342L9.417 50.476L10.75 50.429C 12.877 50.355 14.999 49.293 15.828 47.889C 16.282 47.119 16.99 47.114 17.524 47.875C 17.928 48.451 18.122 48.633 18.917 49.187C 19.192 49.378 19.092 49.253 18.694 48.909C 18.297 48.564 17.79 47.994 17.567 47.641C 17.022 46.778 16.292 46.733 15.867 47.538M28.15 47.661C 27.823 48.242 27.056 48.989 26.352 49.41C 26.224 49.486 25.624 49.724 25.018 49.937C 24.412 50.151 24.078 50.328 24.276 50.33C 25.331 50.34 27.494 48.983 28.188 47.875C 28.456 47.447 28.639 47.333 29.061 47.333C 29.488 47.333 29.657 47.441 29.906 47.875C 30.233 48.446 30.859 49.054 31.417 49.345C 31.756 49.522 31.232 49.017 30.649 48.606C 30.502 48.502 30.219 48.098 30.021 47.708C 29.506 46.699 28.702 46.678 28.15 47.661M40.503 47.745C 39.508 49.192 37.699 50.116 35.417 50.345L35.417 50.345L34.083 50.478L35.558 50.423C 37.692 50.344 39.45 49.441 40.682 47.792C 41.101 47.231 41.752 47.188 42.189 47.692C 42.565 48.126 42.603 47.889 42.241 47.37C 41.789 46.726 41.102 46.874 40.503 47.745M5.183 47.951C 5.819 48.869 8.26 50.344 9.114 50.327C 9.281 50.324 9.042 50.183 8.583 50.013C 7.068 49.454 6.924 49.371 5.922 48.473C 5.376 47.984 5.043 47.749 5.183 47.951M52.083 48.605C 51.24 49.37 51.077 49.462 49.583 50.013C 49.125 50.183 48.9 50.321 49.083 50.321C 49.91 50.319 52.334 48.894 52.819 48.125C 53.076 47.717 53.024 47.751 52.083 48.605M42.5 48.33C 42.5 48.428 42.688 48.593 42.917 48.697C 43.146 48.801 43.333 48.953 43.333 49.034C 43.333 49.478 45.896 50.374 47.315 50.426L47.315 50.426L48.75 50.478L47.417 50.345C 46.645 50.267 45.641 50.03 45.034 49.781C 44.121 49.407 43.73 49.161 42.708 48.324C 42.565 48.207 42.5 48.209 42.5 48.33M10.211 49.286C 10.464 49.325 10.839 49.324 11.044 49.284C 11.249 49.244 11.042 49.213 10.583 49.214C 10.125 49.216 9.957 49.248 10.211 49.286M22.544 49.286C 22.797 49.325 23.172 49.324 23.377 49.284C 23.582 49.244 23.375 49.213 22.917 49.214C 22.458 49.216 22.291 49.248 22.544 49.286M34.877 49.286C 35.131 49.325 35.506 49.324 35.711 49.284C 35.916 49.244 35.708 49.213 35.25 49.214C 34.792 49.216 34.624 49.248 34.877 49.286M47.211 49.286C 47.464 49.325 47.839 49.324 48.044 49.284C 48.249 49.244 48.042 49.213 47.583 49.214C 47.125 49.216 46.957 49.248 47.211 49.286M20.25 49.928C 20.708 50.148 21.233 50.326 21.417 50.323C 21.6 50.319 21.262 50.134 20.667 49.911C 19.312 49.404 19.174 49.41 20.25 49.928M32.583 49.916C 33.042 50.143 33.567 50.327 33.75 50.323C 33.933 50.32 33.708 50.171 33.25 49.991C 31.975 49.492 31.656 49.456 32.583 49.916M22.292 50.454C 22.59 50.491 23.077 50.491 23.375 50.454C 23.673 50.417 23.429 50.387 22.833 50.387C 22.238 50.387 21.994 50.417 22.292 50.454" stroke="none" fill="#F7DF64" fill-rule="nonzero" />
    <path transform="matrix(1 0 0 0.9984286 0 0)"  d="M287.795 0.833C 287.63 1.097 287.406 1.167 286.721 1.167C 285.695 1.167 285 1.397 285 1.736C 285 1.905 284.78 1.997 284.292 2.032C 283.754 2.071 283.545 2.17 283.425 2.444C 283.311 2.703 283.063 2.836 282.55 2.913C 282.006 2.995 281.833 3.094 281.833 3.325C 281.833 3.512 281.671 3.671 281.417 3.735C 281.158 3.8 281 3.958 281 4.152C 281 4.346 280.842 4.503 280.583 4.568C 280.294 4.641 280.167 4.787 280.167 5.047C 280.167 5.275 280.02 5.485 279.792 5.585C 279.519 5.705 279.403 5.916 279.366 6.359C 279.325 6.846 279.233 6.989 278.908 7.071C 278.524 7.167 278.5 7.242 278.5 8.325C 278.5 9.393 278.473 9.481 278.125 9.53C 277.77 9.581 277.748 9.667 277.702 11.192C 277.657 12.745 277.641 12.804 277.244 12.903L277.244 12.903L276.833 13.006L276.833 27.42L276.833 41.833L277.244 41.833C 277.649 41.833 277.655 41.855 277.702 43.458C 277.748 45 277.769 45.086 278.125 45.137C 278.472 45.186 278.5 45.275 278.5 46.327C 278.5 47.401 278.523 47.47 278.917 47.568C 279.284 47.661 279.333 47.762 279.333 48.42C 279.333 49.105 279.368 49.167 279.75 49.167C 280.082 49.167 280.167 49.25 280.167 49.58C 280.167 49.88 280.279 50.022 280.574 50.096C 280.822 50.158 281.001 50.339 281.032 50.557C 281.064 50.783 281.223 50.937 281.458 50.97C 281.691 51.003 281.833 51.139 281.833 51.327C 281.833 51.669 282.149 51.833 282.807 51.833C 283.111 51.833 283.307 51.954 283.419 52.208C 283.544 52.493 283.745 52.595 284.256 52.633C 284.761 52.67 284.968 52.773 285.089 53.049C 285.23 53.372 285.397 53.423 286.458 53.466C 287.59 53.512 287.752 53.586 287.69 54.03C 287.66 54.245 289.422 54.351 292.167 54.301C 294.861 54.251 294.918 54.242 294.969 53.881C 295.019 53.533 295.113 53.509 296.636 53.464C 298.154 53.419 298.253 53.395 298.302 53.05C 298.346 52.741 298.477 52.676 299.135 52.634C 299.786 52.592 299.925 52.524 299.967 52.228C 300.006 51.956 300.173 51.848 300.682 51.767C 301.047 51.708 301.39 51.547 301.443 51.408C 301.497 51.268 301.756 51.043 302.02 50.906C 302.425 50.697 302.5 50.556 302.5 50.007C 302.5 49.459 302.559 49.348 302.875 49.303C 303.102 49.271 303.269 49.116 303.298 48.912C 303.325 48.725 303.513 48.5 303.715 48.412C 303.992 48.29 304.096 48.084 304.133 47.578C 304.17 47.072 304.273 46.866 304.549 46.744C 304.868 46.605 304.923 46.433 304.966 45.45C 305.005 44.564 305.078 44.294 305.299 44.212C 305.806 44.026 305.828 43.811 305.831 39.042L305.831 39.042L305.833 34.333L301.671 34.333L297.509 34.333L297.463 36.875C 297.43 38.674 297.36 39.417 297.222 39.417C 296.734 39.417 296.714 39.501 296.688 41.71C 296.668 43.315 296.643 43.431 296.292 43.585C 296.002 43.713 295.905 43.911 295.865 44.458C 295.82 45.084 295.767 45.167 295.407 45.167C 295.084 45.167 295 45.253 295 45.583C 295 45.965 294.938 46 294.262 46C 293.623 46 293.516 46.051 293.47 46.375C 293.418 46.739 293.352 46.751 291.292 46.797L291.292 46.797L289.167 46.843L289.167 46.422C 289.167 46.083 289.085 46 288.75 46C 288.417 46 288.333 45.917 288.333 45.583C 288.333 45.253 288.249 45.167 287.928 45.167C 287.635 45.167 287.508 45.063 287.47 44.792C 287.436 44.551 287.283 44.398 287.042 44.363C 286.705 44.316 286.667 44.217 286.667 43.394C 286.667 42.363 286.427 41.762 286.071 41.899C 285.866 41.977 285.833 39.899 285.833 27.022L285.833 27.022L285.833 12.054L286.25 11.864C 286.588 11.71 286.667 11.554 286.667 11.043C 286.667 10.549 286.748 10.377 287.042 10.248C 287.331 10.121 287.428 9.922 287.468 9.375L287.468 9.375L287.519 8.667L288.343 8.667C 289.11 8.667 289.167 8.638 289.167 8.25L289.167 8.25L289.167 7.833L291.655 7.833C 294.109 7.833 294.144 7.839 294.197 8.208C 294.23 8.444 294.384 8.602 294.609 8.635C 294.828 8.666 295.009 8.845 295.071 9.093C 295.135 9.347 295.293 9.5 295.492 9.5C 295.695 9.5 295.829 9.635 295.863 9.875C 295.898 10.116 296.051 10.269 296.292 10.303C 296.653 10.355 296.667 10.419 296.667 12.106C 296.667 13.885 296.818 14.5 297.256 14.5C 297.457 14.5 297.5 14.865 297.5 16.583L297.5 16.583L297.5 18.667L301.667 18.667L305.833 18.667L305.833 14.825L305.833 10.984L305.417 10.598C 305.053 10.261 305 10.071 305 9.109C 305 8.072 304.975 8 304.583 7.902C 304.218 7.81 304.167 7.707 304.167 7.068C 304.167 6.43 304.115 6.327 303.75 6.235C 303.469 6.165 303.333 6.014 303.331 5.774C 303.327 5.097 303.13 4.667 302.825 4.667C 302.639 4.667 302.503 4.523 302.47 4.292C 302.436 4.054 302.283 3.898 302.052 3.865C 301.825 3.832 301.668 3.675 301.635 3.449C 301.594 3.159 301.423 3.056 300.792 2.941C 300.197 2.833 300 2.723 300 2.5C 300 2.146 299.679 2 298.903 2C 298.457 2 298.333 1.932 298.333 1.687C 298.333 1.305 297.753 1.167 296.146 1.167C 295.111 1.167 295 1.134 295 0.833C 295 0.511 294.889 0.5 291.501 0.5C 288.183 0.5 287.992 0.517 287.795 0.833M67.208 1.284L66.832 1.357L66.874 27.387L66.917 53.417L76.333 53.417L85.75 53.417L85.802 53.049C 85.85 52.714 85.962 52.676 87.052 52.632C 88.15 52.587 88.254 52.552 88.303 52.208C 88.346 51.905 88.463 51.833 88.915 51.833C 89.682 51.833 90 51.685 90 51.327C 90 51.139 90.143 51.003 90.375 50.97C 90.616 50.936 90.769 50.783 90.803 50.542C 90.842 50.27 90.968 50.167 91.262 50.167C 91.583 50.167 91.667 50.08 91.667 49.75C 91.667 49.417 91.75 49.333 92.083 49.333C 92.417 49.333 92.5 49.25 92.5 48.917C 92.5 48.583 92.583 48.5 92.917 48.5C 93.247 48.5 93.333 48.416 93.333 48.095C 93.333 47.802 93.437 47.675 93.708 47.637C 94.027 47.591 94.091 47.467 94.134 46.802C 94.176 46.143 94.241 46.013 94.55 45.969C 94.884 45.921 94.921 45.808 94.966 44.708C 94.993 44.044 95.081 43.5 95.162 43.5C 95.795 43.5 95.842 43.109 95.828 37.985L95.828 37.985L95.815 33.002L95.415 32.901C 95.049 32.81 95.01 32.705 94.966 31.692C 94.923 30.727 94.868 30.562 94.542 30.419C 94.312 30.318 94.167 30.108 94.167 29.877C 94.167 29.586 94.072 29.5 93.75 29.5C 93.417 29.5 93.333 29.417 93.333 29.083C 93.333 28.75 93.25 28.667 92.917 28.667C 92.583 28.667 92.5 28.583 92.5 28.25C 92.5 27.917 92.417 27.833 92.083 27.833C 91.75 27.833 91.667 27.75 91.667 27.417C 91.667 27.083 91.583 27 91.25 27C 90.917 27 90.833 26.917 90.833 26.583C 90.833 26.196 90.777 26.167 90.019 26.167C 88.662 26.167 88.614 24.554 89.969 24.467C 90.634 24.424 90.758 24.361 90.803 24.042C 90.842 23.77 90.968 23.667 91.262 23.667C 91.583 23.667 91.667 23.58 91.667 23.25C 91.667 22.917 91.75 22.833 92.083 22.833C 92.417 22.833 92.5 22.75 92.5 22.417C 92.5 22.083 92.583 22 92.917 22C 93.245 22 93.333 21.915 93.333 21.601C 93.333 21.315 93.451 21.173 93.75 21.098C 94.114 21.007 94.167 20.903 94.167 20.274C 94.167 19.667 94.232 19.524 94.583 19.364L94.583 19.364L95 19.174L94.997 14.629C 94.995 10.025 94.972 9.807 94.468 9.622C 94.268 9.548 94.171 9.285 94.134 8.717C 94.091 8.039 94.028 7.909 93.717 7.865C 93.408 7.821 93.343 7.69 93.3 7.031C 93.258 6.373 93.192 6.242 92.885 6.198C 92.658 6.166 92.501 6.009 92.469 5.781C 92.436 5.554 92.279 5.397 92.052 5.365C 91.825 5.332 91.668 5.175 91.635 4.948C 91.602 4.717 91.446 4.564 91.208 4.53C 90.973 4.497 90.833 4.361 90.833 4.166C 90.833 3.991 90.671 3.804 90.458 3.737C 90.252 3.672 89.991 3.488 89.879 3.329C 89.767 3.169 89.399 2.987 89.063 2.924C 88.726 2.861 88.327 2.657 88.177 2.472C 87.953 2.195 87.641 2.118 86.452 2.044C 85.217 1.967 85 1.91 85 1.663C 85 1.502 84.832 1.327 84.625 1.272C 84.205 1.159 67.796 1.171 67.208 1.284M154.947 1.275C 154.885 1.338 154.833 13.114 154.833 27.444L154.833 27.444L154.833 53.5L158.917 53.5L163 53.5L163 39.333C 163 25.442 163.006 25.167 163.322 25.167C 163.499 25.167 163.689 25.024 163.745 24.85C 163.8 24.676 164.03 24.487 164.256 24.43C 164.52 24.364 164.667 24.209 164.667 23.997C 164.667 23.748 164.78 23.666 165.125 23.664C 165.91 23.66 166.333 23.479 166.333 23.147C 166.333 22.878 166.463 22.833 167.25 22.833C 168.056 22.833 168.167 22.874 168.167 23.167C 168.167 23.389 168.278 23.5 168.5 23.5C 168.831 23.5 168.833 23.611 168.833 38.313C 168.833 50.668 168.871 53.157 169.062 53.316C 169.224 53.45 170.562 53.493 173.604 53.461L173.604 53.461L177.917 53.417L177.917 36.167L177.917 18.917L177.542 18.752C 177.316 18.653 177.167 18.441 177.167 18.221C 177.167 17.635 176.863 17 176.583 17C 176.441 17 176.254 16.813 176.167 16.583C 176.036 16.24 175.897 16.167 175.377 16.167C 174.882 16.167 174.71 16.086 174.581 15.792C 174.422 15.428 174.336 15.415 171.713 15.371L171.713 15.371L169.008 15.325L168.903 15.746C 168.803 16.144 168.737 16.167 167.667 16.167C 166.6 16.167 166.53 16.19 166.432 16.583C 166.34 16.949 166.237 17 165.592 17C 164.956 17 164.849 17.051 164.803 17.375C 164.769 17.616 164.616 17.769 164.375 17.803C 164.141 17.836 163.962 18.009 163.899 18.262C 163.836 18.512 163.677 18.667 163.482 18.667C 163.309 18.667 163.149 18.76 163.127 18.875C 163.105 18.99 163.049 15.071 163.002 10.167L163.002 10.167L162.917 1.25L158.989 1.205C 156.829 1.181 155.01 1.212 154.947 1.275M199.125 1.275C 198.852 1.352 198.833 1.896 198.833 9.656L198.833 9.656L198.833 17.954L198.451 17.881C 198.24 17.84 197.996 17.645 197.909 17.445C 197.789 17.171 197.58 17.071 197.052 17.033C 196.479 16.991 196.345 16.916 196.302 16.616C 196.258 16.31 196.127 16.242 195.495 16.201C 194.902 16.162 194.704 16.072 194.578 15.784C 194.423 15.431 194.316 15.415 191.82 15.371L191.82 15.371L189.224 15.325L189.032 15.746C 188.864 16.114 188.737 16.167 188.004 16.167C 187.222 16.167 187.167 16.194 187.167 16.583C 187.167 16.959 187.1 17 186.496 17C 185.779 17 185.5 17.35 185.5 18.249C 185.5 18.531 185.393 18.659 185.125 18.697C 184.89 18.73 184.731 18.884 184.699 19.109C 184.668 19.328 184.488 19.509 184.241 19.571C 184.018 19.627 183.844 19.727 183.854 19.795C 183.974 20.574 183.799 21.188 183.417 21.333C 183.006 21.49 183 21.518 183 23.394C 183 25.281 182.997 25.298 182.586 25.401L182.586 25.401L182.173 25.505L182.173 34.417L182.173 43.328L182.58 43.431C 182.974 43.529 182.99 43.592 183.036 45.142C 183.081 46.666 183.103 46.753 183.458 46.803C 183.813 46.854 183.933 47.562 183.823 48.958C 183.818 49.027 183.987 49.124 184.198 49.173C 184.514 49.247 184.593 49.39 184.635 49.964C 184.677 50.548 184.754 50.682 185.093 50.767C 185.381 50.84 185.5 50.985 185.5 51.265C 185.5 51.548 185.619 51.69 185.917 51.765C 186.167 51.828 186.333 51.989 186.333 52.168C 186.333 52.352 186.53 52.536 186.846 52.646C 187.128 52.744 187.315 52.894 187.263 52.979C 187.127 53.2 188.088 53.5 188.93 53.5C 189.543 53.5 189.651 53.553 189.697 53.875C 189.749 54.244 189.787 54.25 192.167 54.25C 194.546 54.25 194.584 54.244 194.637 53.875C 194.683 53.548 194.789 53.5 195.47 53.498C 196.528 53.495 196.954 53.36 197.049 52.999C 197.092 52.832 197.306 52.67 197.522 52.639C 197.776 52.603 197.935 52.456 197.968 52.226C 198.096 51.322 198.833 51.646 198.833 52.606L198.833 52.606L198.833 53.5L202.958 53.498C 205.227 53.496 207.252 53.45 207.458 53.395L207.458 53.395L207.833 53.294L207.833 27.407C 207.833 6.88 207.79 1.492 207.625 1.385C 207.4 1.239 199.607 1.139 199.125 1.275M337.447 1.275C 337.385 1.338 337.333 13.114 337.333 27.444L337.333 27.444L337.333 53.5L341.5 53.5L345.667 53.5L345.667 47.268L345.667 41.036L346.083 40.932C 346.45 40.839 346.5 40.738 346.5 40.08C 346.5 39.395 346.534 39.333 346.917 39.333C 347.247 39.333 347.333 39.249 347.333 38.928C 347.333 38.635 347.437 38.508 347.708 38.47C 347.949 38.436 348.102 38.283 348.137 38.042C 348.175 37.77 348.302 37.667 348.595 37.667C 348.988 37.667 349 37.704 349 38.917C 349 40.133 349.011 40.167 349.409 40.167C 349.802 40.167 349.821 40.216 349.868 41.375C 349.912 42.477 349.949 42.588 350.285 42.636C 350.62 42.683 350.657 42.795 350.701 43.886C 350.746 44.983 350.781 45.088 351.125 45.137C 351.474 45.186 351.5 45.273 351.502 46.387C 351.505 47.866 351.614 48.294 352.018 48.422C 352.277 48.505 352.333 48.686 352.333 49.436C 352.333 50.196 352.403 50.414 352.75 50.735C 353.107 51.066 353.167 51.268 353.167 52.138C 353.167 53.532 353.054 53.5 357.989 53.5L357.989 53.5L362.167 53.5L362.164 52.042C 362.162 50.697 362.042 50.116 361.773 50.152C 361.393 50.203 361.333 50.063 361.331 49.125C 361.328 48.15 361.187 47.619 360.94 47.652C 360.567 47.702 360.5 47.587 360.5 46.901C 360.5 46.281 360.438 46.119 360.174 46.05C 359.898 45.978 359.84 45.794 359.799 44.857C 359.756 43.893 359.701 43.729 359.375 43.585C 359.049 43.443 359 43.296 359 42.472C 359 41.563 358.74 41 358.321 41C 358.236 41 358.161 40.606 358.155 40.125C 358.141 39.096 357.973 38.583 357.65 38.583C 357.487 38.583 357.382 38.268 357.302 37.542C 357.173 36.377 357.087 36.167 356.74 36.167C 356.568 36.167 356.494 35.944 356.48 35.375C 356.456 34.396 356.287 33.57 356.123 33.625C 355.77 33.744 355.667 33.608 355.667 33.021C 355.667 31.991 355.484 31.351 355.162 31.248C 354.936 31.177 354.85 30.942 354.807 30.285C 354.726 29.055 354.797 28.762 355.215 28.578C 355.418 28.489 355.606 28.256 355.634 28.059C 355.662 27.862 355.823 27.665 355.991 27.621C 356.198 27.567 356.335 27.318 356.413 26.854C 356.477 26.476 356.592 26.167 356.669 26.167C 356.99 26.167 357.333 25.606 357.333 25.083C 357.333 24.629 357.404 24.513 357.708 24.47C 357.956 24.435 358.102 24.283 358.139 24.022C 358.17 23.806 358.332 23.592 358.499 23.549C 358.809 23.468 358.994 23.037 358.998 22.387C 358.999 22.137 359.118 22.006 359.375 21.97C 359.622 21.935 359.769 21.783 359.806 21.522C 359.837 21.305 360.005 21.091 360.181 21.045C 360.434 20.978 360.5 20.81 360.5 20.231C 360.5 19.562 360.536 19.5 360.917 19.5C 361.242 19.5 361.333 19.415 361.333 19.11C 361.333 18.856 361.478 18.654 361.75 18.53C 362.132 18.356 362.167 18.251 362.167 17.254L362.167 17.254L362.167 16.167L357.667 16.167L353.167 16.167L353.167 16.565C 353.167 16.847 353.049 16.993 352.768 17.064C 352.549 17.119 352.373 17.258 352.378 17.374C 352.415 18.341 352.318 18.646 351.958 18.697C 351.717 18.731 351.564 18.884 351.53 19.125C 351.498 19.352 351.326 19.537 351.092 19.596C 350.881 19.649 350.711 19.78 350.714 19.888C 350.741 20.863 350.65 21.146 350.292 21.197C 350.065 21.229 349.898 21.384 349.868 21.588C 349.842 21.775 349.654 22 349.452 22.088C 349.169 22.212 349.071 22.416 349.032 22.958C 348.987 23.584 348.934 23.667 348.574 23.667C 348.262 23.667 348.167 23.755 348.167 24.044C 348.167 24.275 348.022 24.485 347.792 24.585C 347.502 24.713 347.405 24.911 347.365 25.458C 347.32 26.084 347.267 26.167 346.907 26.167C 346.584 26.167 346.5 26.253 346.5 26.583C 346.5 26.813 346.431 27 346.347 27C 346.263 27 346.076 27.045 345.931 27.101C 345.694 27.192 345.665 25.957 345.626 14.226L345.626 14.226L345.583 1.25L341.572 1.205C 339.366 1.181 337.51 1.212 337.447 1.275M100.075 3.045C 100.03 3.162 100.014 5.018 100.039 7.17L100.039 7.17L100.083 11.083L104.583 11.083L109.083 11.083L109.128 7.167C 109.169 3.632 109.145 3.23 108.888 3.042C 108.474 2.739 100.191 2.742 100.075 3.045M136.708 2.944C 136.547 3.009 136.5 4.498 136.5 9.597L136.5 9.597L136.5 16.167L134.518 16.167C 132.125 16.167 132.333 15.84 132.333 19.601L132.333 19.601L132.333 22.508L132.761 22.671C 132.996 22.76 133.933 22.833 134.844 22.833L134.844 22.833L136.5 22.833L136.5 35.829L136.5 48.826L136.908 49.093C 137.213 49.293 137.328 49.535 137.366 50.055C 137.405 50.584 137.505 50.789 137.785 50.912C 137.987 51 138.175 51.225 138.202 51.412C 138.23 51.613 138.398 51.771 138.615 51.802C 138.842 51.834 138.999 51.991 139.031 52.219C 139.062 52.436 139.22 52.603 139.422 52.632C 139.608 52.658 139.833 52.846 139.922 53.048C 140.062 53.367 140.233 53.423 141.192 53.466C 142.215 53.511 142.309 53.547 142.404 53.927L142.404 53.927L142.508 54.34L146.046 54.295C 149.515 54.251 149.586 54.243 149.745 53.882C 149.834 53.679 150.059 53.492 150.245 53.465C 150.572 53.418 150.583 53.306 150.583 50.167L150.583 50.167L150.583 46.917L148.558 46.87C 146.562 46.824 146.532 46.818 146.431 46.413C 146.374 46.187 146.273 46.01 146.205 46.021C 145.666 46.104 145.667 46.121 145.667 34.417L145.667 34.417L145.667 22.833L148.167 22.833L150.667 22.833L150.667 19.5L150.667 16.167L148.167 16.167L145.667 16.167L145.667 9.604L145.667 3.042L145.146 2.938C 144.534 2.815 137.013 2.821 136.708 2.944M21.872 5.629C 21.977 5.756 22.007 6.225 21.946 6.802L21.946 6.802L21.846 7.763L22.355 7.802C 22.823 7.838 22.843 7.819 22.598 7.574C 22.451 7.427 22.373 7.238 22.425 7.153C 22.477 7.069 22.443 7 22.348 7C 21.973 7 22.206 5.81 22.611 5.656C 23.171 5.443 23.092 5.363 22.349 5.392C 21.844 5.411 21.737 5.464 21.872 5.629M35.561 5.712C 36.053 6.204 36.053 7.094 35.561 7.454C 35.241 7.688 35.356 7.924 35.722 7.784C 36.169 7.612 36.273 5.5 35.834 5.5C 35.757 5.5 35.568 5.452 35.414 5.392C 35.237 5.325 35.291 5.443 35.561 5.712M15.381 7.708C 15.408 8.202 15.46 8.239 15.809 8.018C 15.967 7.918 15.98 7.84 15.851 7.761C 15.75 7.698 15.661 7.708 15.655 7.782C 15.649 7.856 15.578 7.767 15.499 7.583C 15.375 7.296 15.359 7.313 15.381 7.708M36.216 8.056C 36.216 8.346 36.247 8.457 36.285 8.302C 36.323 8.147 36.464 7.997 36.599 7.969C 36.792 7.928 36.778 7.875 36.531 7.723C 36.248 7.548 36.217 7.582 36.216 8.056M42.349 7.731C 42.204 7.906 42.21 7.981 42.378 8.046C 42.509 8.096 42.608 8.002 42.622 7.815C 42.651 7.439 42.603 7.425 42.349 7.731M21.566 8.083C 22.141 8.518 22.138 9.817 21.562 10.301C 21.299 10.522 21.196 10.643 21.333 10.57C 21.536 10.461 21.546 10.482 21.385 10.681C 21.277 10.815 20.983 10.943 20.732 10.963C 19.929 11.03 20.083 11.167 20.961 11.167C 21.826 11.167 22.216 10.817 21.907 10.317C 21.827 10.188 21.913 10.169 22.186 10.256C 22.53 10.365 22.553 10.348 22.366 10.123C 22.248 9.98 22.186 9.651 22.229 9.39C 22.271 9.13 22.312 8.856 22.32 8.782C 22.327 8.708 22.42 8.701 22.526 8.766C 22.641 8.837 22.673 8.812 22.606 8.704C 22.545 8.604 22.571 8.476 22.664 8.418C 22.948 8.243 22.853 8 22.5 8C 22.317 8 22.167 8.08 22.167 8.179C 22.167 8.277 22.049 8.239 21.905 8.095C 21.761 7.951 21.554 7.836 21.446 7.839C 21.338 7.842 21.392 7.952 21.566 8.083M81 8.25C 81 8.657 81.029 8.667 82.238 8.667C 83.396 8.667 83.48 8.691 83.53 9.042C 83.574 9.353 83.703 9.425 84.291 9.468C 84.882 9.511 85.015 9.586 85.101 9.926C 85.162 10.172 85.323 10.333 85.506 10.333C 85.695 10.333 85.83 10.476 85.863 10.708C 85.898 10.949 86.051 11.102 86.292 11.137C 86.837 11.214 86.89 17.736 86.346 17.878C 86.113 17.939 85.995 18.171 85.911 18.731C 85.836 19.227 85.712 19.5 85.56 19.5C 85.431 19.5 85.254 19.688 85.167 19.917C 85.08 20.146 84.892 20.333 84.75 20.333C 84.608 20.333 84.42 20.521 84.333 20.75C 84.237 21.003 84.044 21.167 83.841 21.167C 83.623 21.167 83.47 21.312 83.402 21.583C 83.302 21.981 83.238 22.001 81.982 22.021C 80.201 22.049 80.257 22.035 80.197 22.458C 80.145 22.824 80.093 22.833 78.072 22.833L78.072 22.833L76 22.833L76 15.333L76 7.833L78.5 7.833L81 7.833L81 8.25L287.795 0.833zM35.271 8.245C 35.323 8.379 35.414 8.483 35.474 8.475C 35.767 8.436 35.901 8.515 35.733 8.628C 35.608 8.711 35.652 8.857 35.871 9.083C 36.23 9.455 36.158 8.676 35.79 8.208C 35.56 7.916 35.156 7.945 35.271 8.245M35.805 9.911C 35.702 10.138 35.554 10.283 35.475 10.235C 35.397 10.186 35.263 10.329 35.179 10.551C 34.982 11.069 33.297 11.179 32.994 10.695C 32.842 10.45 32.827 10.456 32.871 10.75C 33.03 11.825 36.167 10.843 36.167 9.717C 36.167 9.377 36.011 9.461 35.805 9.911M15.419 10.563C 15.44 10.758 15.467 10.959 15.479 11.011C 15.49 11.062 15.856 11.112 16.292 11.121C 16.727 11.13 16.934 11.098 16.752 11.049C 16.569 11 16.328 10.828 16.215 10.668C 15.89 10.203 15.373 10.135 15.419 10.563M28.5 10.333C 28.478 10.471 28.472 10.649 28.487 10.729C 28.502 10.809 28.4 10.831 28.262 10.778C 28.124 10.725 27.802 10.79 27.547 10.923L27.547 10.923L27.083 11.165L27.797 11.166C 28.543 11.167 28.765 10.956 28.617 10.385C 28.559 10.163 28.528 10.15 28.5 10.333M36.199 10.638C 36.244 11.031 36.329 11.087 36.917 11.118L36.917 11.118L37.583 11.153L37.042 10.909C 36.504 10.667 36.263 10.373 36.759 10.564C 36.901 10.618 36.977 10.598 36.928 10.518C 36.675 10.109 36.147 10.195 36.199 10.638M42.29 10.3C 42.128 10.332 42.036 10.423 42.084 10.501C 42.133 10.58 42.004 10.761 41.799 10.905L41.799 10.905L41.426 11.167L41.838 11.164C 42.409 11.161 42.706 10.937 42.64 10.56C 42.604 10.358 42.476 10.263 42.29 10.3M18.5 10.488C 18.5 10.573 18.382 10.761 18.238 10.905C 18 11.143 18.049 11.166 18.78 11.156C 19.43 11.148 19.512 11.117 19.208 10.995C 19.002 10.912 18.833 10.729 18.833 10.589C 18.833 10.448 18.758 10.333 18.667 10.333C 18.575 10.333 18.5 10.403 18.5 10.488M25.121 10.657C 25.023 11.031 23.464 11.133 23.042 10.793C 22.892 10.673 22.833 10.702 22.833 10.896C 22.833 11.357 25.106 11.286 25.254 10.821C 25.314 10.631 25.329 10.44 25.286 10.397C 25.244 10.355 25.169 10.472 25.121 10.657M25.591 10.488C 25.538 10.573 25.646 10.691 25.831 10.749C 26.016 10.808 26.167 10.926 26.167 11.011C 26.167 11.097 26.373 11.156 26.625 11.144C 27.018 11.125 27.03 11.111 26.708 11.049C 26.37 10.984 26.257 10.816 26.314 10.458C 26.342 10.278 25.704 10.304 25.591 10.488M29.563 10.575C 29.404 10.99 29.66 11.167 30.385 11.147C 30.769 11.137 30.933 11.096 30.75 11.058C 30.567 11.019 30.251 10.952 30.048 10.908C 29.804 10.857 29.711 10.746 29.774 10.582C 29.826 10.445 29.821 10.333 29.763 10.333C 29.704 10.333 29.614 10.442 29.563 10.575M31.701 10.775L31.319 11.211L31.859 11.103C 32.404 10.994 32.715 10.713 32.563 10.466C 32.41 10.22 32.086 10.337 31.701 10.775M39.345 10.516C 39.339 10.663 39.165 10.86 38.958 10.954C 38.647 11.097 38.739 11.126 39.5 11.125C 40.08 11.124 40.269 11.085 40.015 11.016C 39.795 10.957 39.556 10.761 39.485 10.579C 39.39 10.336 39.354 10.319 39.345 10.516M127.449 15.439C 127.386 15.503 127.333 15.693 127.333 15.861C 127.333 16.12 127.195 16.167 126.43 16.167C 125.313 16.167 125 16.28 125 16.684C 125 16.906 124.881 17 124.601 17C 124.315 17 124.173 17.118 124.098 17.417C 124.033 17.676 123.875 17.833 123.682 17.833C 123.488 17.833 123.33 17.991 123.265 18.25C 123.199 18.513 123.043 18.667 122.842 18.667C 122.644 18.667 122.496 18.809 122.451 19.042C 122.411 19.248 122.369 18.685 122.356 17.792L122.356 17.792L122.333 16.167L118.25 16.167L114.167 16.167L114.167 34.833L114.167 53.5L118.25 53.5L122.333 53.5L122.333 40.685L122.333 27.869L122.75 27.765C 123.116 27.673 123.167 27.57 123.167 26.925C 123.167 26.29 123.217 26.183 123.542 26.137C 123.779 26.103 123.936 25.949 123.969 25.719C 124.001 25.491 124.158 25.334 124.385 25.302C 124.616 25.269 124.77 25.112 124.803 24.875C 124.882 24.322 129.833 24.278 129.833 24.83C 129.833 25.19 130.359 25.4 131.025 25.305L131.025 25.305L131.417 25.25L131.417 20.333L131.417 15.417L129.491 15.37C 128.432 15.344 127.513 15.376 127.449 15.439M221.167 15.742C 221.167 16.159 221.145 16.167 219.917 16.167C 218.694 16.167 218.667 16.176 218.667 16.583C 218.667 16.972 218.611 17 217.833 17C 217.056 17 217 17.028 217 17.417C 217 17.75 216.917 17.833 216.583 17.833C 216.253 17.833 216.167 17.917 216.167 18.238C 216.167 18.532 216.063 18.658 215.792 18.697C 215.551 18.731 215.398 18.884 215.363 19.125C 215.325 19.396 215.198 19.5 214.905 19.5C 214.589 19.5 214.5 19.588 214.5 19.897C 214.5 20.15 214.383 20.325 214.178 20.379C 213.957 20.436 213.822 20.666 213.748 21.107C 213.597 22.011 213.523 22.201 213.36 22.1C 213.051 21.909 212.833 22.83 212.793 24.5C 212.758 25.905 212.702 26.25 212.506 26.25C 212.16 26.25 211.919 27.218 212.104 27.865C 212.321 28.621 212.715 28.68 217.202 28.628L217.202 28.628L221.083 28.583L221.132 27.292C 221.169 26.309 221.237 26 221.418 26C 221.78 26 222 25.443 222 24.523C 222 23.786 222.043 23.684 222.375 23.637C 222.616 23.602 222.769 23.449 222.803 23.208C 222.88 22.667 225.213 22.631 225.5 23.167C 225.598 23.35 225.788 23.5 225.923 23.5C 226.071 23.5 226.167 23.661 226.167 23.913C 226.167 24.216 226.279 24.355 226.583 24.432L226.583 24.432L227 24.536L227 27.329L227 30.121L226.227 30.227C 225.801 30.286 225.239 30.333 224.977 30.333C 224.611 30.333 224.5 30.411 224.5 30.667C 224.5 30.919 224.388 31.001 224.042 31.002C 223.266 31.006 222.833 31.188 222.833 31.51C 222.833 31.756 222.679 31.825 222.042 31.866C 221.366 31.909 221.242 31.972 221.197 32.292C 221.154 32.595 221.037 32.667 220.585 32.667C 219.811 32.667 219.5 32.815 219.5 33.184C 219.5 33.433 219.378 33.5 218.93 33.5C 218.151 33.5 217.833 33.647 217.833 34.006C 217.833 34.195 217.691 34.33 217.458 34.363C 217.224 34.397 217.064 34.551 217.032 34.774C 216.985 35.106 216.663 35.249 215.708 35.364C 215.594 35.378 215.489 35.47 215.475 35.569C 215.461 35.669 215.432 35.825 215.411 35.917C 215.389 36.008 215.363 36.247 215.353 36.447C 215.34 36.689 215.208 36.828 214.96 36.863C 214.742 36.895 214.562 37.055 214.528 37.25C 214.496 37.433 214.323 37.699 214.143 37.841C 213.962 37.983 213.774 38.356 213.725 38.67C 213.675 38.984 213.464 39.4 213.255 39.593C 212.912 39.912 212.873 40.109 212.846 41.669C 212.813 43.537 212.777 43.699 212.418 43.561C 211.827 43.334 211.861 45.652 212.453 45.912C 212.789 46.06 212.826 46.208 212.869 47.579C 212.913 48.956 212.948 49.097 213.292 49.248C 213.586 49.377 213.667 49.549 213.667 50.043C 213.667 50.551 213.746 50.71 214.075 50.86C 214.299 50.962 214.505 51.204 214.533 51.398C 214.564 51.613 214.726 51.77 214.948 51.802C 215.175 51.834 215.332 51.991 215.365 52.219C 215.396 52.436 215.554 52.603 215.755 52.632C 215.941 52.658 216.166 52.846 216.255 53.048C 216.377 53.327 216.599 53.437 217.167 53.5C 217.653 53.554 217.902 53.658 217.874 53.795C 217.795 54.185 218.698 54.344 220.732 54.297C 222.682 54.252 222.752 54.237 222.803 53.875C 222.852 53.535 222.947 53.5 223.831 53.5C 225.009 53.5 225.333 53.392 225.333 53C 225.333 52.822 225.5 52.661 225.75 52.598C 226.009 52.533 226.167 52.375 226.167 52.182C 226.167 51.988 226.324 51.83 226.583 51.765C 226.888 51.688 227 51.549 227 51.247C 227 50.997 227.095 50.833 227.242 50.833C 227.375 50.833 227.56 50.702 227.653 50.542C 227.778 50.328 227.825 50.663 227.828 51.792C 227.831 52.64 227.852 53.348 227.875 53.367C 227.898 53.385 229.604 53.442 231.667 53.492C 234.848 53.569 235.417 53.621 235.417 53.833C 235.417 54.313 236.713 54.163 236.851 53.667C 237.216 52.353 236.942 50.167 236.411 50.167C 236.198 50.167 236.167 48.474 236.167 37.18C 236.167 23.694 236.166 23.667 235.649 23.667C 235.377 23.667 235.333 23.538 235.333 22.739C 235.333 21.726 235.124 21.167 234.744 21.167C 234.61 21.167 234.5 21.028 234.5 20.858C 234.5 20.352 234.146 19.493 233.979 19.596C 233.894 19.649 233.744 19.461 233.646 19.179C 233.536 18.864 233.352 18.667 233.168 18.667C 232.991 18.667 232.828 18.502 232.768 18.262C 232.705 18.012 232.525 17.836 232.298 17.803C 232.076 17.771 231.895 17.598 231.84 17.365C 231.791 17.154 231.694 16.985 231.625 16.99C 230.738 17.06 230.399 16.97 230.248 16.625C 230.106 16.301 229.925 16.239 228.917 16.167C 227.884 16.093 227.744 16.043 227.699 15.727C 227.65 15.379 227.58 15.371 224.408 15.344L224.408 15.344L221.167 15.317L221.167 15.742zM317.619 15.436C 317.554 15.502 317.5 15.693 317.5 15.861C 317.5 16.13 317.351 16.167 316.25 16.167C 315.028 16.167 315 16.176 315 16.583C 315 16.972 314.944 17 314.167 17C 313.389 17 313.333 17.028 313.333 17.417C 313.333 17.75 313.25 17.833 312.917 17.833C 312.583 17.833 312.5 17.917 312.5 18.25C 312.5 18.583 312.417 18.667 312.083 18.667C 311.75 18.667 311.667 18.75 311.667 19.083C 311.667 19.417 311.583 19.5 311.25 19.5C 310.928 19.5 310.833 19.586 310.833 19.877C 310.833 20.108 310.688 20.318 310.458 20.419C 310.172 20.544 310.064 20.761 310 21.333C 309.932 21.944 309.855 22.083 309.583 22.083C 309.272 22.083 309.247 22.21 309.203 24C 309.148 26.197 309.112 26.367 308.711 26.299C 308.458 26.257 308.413 26.397 308.39 27.29L308.39 27.29L308.364 28.329L308.974 28.506C 309.351 28.616 311.075 28.664 313.5 28.633L313.5 28.633L317.417 28.583L317.465 27.309C 317.505 26.245 317.563 26.022 317.815 25.957C 318.132 25.874 318.333 25.207 318.333 24.241C 318.333 23.796 318.406 23.68 318.708 23.637C 318.949 23.602 319.102 23.449 319.137 23.208C 319.214 22.662 321.667 22.622 321.667 23.167C 321.667 23.411 321.778 23.5 322.083 23.5C 322.421 23.5 322.5 23.582 322.5 23.932C 322.5 24.224 322.608 24.393 322.833 24.452C 323.15 24.535 323.167 24.679 323.167 27.34L323.167 27.34L323.167 30.14L322.062 30.258C 321.182 30.353 320.941 30.44 320.876 30.688C 320.823 30.892 320.643 31.001 320.356 31.002C 319.598 31.006 319.167 31.191 319.167 31.51C 319.167 31.756 319.012 31.825 318.375 31.866C 317.705 31.909 317.575 31.973 317.531 32.283C 317.487 32.592 317.357 32.657 316.698 32.7C 316.033 32.742 315.909 32.806 315.863 33.125C 315.82 33.429 315.704 33.5 315.252 33.5C 314.478 33.5 314.167 33.649 314.167 34.018C 314.167 34.243 314.048 34.333 313.75 34.333C 313.425 34.333 313.333 34.419 313.333 34.722C 313.333 35.053 313.216 35.133 312.542 35.264C 312.106 35.348 311.741 35.51 311.729 35.625C 311.718 35.74 311.699 36.058 311.688 36.333C 311.67 36.75 311.597 36.833 311.25 36.833C 310.918 36.833 310.833 36.917 310.833 37.245C 310.833 37.524 310.686 37.733 310.375 37.896C 310.123 38.028 309.935 38.181 309.958 38.235C 310.137 38.658 309.955 39.301 309.602 39.49C 309.223 39.693 309.204 39.787 309.177 41.555C 309.151 43.302 309.018 43.8 308.638 43.566C 308.445 43.446 308.305 44.185 308.364 45.013C 308.405 45.589 308.499 45.786 308.792 45.915C 309.142 46.068 309.167 46.182 309.167 47.62C 309.167 49.115 309.179 49.163 309.575 49.263C 309.925 49.351 309.99 49.476 310.033 50.141C 310.075 50.793 310.141 50.925 310.448 50.969C 310.675 51.001 310.832 51.158 310.865 51.385C 310.898 51.616 311.054 51.77 311.292 51.803C 311.563 51.842 311.667 51.968 311.667 52.262C 311.667 52.583 311.753 52.667 312.083 52.667C 312.381 52.667 312.5 52.757 312.5 52.982C 312.5 53.353 312.812 53.5 313.597 53.5C 313.986 53.5 314.167 53.577 314.167 53.744C 314.167 54.479 319.033 54.607 319.137 53.875C 319.184 53.539 319.284 53.5 320.081 53.5C 321.18 53.5 321.5 53.386 321.5 52.994C 321.5 52.805 321.643 52.67 321.875 52.637C 322.11 52.603 322.269 52.449 322.301 52.224C 322.332 52.005 322.512 51.825 322.76 51.762C 323.048 51.69 323.167 51.545 323.167 51.266C 323.167 50.978 323.279 50.851 323.583 50.793C 323.989 50.715 324 50.738 324 51.679C 324 52.21 324.073 52.837 324.163 53.072L324.163 53.072L324.325 53.5L327.976 53.5C 331.488 53.5 331.631 53.513 331.715 53.833C 331.848 54.343 332.958 54.309 333.087 53.792C 333.354 52.724 333.094 50.252 332.709 50.197L332.709 50.197L332.335 50.144L332.293 36.947L332.25 23.75L331.882 23.698C 331.547 23.65 331.51 23.538 331.465 22.448C 331.421 21.35 331.385 21.246 331.042 21.197C 330.719 21.151 330.667 21.043 330.667 20.423C 330.667 19.799 330.612 19.689 330.262 19.601C 330.009 19.538 329.836 19.359 329.803 19.125C 329.769 18.884 329.616 18.731 329.375 18.697C 329.104 18.658 329 18.532 329 18.238C 329 18.016 328.944 17.842 328.875 17.853C 328.438 17.922 328.183 17.786 328.137 17.458C 328.081 17.069 328.048 17.055 327.083 17.021C 326.578 17.003 326.5 16.944 326.5 16.583C 326.5 16.176 326.471 16.167 325.262 16.167C 324.104 16.167 324.02 16.142 323.97 15.792C 323.916 15.411 317.977 15.079 317.619 15.436M372.232 15.763C 372.137 16.141 372.058 16.167 370.985 16.167C 369.909 16.167 369.833 16.191 369.737 16.575C 369.652 16.914 369.518 16.991 368.942 17.033C 368.37 17.075 368.241 17.148 368.197 17.458C 368.16 17.718 368.03 17.833 367.775 17.833C 367.518 17.833 367.349 17.986 367.216 18.338C 367.111 18.615 366.928 18.821 366.808 18.796C 366.668 18.766 366.534 19.034 366.434 19.542C 366.316 20.138 366.203 20.333 365.975 20.333C 365.67 20.333 365.55 20.625 365.462 21.583C 365.437 21.858 365.329 22.083 365.222 22.083C 364.867 22.083 364.803 22.298 364.693 23.863C 364.633 24.717 364.522 25.379 364.447 25.333C 363.988 25.054 363.915 26.097 363.863 33.75C 363.805 42.352 363.854 43.326 364.348 43.455C 364.625 43.528 364.667 43.697 364.667 44.759C 364.667 46.121 364.865 46.833 365.246 46.833C 365.421 46.833 365.501 47.002 365.502 47.375C 365.506 48.513 365.695 49.167 366.022 49.167C 366.242 49.167 366.333 49.287 366.333 49.58C 366.333 49.88 366.446 50.022 366.742 50.096C 367.072 50.179 367.172 50.337 367.259 50.916C 367.363 51.612 367.388 51.637 368.089 51.742C 368.666 51.829 368.823 51.925 368.865 52.217C 368.897 52.447 369.054 52.603 369.284 52.636C 369.486 52.664 369.694 52.825 369.748 52.993C 369.863 53.357 370.308 53.495 371.375 53.498C 371.972 53.499 372.167 53.562 372.167 53.754C 372.167 54.468 378.7 54.604 378.801 53.892C 378.848 53.563 378.968 53.529 380.269 53.475C 381.483 53.425 381.726 53.365 381.968 53.057C 382.123 52.859 382.4 52.67 382.583 52.638C 382.775 52.605 382.939 52.425 382.969 52.217C 383.001 51.991 383.159 51.834 383.385 51.802C 383.612 51.77 383.77 51.612 383.802 51.385C 383.834 51.158 383.991 51.001 384.219 50.969C 384.446 50.936 384.603 50.779 384.635 50.552C 384.668 50.325 384.825 50.168 385.052 50.135C 385.289 50.102 385.436 49.945 385.472 49.689C 385.503 49.472 385.665 49.259 385.832 49.215C 386.196 49.12 386.328 48.694 386.331 47.609C 386.333 46.956 386.394 46.786 386.651 46.719C 387.118 46.597 387.162 46.245 387.164 42.625L387.164 42.625L387.167 39.333L383 39.333L378.833 39.333L378.833 40.934C 378.833 42.447 378.81 42.554 378.413 42.866C 378.182 43.048 378.003 43.284 378.016 43.39C 378.184 44.769 377.98 46 377.583 46C 377.25 46 377.167 46.083 377.167 46.417C 377.167 46.824 377.139 46.833 375.917 46.833C 374.694 46.833 374.667 46.824 374.667 46.417C 374.667 46.086 374.583 46 374.259 46C 373.891 46 373.847 45.923 373.801 45.208C 373.77 44.728 373.668 44.408 373.542 44.396C 373.427 44.384 373.258 44.366 373.167 44.354C 373.06 44.341 373 42.542 373 39.333L373 39.333L373 34.333L380.083 34.333L387.167 34.333L387.164 29.292C 387.162 24.189 387.141 23.975 386.632 23.788C 386.407 23.704 386.338 23.432 386.299 22.466C 386.254 21.359 386.217 21.245 385.884 21.198C 385.584 21.155 385.509 21.021 385.467 20.448C 385.429 19.916 385.329 19.712 385.048 19.588C 384.846 19.5 384.658 19.275 384.632 19.088C 384.602 18.884 384.435 18.729 384.208 18.697C 383.937 18.658 383.833 18.532 383.833 18.238C 383.833 17.917 383.747 17.833 383.417 17.833C 383.083 17.833 383 17.75 383 17.417C 383 17.028 382.944 17 382.167 17C 381.389 17 381.333 16.972 381.333 16.583C 381.333 16.176 381.306 16.167 380.083 16.167C 378.857 16.167 378.833 16.159 378.833 15.745L378.833 15.745L378.833 15.323L375.583 15.341L372.333 15.358L372.232 15.763zM100.041 34.789L100.083 53.417L104.583 53.417L109.083 53.417L109.083 34.833L109.083 16.25L104.541 16.206L99.999 16.161L100.041 34.789zM237.833 17C 237.833 17.778 237.861 17.833 238.25 17.833L238.25 17.833L238.667 17.833L238.667 19.754C 238.667 21.65 238.672 21.677 239.083 21.833C 239.48 21.984 239.5 22.057 239.5 23.316C 239.5 24.857 239.587 25.167 240.018 25.167C 240.302 25.167 240.333 25.304 240.333 26.57C 240.333 28.176 240.417 28.5 240.833 28.5C 240.996 28.5 241.126 28.594 241.122 28.708C 241.048 30.704 241.184 31.833 241.5 31.833C 241.776 31.833 241.833 31.944 241.833 32.476C 241.833 34.051 242.04 35.167 242.332 35.167C 242.578 35.167 242.63 35.423 242.716 37.041C 242.801 38.662 242.861 38.953 243.157 39.193C 243.425 39.409 243.5 39.664 243.502 40.36C 243.505 41.779 243.666 42.461 244.019 42.553C 244.292 42.625 244.333 42.802 244.333 43.89C 244.333 45.285 244.53 46 244.913 46C 245.12 46 245.167 46.257 245.167 47.405C 245.167 48.776 245.363 49.333 245.845 49.333C 246.243 49.333 246.025 55.14 245.625 55.197C 245.387 55.231 245.231 55.384 245.198 55.618C 245.151 55.949 245.035 55.99 244.031 56.034C 243.025 56.079 242.912 56.119 242.864 56.452C 242.815 56.801 242.72 56.824 241.198 56.869L241.198 56.869L239.583 56.917L239.531 57.458L239.479 58L246.489 58C 252.61 58 253.5 57.968 253.5 57.75C 253.5 57.612 253.642 57.5 253.816 57.5C 254.25 57.5 254.333 57.191 254.333 55.581C 254.333 54.265 254.354 54.187 254.708 54.137C 255.141 54.075 255.119 54.187 255.146 51.935C 255.166 50.234 255.174 50.201 255.583 50.098C 255.991 49.996 256 49.959 256 48.425C 256 46.925 256.016 46.854 256.375 46.803C 256.731 46.753 256.752 46.667 256.798 45.125C 256.824 44.231 256.912 43.5 256.994 43.5C 257.471 43.5 257.667 42.938 257.667 41.571C 257.667 40.799 257.736 40.167 257.821 40.167C 258.341 40.167 258.5 39.621 258.5 37.833C 258.5 36.083 258.512 36.021 258.875 35.97C 259.231 35.919 259.252 35.833 259.298 34.302C 259.342 32.78 259.366 32.685 259.714 32.636C 260.063 32.586 260.086 32.492 260.131 30.958C 260.168 29.683 260.23 29.333 260.417 29.333C 260.825 29.333 261 28.738 261 27.344C 261 26.275 261.05 26 261.244 26C 261.677 26 261.833 25.391 261.833 23.696C 261.833 22.064 261.84 22.034 262.25 21.932C 262.658 21.829 262.667 21.793 262.667 20.258C 262.667 18.759 262.683 18.688 263.042 18.637C 263.386 18.588 263.421 18.484 263.466 17.375L263.466 17.375L263.515 16.167L258.924 16.167L254.333 16.167L254.333 17.822C 254.333 19.411 254.318 19.479 253.958 19.53C 253.598 19.581 253.58 19.662 253.5 21.667C 253.441 23.15 253.36 23.739 253.218 23.712C 253.051 23.679 252.862 24.007 252.737 24.542C 252.721 24.61 252.699 25.561 252.688 26.655C 252.667 28.583 252.655 28.645 252.292 28.697C 251.929 28.748 251.915 28.818 251.87 30.792C 251.843 31.966 251.754 32.833 251.662 32.833C 251.573 32.833 251.444 32.829 251.375 32.823C 251.145 32.805 251.033 33.569 251.017 35.269L251.017 35.269L251 36.954L250.588 36.875C 250.176 36.796 250.176 36.793 250.13 34.523C 250.085 32.347 250.067 32.243 249.708 32.085C 249.349 31.928 249.333 31.837 249.333 29.877L249.333 29.877L249.333 27.833L248.921 27.833L248.509 27.833L248.463 25.375C 248.429 23.558 248.362 22.911 248.208 22.896C 248.094 22.884 247.927 22.866 247.838 22.854C 247.747 22.842 247.657 21.947 247.63 20.792C 247.585 18.818 247.571 18.748 247.208 18.697C 246.858 18.647 246.833 18.562 246.833 17.405L246.833 17.405L246.833 16.167L242.333 16.167L237.833 16.167L237.833 17zM11.225 23C 11.225 23.779 11.254 24.098 11.289 23.708C 11.324 23.319 11.324 22.681 11.289 22.292C 11.254 21.902 11.225 22.221 11.225 23M196.333 23.077C 196.333 23.4 196.855 23.667 197.489 23.667C 197.879 23.667 198 23.741 198 23.982C 198 24.179 198.156 24.336 198.417 24.402L198.417 24.402L198.833 24.506L198.833 35.253L198.833 46L198 46C 197.222 46 197.167 46.028 197.167 46.417L197.167 46.417L197.167 46.833L195.095 46.833C 193.073 46.833 193.022 46.824 192.97 46.458C 192.936 46.217 192.783 46.064 192.542 46.03C 192.238 45.987 192.167 45.871 192.167 45.419C 192.167 44.645 192.018 44.333 191.649 44.333C 191.141 44.333 191.156 24.585 191.665 24.452C 191.847 24.405 192.07 24.171 192.161 23.933C 192.251 23.695 192.431 23.5 192.56 23.5C 192.689 23.5 192.834 23.35 192.882 23.167C 192.996 22.729 196.333 22.642 196.333 23.077M377.198 23.458C 377.236 23.918 377.349 24.127 377.625 24.248C 377.963 24.396 378.002 24.535 378.019 25.665C 378.046 27.418 378.042 27.398 378.458 27.581C 378.798 27.73 378.833 27.861 378.833 28.956L378.833 28.956L378.833 30.167L375.917 30.167L373 30.167L373 27.345C 373 24.546 373.003 24.523 373.375 24.47C 373.61 24.437 373.769 24.283 373.801 24.057C 373.832 23.839 374.012 23.658 374.26 23.596C 374.52 23.53 374.667 23.375 374.667 23.163C 374.667 22.864 374.782 22.833 375.907 22.833L375.907 22.833L377.147 22.833L377.198 23.458zM7.367 27.2C 7.257 27.31 7.167 27.583 7.167 27.806L7.167 27.806L7.167 28.212L7.5 27.788C 7.993 27.161 7.885 26.682 7.367 27.2M50.167 27.101C 50.167 27.156 50.354 27.425 50.583 27.697C 50.947 28.129 51 28.15 51 27.858C 51 27.674 50.882 27.406 50.738 27.262C 50.475 26.999 50.167 26.912 50.167 27.101M7.073 32.75C 7.073 35.133 7.096 36.085 7.125 34.865C 7.153 33.645 7.153 31.695 7.124 30.532C 7.096 29.368 7.073 30.367 7.073 32.75M81 29.75C 81 30.155 81.034 30.167 82.163 30.167C 83.266 30.167 83.333 30.189 83.432 30.583C 83.506 30.878 83.649 31 83.923 31C 84.198 31 84.326 31.109 84.363 31.375C 84.398 31.616 84.551 31.769 84.792 31.803C 85.04 31.838 85.167 31.971 85.167 32.194C 85.167 32.384 85.304 32.567 85.481 32.613C 85.695 32.669 85.829 32.904 85.9 33.348C 85.962 33.735 86.139 34.084 86.335 34.207C 86.829 34.515 86.853 41.752 86.361 41.908C 86.193 41.961 86.047 42.097 86.036 42.211C 85.968 42.916 85.704 43.583 85.493 43.583C 85.359 43.583 85.226 43.752 85.197 43.958C 85.167 44.165 85.074 44.343 84.988 44.354C 84.903 44.366 84.74 44.384 84.625 44.396C 84.51 44.407 84.393 44.585 84.363 44.792C 84.326 45.058 84.198 45.167 83.923 45.167C 83.649 45.167 83.506 45.289 83.432 45.583C 83.333 45.978 83.266 46 82.163 46C 81.034 46 81 46.012 81 46.417L81 46.417L81 46.833L78.5 46.833L76 46.833L76 38.083L76 29.333L78.5 29.333L81 29.333L81 29.75zM227 41L227 45.167L226.583 45.167C 226.25 45.167 226.167 45.25 226.167 45.583C 226.167 45.917 226.083 46 225.75 46C 225.417 46 225.333 46.083 225.333 46.417C 225.333 47.034 222.891 47.075 222.803 46.458C 222.769 46.217 222.616 46.064 222.375 46.03C 222.106 45.992 222 45.865 222 45.58C 222 45.03 221.659 44.333 221.39 44.333C 220.941 44.333 221.089 41.868 221.542 41.803C 221.862 41.758 221.924 41.634 221.967 40.958C 222.013 40.244 222.058 40.167 222.426 40.167C 222.749 40.167 222.833 40.081 222.833 39.75C 222.833 39.417 222.917 39.333 223.25 39.333C 223.583 39.333 223.667 39.25 223.667 38.917C 223.667 38.583 223.75 38.5 224.083 38.5C 224.414 38.5 224.5 38.416 224.5 38.092C 224.5 37.725 224.577 37.68 225.292 37.634C 225.967 37.591 226.091 37.528 226.137 37.208C 226.175 36.937 226.302 36.833 226.595 36.833L226.595 36.833L227 36.833L227 41zM323.167 41C 323.167 45.006 323.154 45.167 322.845 45.167C 322.638 45.167 322.504 45.301 322.47 45.542C 322.436 45.783 322.283 45.936 322.042 45.97C 321.77 46.008 321.667 46.135 321.667 46.428C 321.667 47.01 319.266 47.066 319.115 46.488C 319.065 46.297 318.875 46.103 318.691 46.055C 318.456 45.993 318.324 45.772 318.246 45.308C 318.182 44.933 317.998 44.564 317.817 44.451C 317.299 44.128 317.348 41.878 317.875 41.803C 318.194 41.758 318.258 41.634 318.3 40.969C 318.343 40.31 318.408 40.179 318.717 40.135C 318.946 40.103 319.103 39.946 319.135 39.719C 319.168 39.491 319.325 39.334 319.552 39.302C 319.783 39.269 319.936 39.112 319.97 38.875C 320.004 38.634 320.138 38.5 320.345 38.5C 320.577 38.5 320.667 38.384 320.667 38.083C 320.667 37.694 320.722 37.667 321.5 37.667C 322.278 37.667 322.333 37.639 322.333 37.25C 322.333 36.917 322.417 36.833 322.75 36.833L322.75 36.833L323.167 36.833L323.167 41zM7.167 37.527C 7.167 37.657 7.325 37.774 7.519 37.789C 7.713 37.804 7.844 37.798 7.811 37.777C 7.777 37.756 7.619 37.639 7.458 37.516C 7.213 37.328 7.167 37.33 7.167 37.527" stroke="none" fill="#FCAC04" fill-rule="nonzero" />
</g>
</svg>